<?xml version="1.0" standalone="no"?>
<!DOCTYPE svg PUBLIC "-//W3C//DTD SVG 1.1//EN" "http://www.w3.org/Graphics/SVG/1.1/DTD/svg11.dtd" >
<svg xmlns="http://www.w3.org/2000/svg" xmlns:xlink="http://www.w3.org/1999/xlink" version="1.1">
<metadata>
Created by FontForge 20161003 at Tue May 16 11:30:49 2017
 By www-data
Copyright (c) Mark Simonson, 2005. All rights reserved.
</metadata>
<defs>
<font id="MarkSimonsonProximaNovaBlack" horiz-adv-x="596" >
  <font-face 
    font-family="MarkSimonsonProximaNovaBlack"
    font-weight="900"
    font-stretch="normal"
    units-per-em="1000"
    panose-1="2 0 5 6 3 0 0 2 0 4"
    ascent="790"
    descent="-210"
    x-height="483"
    cap-height="667"
    bbox="-414 -398 1256 1079"
    underline-thickness="20"
    underline-position="-153"
    unicode-range="U+000D-FB04"
  />
<missing-glyph horiz-adv-x="459" 
d="M54 -90v842h351v-842h-351zM373 722h-288v-782h288v782z" />
    <glyph glyph-name="f_f_j" unicode="ffj" horiz-adv-x="1022" 
d="M882 518q-42 0 -71.5 29.5t-29.5 71.5t29.5 71.5t71.5 29.5t71.5 -29.5t29.5 -71.5t-29.5 -71.5t-71.5 -29.5zM87 0v327h-80v156h80v22q0 75 52 123.5t132 48.5q67 0 112 -24l-32 -120q-17 11 -38 11t-33.5 -12t-12.5 -33v-16h98v-156h-98v-327h-180zM458 0v327h-80v156
h80v22q0 75 52 123.5t132 48.5q67 0 112 -24l-33 -122q-17 13 -40 13q-18 0 -30.5 -11.5t-12.5 -27.5v-22h98v-156h-98v-327h-180zM972 483v-462q0 -98 -50 -157.5t-151 -59.5q-36 0 -56 4v145q10 -2 24 -2q53 0 53 70v462h180z" />
    <glyph glyph-name="f_j" unicode="fj" horiz-adv-x="651" 
d="M511 518q-42 0 -71.5 29.5t-29.5 71.5t29.5 71.5t71.5 29.5t71.5 -29.5t29.5 -71.5t-29.5 -71.5t-71.5 -29.5zM87 0v327h-80v156h80v22q0 75 52 123.5t132 48.5q67 0 112 -24l-33 -122q-17 13 -40 13q-18 0 -30.5 -11.5t-12.5 -27.5v-22h98v-156h-98v-327h-180zM601 483
v-462q0 -98 -50 -157.5t-151 -59.5q-36 0 -56 4v145q10 -2 24 -2q53 0 53 70v462h180z" />
    <glyph glyph-name="f_f" unicode="ff" horiz-adv-x="742" 
d="M87 0v327h-80v156h80v22q0 75 52 123.5t132 48.5q67 0 112 -24l-32 -120q-17 11 -38 11t-33.5 -12t-12.5 -33v-16h98v-156h-98v-327h-180zM458 0v327h-80v156h80v22q0 75 52 123.5t132 48.5q67 0 112 -24l-32 -120q-17 11 -38 11t-33.5 -12t-12.5 -33v-16h98v-156h-98
v-327h-180z" />
    <glyph glyph-name="fi" unicode="fi" horiz-adv-x="651" 
d="M511 518q-42 0 -71.5 29.5t-29.5 71.5t29.5 71.5t71.5 29.5t71.5 -29.5t29.5 -71.5t-29.5 -71.5t-71.5 -29.5zM87 0v327h-80v156h80v22q0 75 52 123.5t132 48.5q67 0 112 -24l-33 -122q-17 13 -40 13q-18 0 -30.5 -11.5t-12.5 -27.5v-22h98v-156h-98v-327h-180zM421 0
v483h180v-483h-180z" />
    <glyph glyph-name="fl" unicode="fl" horiz-adv-x="651" 
d="M87 0v327h-80v156h80v22q0 75 52 123.5t132 48.5q67 0 112 -24l-33 -122q-17 13 -40 13q-18 0 -30.5 -11.5t-12.5 -27.5v-22h98v-156h-98v-327h-180zM421 0v667h180v-667h-180z" />
    <glyph glyph-name="f_f_i" unicode="ffi" horiz-adv-x="1022" 
d="M882 518q-42 0 -71.5 29.5t-29.5 71.5t29.5 71.5t71.5 29.5t71.5 -29.5t29.5 -71.5t-29.5 -71.5t-71.5 -29.5zM87 0v327h-80v156h80v22q0 75 52 123.5t132 48.5q67 0 112 -24l-32 -120q-17 11 -38 11t-33.5 -12t-12.5 -33v-16h98v-156h-98v-327h-180zM458 0v327h-80v156
h80v22q0 75 52 123.5t132 48.5q67 0 112 -24l-33 -122q-17 13 -40 13q-18 0 -30.5 -11.5t-12.5 -27.5v-22h98v-156h-98v-327h-180zM792 0v483h180v-483h-180z" />
    <glyph glyph-name="f_f_l" unicode="ffl" horiz-adv-x="1022" 
d="M87 0v327h-80v156h80v22q0 75 52 123.5t132 48.5q67 0 112 -24l-32 -120q-17 11 -38 11t-33.5 -12t-12.5 -33v-16h98v-156h-98v-327h-180zM458 0v327h-80v156h80v22q0 75 52 123.5t132 48.5q67 0 112 -24l-33 -122q-17 13 -40 13q-18 0 -30.5 -11.5t-12.5 -27.5v-22h98
v-156h-98v-327h-180zM792 0v667h180v-667h-180z" />
    <glyph glyph-name="f_b" unicode="fb" horiz-adv-x="967" 
d="M87 0v327h-80v156h80v22q0 75 52 123.5t132 48.5q67 0 112 -24l-33 -122q-17 13 -40 13q-18 0 -30.5 -11.5t-12.5 -27.5v-22h98v-156h-98v-327h-180zM421 0v667h180v-235q52 63 136 63q92 0 152.5 -68t60.5 -185q0 -120 -60.5 -187t-152.5 -67q-80 0 -136 63v-51h-180z
M601 179q26 -32 75 -32q38 0 64 25.5t26 69.5q0 43 -26 68.5t-64 25.5q-48 0 -75 -33v-124z" />
    <glyph glyph-name="f_h" unicode="fh" horiz-adv-x="979" 
d="M87 0v327h-80v156h80v22q0 75 52 123.5t132 48.5q67 0 112 -24l-33 -122q-17 13 -40 13q-18 0 -30.5 -11.5t-12.5 -27.5v-22h98v-156h-98v-327h-180zM749 0v269q0 67 -70 67q-43 0 -77 -38v-298h-180v667h180v-239q59 67 166 67q80 0 120.5 -41.5t40.5 -108.5v-345h-180z
" />
    <glyph glyph-name="f_k" unicode="fk" horiz-adv-x="928" 
d="M87 0v327h-80v156h80v22q0 75 52 123.5t132 48.5q67 0 112 -24l-33 -122q-17 13 -40 13q-18 0 -30.5 -11.5t-12.5 -27.5v-22h98v-156h-98v-327h-180zM719 0l-83 156l-35 -47v-109h-180v667h180v-356l111 172h217l-166 -220l177 -263h-221z" />
    <glyph glyph-name=".notdef" horiz-adv-x="459" 
d="M54 -90v842h351v-842h-351zM373 722h-288v-782h288v782z" />
    <glyph glyph-name=".null" horiz-adv-x="0" 
 />
    <glyph glyph-name="nonmarkingreturn" horiz-adv-x="333" 
 />
    <glyph glyph-name="NULL" horiz-adv-x="0" 
 />
    <glyph glyph-name="NULL" horiz-adv-x="0" 
 />
    <glyph glyph-name="CR" unicode="&#xd;" horiz-adv-x="0" 
 />
    <glyph glyph-name="space" unicode=" " horiz-adv-x="255" 
 />
    <glyph glyph-name="exclam" unicode="!" horiz-adv-x="280" 
d="M60 248l-27 419h214l-25 -419h-162zM35 95q0 44 31.5 75.5t74.5 31.5t74.5 -31.5t31.5 -75.5q0 -43 -31.5 -74.5t-74.5 -31.5t-74.5 31.5t-31.5 74.5z" />
    <glyph glyph-name="quotedbl" unicode="&#x22;" horiz-adv-x="469" 
d="M89 339q-55 223 -55 246q0 38 27 65t65 27t65 -27t27 -65q0 -10 -14 -71.5t-28 -117.5l-13 -57h-74zM307 339q-55 223 -55 246q0 38 27 65t65 27t64.5 -27t26.5 -65q0 -10 -13.5 -71.5t-27.5 -117.5l-14 -57h-73z" />
    <glyph glyph-name="numbersign" unicode="#" horiz-adv-x="646" 
d="M250 0l53 158h-79l-52 -158h-127l53 158h-86l35 109h88l43 132h-87l34 108h90l53 160h127l-53 -160h78l53 160h127l-54 -160h88l-33 -108h-91l-44 -132h91l-34 -109h-94l-52 -158h-127zM383 399h-78l-43 -132h77z" />
    <glyph glyph-name="dollar" unicode="$" horiz-adv-x="635" 
d="M616 220q0 -96 -59.5 -155t-166.5 -73v-92h-128v91q-148 15 -244 103l105 150q90 -86 215 -86q31 0 52.5 10.5t21.5 28.5q0 19 -21.5 30.5t-72.5 20.5q-123 22 -174 48q-104 53 -104 165q0 80 58 139.5t164 73.5v94h128v-96q123 -17 210 -88l-108 -143q-42 32 -93 49
t-93 17q-61 0 -61 -35q0 -19 21 -28.5t77 -18.5q44 -8 72 -14t70.5 -22t67.5 -36t44 -54.5t19 -78.5z" />
    <glyph glyph-name="percent" unicode="%" horiz-adv-x="784" 
d="M20 508q0 72 49 120.5t129 48.5q81 0 130.5 -48.5t49.5 -120.5q0 -71 -49.5 -119t-130.5 -48q-80 0 -129 48t-49 119zM131 0l426 667h98l-427 -667h-97zM256 508q0 32 -16 47.5t-42 15.5q-25 0 -40.5 -15.5t-15.5 -47.5q0 -31 15.5 -46t40.5 -15q26 0 42 15t16 46z
M407 155q0 72 49 120.5t129 48.5t129.5 -48.5t49.5 -120.5q0 -71 -49.5 -119t-129.5 -48t-129 48t-49 119zM643 155q0 32 -16 47.5t-42 15.5q-57 0 -57 -63q0 -61 57 -61q58 0 58 61z" />
    <glyph glyph-name="ampersand" unicode="&#x26;" horiz-adv-x="652" 
d="M664 0h-222q-2 2 -13 13.5t-17 19.5q-79 -45 -167 -45q-102 0 -167.5 52t-65.5 149q0 120 140 187q-37 77 -37 136q0 70 59.5 117.5t153.5 47.5q81 0 140 -41.5t59 -109.5q0 -69 -41 -108t-116 -71q7 -10 19.5 -26.5t17.5 -22.5l36 -46q32 50 49 106l139 -66
q-43 -88 -94 -150q43 -51 127 -142zM291 507q0 -28 19 -66q66 32 66 74q0 16 -11 26.5t-28 10.5q-20 0 -33 -12.5t-13 -32.5zM272 126q21 0 48 10q-37 42 -51 61q-35 47 -49 66q-20 -23 -20 -56q0 -35 21 -58t51 -23z" />
    <glyph glyph-name="quotesingle" unicode="'" horiz-adv-x="252" 
d="M89 339q-55 223 -55 246q0 38 27 65t65 27t65 -27t27 -65q0 -10 -14 -71.5t-28 -117.5l-13 -57h-74z" />
    <glyph glyph-name="parenleft" unicode="(" horiz-adv-x="346" 
d="M214 -199q-79 70 -128 195t-49 247t49 247t128 195l114 -87q-53 -87 -75.5 -170t-22.5 -185q0 -101 22.5 -184.5t75.5 -168.5z" />
    <glyph glyph-name="parenright" unicode=")" horiz-adv-x="347" 
d="M116 243q0 102 -22.5 185t-75.5 170l114 87q79 -70 128 -195t49 -247t-49 -247t-128 -195l-114 89q53 85 75.5 168.5t22.5 184.5z" />
    <glyph glyph-name="asterisk" unicode="*" horiz-adv-x="363" 
d="M141 343l4 105l-88 -56l-40 70l92 48l-92 48l40 70l88 -56l-4 105h81l-5 -105l88 56l41 -70l-93 -48l93 -48l-41 -70l-88 56l5 -105h-81z" />
    <glyph glyph-name="plus" unicode="+" horiz-adv-x="510" 
d="M313 285v-193h-116v193h-168v105h168v185h116v-185h168v-105h-168z" />
    <glyph glyph-name="comma" unicode="," horiz-adv-x="281" 
d="M129 -147l-73 59q26 11 54 38t37 54q-10 -4 -26 -4q-36 0 -61.5 27.5t-25.5 69.5q0 43 31 74t73 31q48 0 82 -35t34 -94q0 -132 -125 -220z" />
    <glyph glyph-name="hyphen" unicode="-" horiz-adv-x="300" 
d="M30 167v150h240v-150h-240z" />
    <glyph glyph-name="period" unicode="." horiz-adv-x="283" 
d="M34 95q0 43 32 75t75 32t75 -32t32 -75t-32 -75t-75 -32t-75 32t-32 75z" />
    <glyph glyph-name="slash" unicode="/" horiz-adv-x="362" 
d="M0 -20l237 707h125l-237 -707h-125z" />
    <glyph glyph-name="zero" unicode="0" horiz-adv-x="628" 
d="M18 333q0 145 77 244.5t219 99.5t219 -99.5t77 -244.5q0 -93 -31.5 -169.5t-100 -126t-164.5 -49.5t-164.5 49.5t-100 126t-31.5 169.5zM407 333q0 166 -93 166t-93 -166q0 -167 93 -167t93 167z" />
    <glyph glyph-name="one" unicode="1" horiz-adv-x="483" 
d="M227 0v410l-113 -112l-114 119l255 250h174v-667h-202z" />
    <glyph glyph-name="two" unicode="2" horiz-adv-x="613" 
d="M41 0v157q125 88 183 130t97 76t46.5 49t7.5 35q0 24 -22.5 38t-58.5 14q-90 0 -172 -69l-110 134q54 58 129.5 85.5t152.5 27.5q129 0 207.5 -64.5t78.5 -165.5q0 -71 -50.5 -133t-180.5 -138h237v-176h-545z" />
    <glyph glyph-name="three" unicode="3" horiz-adv-x="617" 
d="M12 92l99 131q37 -32 88 -49t93 -17q47 0 72 14.5t25 36.5q0 21 -21 32t-82 11q-77 0 -97 -2v171q13 -1 97 -1q92 0 92 40q0 23 -27 35.5t-72 12.5q-91 0 -166 -62l-92 122q100 110 280 110q135 0 206.5 -50t71.5 -135q0 -53 -41.5 -95.5t-105.5 -52.5q61 -7 109.5 -49
t48.5 -107q0 -89 -80 -144.5t-210 -55.5q-95 0 -169.5 28.5t-118.5 75.5z" />
    <glyph glyph-name="four" unicode="4" horiz-adv-x="636" 
d="M339 0v107h-321v155l243 405h280v-384h77v-176h-77v-107h-202zM339 493l-126 -210h126v210z" />
    <glyph glyph-name="five" unicode="5" horiz-adv-x="626" 
d="M32 82l105 133q70 -58 172 -58q47 0 70.5 18t23.5 45t-22 43.5t-66 16.5q-75 0 -124 -46l-139 32v401h510v-168h-318v-106q69 51 149 51q89 0 152 -59.5t63 -156.5q0 -111 -79 -175.5t-218 -64.5q-175 0 -279 94z" />
    <glyph glyph-name="six" unicode="6" horiz-adv-x="625" 
d="M18 332q0 164 95.5 254.5t254.5 90.5q123 0 208 -58l-85 -147q-53 36 -123 36q-60 0 -103 -35.5t-43 -93.5v-2q53 68 155 68q96 0 166 -58t70 -159q0 -107 -78.5 -173.5t-198.5 -66.5q-157 0 -237.5 95t-80.5 249zM408 218q0 33 -27.5 48.5t-65.5 15.5q-54 0 -94 -27
q4 -40 29.5 -69t76.5 -29q37 0 59 18t22 43z" />
    <glyph glyph-name="seven" unicode="7" horiz-adv-x="575" 
d="M120 0l211 491h-313v176h545v-140l-222 -527h-221z" />
    <glyph glyph-name="eight" unicode="8" horiz-adv-x="630" 
d="M18 178q0 53 34.5 97.5t92.5 68.5q-116 48 -116 154q0 62 44.5 104t106 58.5t135.5 16.5t135.5 -16.5t106 -58.5t44.5 -104q0 -106 -117 -154q58 -24 93 -68.5t35 -97.5q0 -65 -44.5 -109t-109 -62.5t-143.5 -18.5t-143.5 18.5t-109 62.5t-44.5 109zM395 468
q0 20 -21.5 32.5t-58.5 12.5q-38 0 -59.5 -12.5t-21.5 -32.5q0 -19 24 -33.5t57 -19.5q32 5 56 19.5t24 33.5zM407 200q0 22 -28 37.5t-64 20.5q-36 -5 -64 -20.5t-28 -37.5t25 -35t67 -13q41 0 66.5 13t25.5 35z" />
    <glyph glyph-name="nine" unicode="9" horiz-adv-x="625" 
d="M49 47l85 147q51 -36 123 -36q60 0 103 35.5t43 93.5v2q-53 -68 -155 -68q-96 0 -166 58t-70 159q0 107 78.5 173.5t198.5 66.5q157 0 237.5 -95t80.5 -249q0 -164 -95.5 -254.5t-254.5 -90.5q-123 0 -208 58zM404 411q-4 40 -29.5 69t-76.5 29q-37 0 -59 -18t-22 -43
q0 -33 27.5 -48.5t65.5 -15.5q54 0 94 27z" />
    <glyph glyph-name="colon" unicode=":" horiz-adv-x="266" 
d="M34 383q0 43 32 75t75 32t75 -32t32 -75t-32 -75t-75 -32t-75 32t-32 75zM34 95q0 43 32 75t75 32t75 -32t32 -75t-32 -75t-75 -32t-75 32t-32 75z" />
    <glyph glyph-name="semicolon" unicode=";" horiz-adv-x="281" 
d="M141 276q-43 0 -75 32t-32 76q0 43 31.5 74.5t75.5 31.5t75.5 -31.5t31.5 -74.5q0 -44 -32 -76t-75 -32zM129 -146l-73 59q25 11 53.5 40t37.5 56q-10 -4 -26 -4q-37 0 -62 26t-25 67q0 43 31 74t73 31q48 0 82 -35t34 -94q0 -132 -125 -220z" />
    <glyph glyph-name="less" unicode="&#x3c;" horiz-adv-x="510" 
d="M29 270v130l452 180v-125l-334 -121l334 -119v-125z" />
    <glyph glyph-name="equal" unicode="=" horiz-adv-x="510" 
d="M29 373v105h452v-105h-452zM29 190v105h452v-105h-452z" />
    <glyph glyph-name="greater" unicode="&#x3e;" horiz-adv-x="510" 
d="M29 90v125l334 119l-334 121v125l452 -180v-130z" />
    <glyph glyph-name="question" unicode="?" horiz-adv-x="450" 
d="M126 319q0 33 15 60t28.5 38.5t37.5 28.5q31 21 31 32q0 21 -39 21q-47 0 -87 -42l-112 129q42 45 101.5 68t120.5 23q101 0 160.5 -43.5t59.5 -117.5q0 -39 -16 -70.5t-31 -46t-43 -35.5q-18 -14 -27 -21.5t-17 -20t-8 -25.5q0 -24 11 -37l-158 -36q-27 37 -27 95z
M121 95q0 43 31.5 75t75.5 32t75.5 -32t31.5 -75t-31.5 -75t-75.5 -32t-75.5 32t-31.5 75z" />
    <glyph glyph-name="at" unicode="@" horiz-adv-x="783" 
d="M35 244q0 157 120 275.5t277 118.5q141 0 228 -86t87 -209q0 -64 -22 -115.5t-56 -81.5t-71.5 -45.5t-73.5 -15.5q-84 0 -103 66l-2 7q-51 -73 -129 -73q-73 0 -115 49t-42 125q0 95 65.5 166.5t151.5 71.5q84 0 122 -56l9 44h158l-46 -217q-3 -15 -3 -27q0 -38 28 -38
q32 0 55.5 37.5t23.5 102.5q0 115 -72 183t-197 68q-140 0 -244 -104t-104 -243q0 -117 79 -195.5t198 -78.5q93 0 179 54l24 -34q-98 -63 -208 -63q-136 0 -226.5 90.5t-90.5 223.5zM432 250l19 95q-19 28 -58 28q-44 0 -71 -30t-27 -70q0 -29 17 -46.5t46 -17.5
q42 0 74 41z" />
    <glyph glyph-name="A" unicode="A" horiz-adv-x="710" 
d="M509 0l-26 86h-256l-26 -86h-219l246 667h254l246 -667h-219zM355 489l-76 -235h152z" />
    <glyph glyph-name="B" unicode="B" horiz-adv-x="697" 
d="M54 0v667h405q96 0 147 -52t51 -118q0 -61 -32 -101.5t-82 -51.5q55 -8 91 -53.5t36 -109.5q0 -75 -51 -128t-146 -53h-419zM256 419h156q16 0 28 12.5t12 30.5q0 17 -12 29t-28 12h-156v-84zM256 164h162q21 0 34 13t13 32t-13 32.5t-34 13.5h-162v-91z" />
    <glyph glyph-name="C" unicode="C" horiz-adv-x="697" 
d="M380 -12q-155 0 -258.5 96.5t-103.5 248.5t103.5 248.5t258.5 96.5q123 0 197.5 -56t110.5 -138l-174 -81q-13 41 -50 69t-84 28q-68 0 -112.5 -48t-44.5 -119t44.5 -119t112.5 -48q47 0 84 28t50 69l174 -80q-16 -37 -40 -68.5t-60.5 -61.5t-90 -47.5t-117.5 -17.5z" />
    <glyph glyph-name="D" unicode="D" horiz-adv-x="736" 
d="M54 0v667h298q162 0 264 -88.5t102 -244.5t-102 -245t-263 -89h-299zM256 176h96q73 0 117 46t44 112q0 71 -41 114t-119 43h-97v-315z" />
    <glyph glyph-name="E" unicode="E" 
d="M54 0v667h506v-168h-304v-78h297v-168h-297v-85h304v-168h-506z" />
    <glyph glyph-name="F" unicode="F" horiz-adv-x="592" 
d="M54 0v667h506v-168h-304v-78h297v-168h-297v-253h-202z" />
    <glyph glyph-name="G" unicode="G" horiz-adv-x="726" 
d="M18 333q0 156 105.5 250.5t261.5 94.5q108 0 181 -46t112 -118l-170 -87q-17 32 -49.5 52.5t-73.5 20.5q-72 0 -117 -48t-45 -119t45 -119t117 -48q68 0 109 30v29h-129v166h325v-268q-122 -135 -305 -135q-156 0 -261.5 94.5t-105.5 250.5z" />
    <glyph glyph-name="H" unicode="H" horiz-adv-x="751" 
d="M495 0v255h-239v-255h-202v667h202v-236h239v236h202v-667h-202z" />
    <glyph glyph-name="I" unicode="I" horiz-adv-x="310" 
d="M54 0v667h202v-667h-202z" />
    <glyph glyph-name="J" unicode="J" horiz-adv-x="498" 
d="M0 42l82 154q44 -30 86 -30q33 0 53.5 20t20.5 55v426h202v-429q0 -125 -69 -187.5t-189 -62.5q-116 0 -186 54z" />
    <glyph glyph-name="K" unicode="K" horiz-adv-x="671" 
d="M443 0l-150 235l-37 -50v-185h-202v667h202v-250l175 250h247l-252 -310l263 -357h-246z" />
    <glyph glyph-name="L" unicode="L" horiz-adv-x="536" 
d="M54 0v667h202v-491h253v-176h-455z" />
    <glyph glyph-name="M" unicode="M" horiz-adv-x="900" 
d="M644 0v421l-149 -421h-90l-149 421v-421h-202v667h279l117 -340l117 340h279v-667h-202z" />
    <glyph glyph-name="N" unicode="N" horiz-adv-x="750" 
d="M502 0l-246 358v-358h-202v667h208l232 -336v336h202v-667h-194z" />
    <glyph glyph-name="O" unicode="O" horiz-adv-x="766" 
d="M18 333q0 152 104.5 248.5t260.5 96.5t260.5 -96.5t104.5 -248.5t-104.5 -248.5t-260.5 -96.5t-260.5 96.5t-104.5 248.5zM543 333q0 71 -44.5 119t-115.5 48t-115.5 -48t-44.5 -119t44.5 -119t115.5 -48t115.5 48t44.5 119z" />
    <glyph glyph-name="P" unicode="P" horiz-adv-x="662" 
d="M54 0v667h356q113 0 176.5 -65.5t63.5 -163.5q0 -97 -63.5 -160.5t-176.5 -63.5h-154v-214h-202zM445 440q0 26 -17.5 42.5t-43.5 16.5h-128v-117h128q26 0 43.5 16t17.5 42z" />
    <glyph glyph-name="Q" unicode="Q" horiz-adv-x="766" 
d="M748 333q0 -133 -83 -226l36 -45l-140 -112l-47 59q-60 -21 -131 -21q-156 0 -260.5 96.5t-104.5 248.5t104.5 248.5t260.5 96.5t260.5 -96.5t104.5 -248.5zM383 166h6l-55 69l140 112l59 -75q10 27 10 61q0 71 -44.5 119t-115.5 48t-115.5 -48t-44.5 -119t44.5 -119
t115.5 -48z" />
    <glyph glyph-name="R" unicode="R" horiz-adv-x="678" 
d="M421 0l-92 214h-73v-214h-202v667h356q113 0 176.5 -65.5t63.5 -163.5q0 -78 -35.5 -128t-84.5 -74l121 -236h-230zM445 441q0 26 -19.5 42t-46.5 16h-123v-117h123q27 0 46.5 16t19.5 43z" />
    <glyph glyph-name="S" unicode="S" horiz-adv-x="613" 
d="M3 94l105 150q90 -86 215 -86q31 0 52.5 10.5t21.5 28.5q0 19 -21.5 30.5t-72.5 20.5q-123 22 -174 48q-104 53 -104 165q0 90 73 153t204 63q169 0 283 -93l-108 -143q-42 32 -93 49t-93 17q-61 0 -61 -35q0 -19 21 -28.5t77 -18.5q44 -8 72 -14t70.5 -22t67.5 -36
t44 -54.5t19 -78.5q0 -110 -76.5 -171t-211.5 -61q-192 0 -310 106z" />
    <glyph glyph-name="T" unicode="T" horiz-adv-x="595" 
d="M197 0v491h-179v176h559v-176h-178v-491h-202z" />
    <glyph glyph-name="U" unicode="U" horiz-adv-x="749" 
d="M54 274v393h205v-386q0 -52 28.5 -83.5t87.5 -31.5q58 0 86.5 32t28.5 83v386h205v-392q0 -131 -79 -209t-241 -78t-241.5 77.5t-79.5 208.5z" />
    <glyph glyph-name="V" unicode="V" horiz-adv-x="710" 
d="M228 0l-246 667h229l144 -449l144 449h229l-246 -667h-254z" />
    <glyph glyph-name="W" unicode="W" horiz-adv-x="954" 
d="M563 0l-86 378l-86 -378h-212l-191 667h226l86 -408l101 408h152l101 -408l85 408h227l-191 -667h-212z" />
    <glyph glyph-name="X" unicode="X" horiz-adv-x="684" 
d="M464 0l-122 204l-122 -204h-238l223 342l-208 325h237l108 -190l106 190h239l-208 -324l223 -343h-238z" />
    <glyph glyph-name="Y" unicode="Y" horiz-adv-x="664" 
d="M232 0v265l-250 402h227l124 -225l122 225h227l-248 -402v-265h-202z" />
    <glyph glyph-name="Z" unicode="Z" horiz-adv-x="600" 
d="M36 0v160l254 331h-254v176h521v-159l-255 -332h262v-176h-528z" />
    <glyph glyph-name="bracketleft" unicode="[" horiz-adv-x="317" 
d="M54 -190v868h245v-114h-120v-640h120v-114h-245z" />
    <glyph glyph-name="backslash" unicode="\" horiz-adv-x="362" 
d="M0 687h125l237 -707h-125z" />
    <glyph glyph-name="bracketright" unicode="]" horiz-adv-x="317" 
d="M18 -190v114h120v640h-120v114h245v-868h-245z" />
    <glyph glyph-name="asciicircum" unicode="^" horiz-adv-x="450" 
d="M305 333l-80 215l-79 -215h-127l143 334h129l140 -334h-126z" />
    <glyph glyph-name="underscore" unicode="_" horiz-adv-x="564" 
d="M-3 -154v114h570v-114h-570z" />
    <glyph glyph-name="grave" unicode="`" horiz-adv-x="275" 
d="M155 556l-155 144h155l120 -144h-120z" />
    <glyph glyph-name="a" unicode="a" horiz-adv-x="559" 
d="M329 0v46q-20 -26 -60.5 -42t-85.5 -16q-62 0 -114 41.5t-52 117.5q0 43 15.5 73.5t41 46t52.5 22.5t57 7q104 0 146 -53v55q0 26 -23.5 43t-66.5 17q-72 0 -134 -47l-61 111q91 73 228 73q48 0 88 -9.5t75 -31t54.5 -63t19.5 -99.5v-292h-180zM329 131v27q-18 26 -71 26
q-63 0 -63 -40q0 -39 63 -39q53 0 71 26z" />
    <glyph glyph-name="b" unicode="b" 
d="M50 0v667h180v-235q52 63 136 63q92 0 152.5 -68t60.5 -185q0 -120 -60.5 -187t-152.5 -67q-80 0 -136 63v-51h-180zM230 179q26 -32 75 -32q38 0 64 25.5t26 69.5q0 43 -26 68.5t-64 25.5q-48 0 -75 -33v-124z" />
    <glyph glyph-name="c" unicode="c" horiz-adv-x="502" 
d="M17 242q0 113 77 183t194 70q75 0 128 -27.5t77 -63.5l-116 -109q-27 41 -81 41q-40 0 -67.5 -24.5t-27.5 -69.5t27.5 -70t67.5 -25q52 0 81 42l116 -110q-24 -36 -77 -63.5t-128 -27.5q-117 0 -194 70t-77 184z" />
    <glyph glyph-name="d" unicode="d" 
d="M366 0v51q-56 -63 -136 -63q-92 0 -152.5 67t-60.5 187q0 117 60.5 185t152.5 68q84 0 136 -63v235h180v-667h-180zM366 180v124q-26 32 -75 32q-38 0 -64 -25.5t-26 -68.5q0 -44 26 -69.5t64 -25.5q48 0 75 33z" />
    <glyph glyph-name="e" unicode="e" horiz-adv-x="543" 
d="M17 242q0 107 74 180t189 73q109 0 180 -73.5t71 -198.5v-37h-328q8 -26 35.5 -43.5t70.5 -17.5q66 0 109 34l74 -111q-34 -29 -91 -44.5t-115 -15.5q-116 0 -192.5 69t-76.5 185zM280 358q-63 0 -79 -58h159q-14 58 -80 58z" />
    <glyph glyph-name="f" unicode="f" horiz-adv-x="371" 
d="M87 0v327h-80v156h80v22q0 75 52 123.5t132 48.5q67 0 112 -24l-32 -120q-17 11 -38 11t-33.5 -12t-12.5 -33v-16h98v-156h-98v-327h-180z" />
    <glyph glyph-name="g" unicode="g" horiz-adv-x="595" 
d="M33 -124l76 128q53 -53 144 -53q43 0 77.5 22.5t34.5 78.5v26q-57 -65 -136 -65q-93 0 -152.5 61.5t-59.5 179.5q0 116 59.5 178.5t152.5 62.5q83 0 136 -63v51h180v-431q0 -60 -19.5 -106t-48.5 -72t-69.5 -42.5t-77.5 -22t-77 -5.5q-129 0 -220 72zM365 203v102
q-12 14 -33.5 22.5t-40.5 8.5q-40 0 -65 -20t-25 -62t25 -62t65 -20q19 0 40.5 8.5t33.5 22.5z" />
    <glyph glyph-name="h" unicode="h" horiz-adv-x="608" 
d="M378 0v269q0 67 -70 67q-43 0 -77 -38v-298h-180v667h180v-239q59 67 166 67q80 0 120.5 -41.5t40.5 -108.5v-345h-180z" />
    <glyph glyph-name="i" unicode="i" horiz-adv-x="280" 
d="M140 518q-42 0 -71.5 29.5t-29.5 71.5t29.5 71.5t71.5 29.5t71.5 -29.5t29.5 -71.5t-29.5 -71.5t-71.5 -29.5zM50 0v483h180v-483h-180z" />
    <glyph glyph-name="j" unicode="j" horiz-adv-x="280" 
d="M140 518q-42 0 -71.5 29.5t-29.5 71.5t29.5 71.5t71.5 29.5t71.5 -29.5t29.5 -71.5t-29.5 -71.5t-71.5 -29.5zM230 483v-462q0 -98 -50 -157.5t-151 -59.5q-36 0 -56 4v145q10 -2 24 -2q53 0 53 70v462h180z" />
    <glyph glyph-name="k" unicode="k" horiz-adv-x="557" 
d="M348 0l-83 156l-35 -47v-109h-180v667h180v-356l111 172h217l-166 -220l177 -263h-221z" />
    <glyph glyph-name="l" unicode="l" horiz-adv-x="280" 
d="M50 0v667h180v-667h-180z" />
    <glyph glyph-name="m" unicode="m" horiz-adv-x="897" 
d="M667 0v282q0 24 -13.5 39t-41.5 15q-41 0 -74 -38v-298h-180v282q0 54 -55 54q-40 0 -73 -38v-298h-180v483h180v-55q19 24 63 45.5t97 21.5q108 0 139 -85q23 35 68.5 60t100.5 25q69 0 109 -36t40 -109v-350h-180z" />
    <glyph glyph-name="n" unicode="n" horiz-adv-x="607" 
d="M377 0v267q0 69 -70 69q-43 0 -77 -38v-298h-180v483h180v-55q59 67 166 67q80 0 120.5 -42.5t40.5 -109.5v-343h-180z" />
    <glyph glyph-name="o" unicode="o" horiz-adv-x="577" 
d="M288 -12q-124 0 -197.5 74t-73.5 180t73.5 179.5t197.5 73.5t198 -73.5t74 -179.5t-74 -180t-198 -74zM288 147q41 0 64 26.5t23 68.5q0 41 -23 67.5t-64 26.5q-40 0 -63 -26.5t-23 -67.5q0 -42 23 -68.5t63 -26.5z" />
    <glyph glyph-name="p" unicode="p" horiz-adv-x="595" 
d="M230 -184h-180v667h180v-51q53 63 136 63q93 0 152.5 -66.5t59.5 -186.5q0 -121 -59.5 -187.5t-152.5 -66.5q-81 0 -136 63v-235zM394 242q0 43 -26 68.5t-64 25.5q-19 0 -40.5 -9t-33.5 -24v-123q11 -14 33.5 -23.5t40.5 -9.5q38 0 64 25.5t26 69.5z" />
    <glyph glyph-name="q" unicode="q" horiz-adv-x="595" 
d="M545 -184h-180v235q-55 -63 -136 -63q-93 0 -152.5 66.5t-59.5 187.5q0 120 59.5 186.5t152.5 66.5q83 0 136 -63v51h180v-667zM365 180v123q-12 15 -33.5 24t-40.5 9q-38 0 -64 -25.5t-26 -68.5q0 -44 26 -69.5t64 -25.5q18 0 40.5 9.5t33.5 23.5z" />
    <glyph glyph-name="r" unicode="r" horiz-adv-x="390" 
d="M50 0v483h180v-55q23 27 65.5 47t82.5 20v-172q-15 5 -41 5q-79 0 -107 -34v-294h-180z" />
    <glyph glyph-name="s" unicode="s" horiz-adv-x="490" 
d="M9 62l72 121q29 -23 82 -42t92 -19q48 0 48 23q0 11 -15.5 17t-52.5 11q-26 3 -37.5 5t-38 8t-40.5 12.5t-34 18.5t-30 26.5t-18 37t-8 49.5q0 69 57.5 117t158.5 48q115 0 209 -62l-66 -117q-25 20 -63.5 35t-78.5 15q-45 0 -45 -21q0 -10 13 -16t49 -11q26 -4 38 -6
t39 -8t41.5 -13t35 -19.5t31.5 -28t19 -38.5t8 -51q0 -73 -62 -119.5t-167 -46.5q-66 0 -132 20.5t-105 53.5z" />
    <glyph glyph-name="t" unicode="t" horiz-adv-x="382" 
d="M253 -12q-81 0 -123.5 38.5t-42.5 113.5v187h-80v156h80v132h180v-132h98v-156h-98v-135q0 -19 11 -32t29 -13q27 0 36 9l32 -136q-36 -32 -122 -32z" />
    <glyph glyph-name="u" unicode="u" horiz-adv-x="606" 
d="M376 0v54q-60 -66 -166 -66q-80 0 -120 42t-40 108v345h180v-268q0 -68 70 -68q42 0 76 38v298h180v-483h-180z" />
    <glyph glyph-name="v" unicode="v" horiz-adv-x="535" 
d="M172 0l-187 483h190l92 -276l93 276h190l-187 -483h-191z" />
    <glyph glyph-name="w" unicode="w" horiz-adv-x="805" 
d="M481 0l-79 270l-78 -270h-196l-140 483h185l64 -266l85 266h161l84 -266l64 266h186l-140 -483h-196z" />
    <glyph glyph-name="x" unicode="x" horiz-adv-x="521" 
d="M336 0l-75 128l-77 -128h-196l158 248l-148 235h197l65 -113l65 113h197l-148 -235l159 -248h-197z" />
    <glyph glyph-name="y" unicode="y" horiz-adv-x="535" 
d="M70 -28q16 -9 38 -9q54 0 63 19l4 10l-190 491h190l92 -276l93 276h190l-210 -543q-30 -78 -84 -105.5t-141 -30.5q-43 0 -70 8z" />
    <glyph glyph-name="z" unicode="z" horiz-adv-x="486" 
d="M33 0v132l170 195h-170v156h416v-126l-174 -201h178v-156h-420z" />
    <glyph glyph-name="braceleft" unicode="{" horiz-adv-x="316" 
d="M239 -190q-76 0 -130.5 50t-54.5 134v139q0 29 -13.5 46.5t-38.5 17.5v94q25 0 38.5 17.5t13.5 46.5v138q0 84 54.5 134.5t130.5 50.5h60v-114h-60q-26 0 -43 -19t-17 -51v-159q0 -71 -46 -91q46 -20 46 -91v-158q0 -32 17.5 -51.5t42.5 -19.5h60v-114h-60z" />
    <glyph glyph-name="bar" unicode="|" horiz-adv-x="222" 
d="M54 -20v707h114v-707h-114z" />
    <glyph glyph-name="braceright" unicode="}" horiz-adv-x="316" 
d="M17 -76h60q25 0 42.5 19.5t17.5 51.5v158q0 71 46 91q-46 20 -46 91v159q0 32 -17 51t-43 19h-60v114h60q76 0 130.5 -50.5t54.5 -134.5v-138q0 -29 13.5 -46.5t38.5 -17.5v-94q-25 0 -38.5 -17.5t-13.5 -46.5v-139q0 -84 -54.5 -134t-130.5 -50h-60v114z" />
    <glyph glyph-name="asciitilde" unicode="~" horiz-adv-x="518" 
d="M493 653q-4 -52 -11.5 -90.5t-24 -78.5t-47.5 -61.5t-76 -21.5q-30 0 -52 10t-35 30.5t-19 34t-13 38.5q-7 26 -13 37.5t-17 11.5q-32 0 -42 -162l-118 13q4 51 12 90.5t24.5 79t48 61.5t75.5 22q25 0 44.5 -8t31 -18t21.5 -29t13.5 -29.5t9.5 -31.5q7 -25 13 -36t16 -11
q33 0 43 163z" />
    <glyph glyph-name="uni00A0" unicode="&#xa0;" horiz-adv-x="255" 
 />
    <glyph glyph-name="exclamdown" unicode="&#xa1;" horiz-adv-x="280" 
d="M139 495q43 0 74.5 -31.5t31.5 -74.5q0 -44 -31.5 -75.5t-74.5 -31.5t-74.5 31.5t-31.5 75.5q0 43 31.5 74.5t74.5 31.5zM58 235h162l27 -419h-214z" />
    <glyph glyph-name="cent" unicode="&#xa2;" horiz-adv-x="502" 
d="M296 147q52 0 81 42l116 -110q-43 -64 -138 -84v-95h-126v93q-95 18 -153.5 84.5t-58.5 164.5t58.5 164t153.5 84v75h126v-77q96 -20 138 -84l-116 -109q-27 41 -81 41q-40 0 -67.5 -24.5t-27.5 -69.5t27.5 -70t67.5 -25z" />
    <glyph glyph-name="sterling" unicode="&#xa3;" horiz-adv-x="581" 
d="M492 199l77 -159q-48 -52 -160 -52q-49 0 -120 26q-41 16 -63 16q-50 0 -114 -37l-66 132q85 47 85 96q0 20 -9 49h-96v109h39q-23 46 -23 81q0 68 42.5 119.5t100.5 74.5t118 23q100 0 163.5 -31t99.5 -99l-160 -92q-21 60 -77 60q-29 0 -47.5 -17t-18.5 -42t20 -73
q1 -1 1 -2q0 -2 1 -2h134v-109h-109q-2 -24 -17.5 -49.5t-36.5 -36.5q19 7 46 7q26 0 63 -13q32 -12 51 -12q52 0 76 33z" />
    <glyph glyph-name="currency" unicode="&#xa4;" horiz-adv-x="648" 
d="M596 333q0 -72 -36 -133l68 -66l-104 -104l-76 73q-58 -24 -124 -24q-69 0 -125 25l-74 -74l-105 104l68 68q-35 59 -35 131q0 74 36 132l-69 69l105 104l76 -76q56 24 123 24q66 0 124 -24l76 76l104 -104l-68 -69q36 -58 36 -132zM324 238q44 0 68.5 26.5t24.5 68.5
q0 41 -24.5 67.5t-68.5 26.5q-43 0 -67.5 -26.5t-24.5 -67.5q0 -42 24.5 -68.5t67.5 -26.5z" />
    <glyph glyph-name="yen" unicode="&#xa5;" horiz-adv-x="664" 
d="M682 667l-183 -297h142v-105h-207v-53h207v-105h-207v-107h-202v107h-207v105h207v53h-207v105h142l-185 297h227l124 -225l122 225h227z" />
    <glyph glyph-name="brokenbar" unicode="&#xa6;" horiz-adv-x="222" 
d="M54 371v316h114v-316h-114zM54 -20v316h114v-316h-114z" />
    <glyph glyph-name="section" unicode="&#xa7;" horiz-adv-x="500" 
d="M400 208q75 -37 75 -123q0 -77 -64.5 -121.5t-164.5 -44.5q-137 0 -234 80l69 112q31 -27 77 -48.5t88 -21.5q57 0 57 27q0 9 -6 15.5t-20 12t-25 8t-34 7.5q-32 6 -51 11t-49 17.5t-46.5 28t-29.5 43t-13 62.5q0 43 25.5 74.5t54.5 46.5q-80 37 -80 130q0 66 62 109.5
t153 43.5q134 0 209 -65l-65 -105q-60 48 -135 48q-52 0 -52 -27q0 -8 5.5 -13t19 -9.5t23.5 -6.5t32 -6q34 -6 52.5 -10.5t49.5 -16.5t48 -27t30.5 -41.5t13.5 -61.5q0 -39 -20 -73.5t-55 -54.5zM244 351q-43 -8 -43 -48q0 -43 63 -54q34 14 34 49q0 42 -54 53z" />
    <glyph glyph-name="dieresis" unicode="&#xa8;" horiz-adv-x="433" 
d="M108 529q-38 0 -63.5 25.5t-25.5 63.5t25.5 63.5t63.5 25.5t63.5 -25.5t25.5 -63.5t-25.5 -63.5t-63.5 -25.5zM324 529q-37 0 -63 26t-26 63t26 63t63 26q38 0 64 -26t26 -63t-26 -63t-64 -26z" />
    <glyph glyph-name="copyright" unicode="&#xa9;" horiz-adv-x="778" 
d="M389 -12q-143 0 -244 101t-101 244t101 244t244 101t244 -101t101 -244t-101 -244t-244 -101zM389 636q-125 0 -214 -89t-89 -214t89 -214t214 -89t214 89t89 214t-89 214t-214 89zM549 194q-60 -70 -152 -70q-87 0 -147.5 60t-60.5 150t60.5 149t147.5 59q92 0 150 -68
l-37 -37q-43 58 -113 58q-65 0 -109 -45.5t-44 -115.5q0 -69 44.5 -116t108.5 -47q70 0 114 59z" />
    <glyph glyph-name="ordfeminine" unicode="&#xaa;" horiz-adv-x="392" 
d="M225 326v29q-29 -37 -96 -37q-42 0 -75.5 27t-33.5 76t33 74.5t76 25.5q68 0 96 -33v24q0 19 -14.5 31t-42.5 12q-47 0 -86 -36l-44 82q63 47 153 47q161 0 161 -139v-183h-127zM225 414v15q-11 18 -42 18q-38 0 -38 -26t38 -26q31 0 42 19z" />
    <glyph glyph-name="guillemotleft" unicode="&#xab;" horiz-adv-x="615" 
d="M190 63l-160 180l160 177h160l-160 -177l160 -180h-160zM425 63l-160 180l160 177h160l-160 -177l160 -180h-160z" />
    <glyph glyph-name="logicalnot" unicode="&#xac;" horiz-adv-x="527" 
d="M481 190h-108v183h-344v105h452v-288z" />
    <glyph glyph-name="uni00AD" unicode="&#xad;" horiz-adv-x="300" 
d="M30 167v150h240v-150h-240z" />
    <glyph glyph-name="registered" unicode="&#xae;" horiz-adv-x="494" 
d="M247 253q-88 0 -150 62t-62 150t62 150t150 62q89 0 150.5 -61.5t61.5 -150.5q0 -88 -62 -150t-150 -62zM247 642q-74 0 -125.5 -51.5t-51.5 -125.5q0 -73 52 -125t125 -52t125 52t52 125q0 74 -51.5 125.5t-125.5 51.5zM304 343l-63 96h-39v-96h-37v243h99
q36 0 59 -20.5t23 -53.5q0 -35 -22.5 -53.5t-39.5 -18.5l65 -97h-45zM264 555h-62v-84h62q20 0 32 11t12 30q0 20 -12 31.5t-32 11.5z" />
    <glyph glyph-name="macron" unicode="&#xaf;" horiz-adv-x="363" 
d="M0 551v97h363v-97h-363z" />
    <glyph glyph-name="degree" unicode="&#xb0;" horiz-adv-x="331" 
d="M165 380q-61 0 -104.5 43t-43.5 105t43.5 105.5t104.5 43.5t105 -43.5t44 -105.5q0 -61 -43.5 -104.5t-105.5 -43.5zM165 587q-24 0 -40.5 -17.5t-16.5 -41.5t16.5 -40.5t40.5 -16.5t41.5 16.5t17.5 40.5t-17.5 41.5t-41.5 17.5z" />
    <glyph glyph-name="plusminus" unicode="&#xb1;" horiz-adv-x="510" 
d="M313 328v-193h-116v193h-168v105h168v185h116v-185h168v-105h-168zM29 0v105h452v-105h-452z" />
    <glyph glyph-name="uni00B2" unicode="&#xb2;" horiz-adv-x="407" 
d="M42 421v95q96 67 138.5 99t53 44.5t10.5 25.5q0 38 -50 38q-30 0 -60 -15t-46 -33l-66 84q65 68 175 68q83 0 131 -35.5t48 -95.5q0 -39 -30.5 -76t-113.5 -95h148v-104h-338z" />
    <glyph glyph-name="uni00B3" unicode="&#xb3;" horiz-adv-x="407" 
d="M202 414q-119 0 -179 62l62 87q23 -23 55 -34t57 -11q55 0 55 26q0 18 -17 23t-56 5q-43 0 -49 -1v102q9 -1 48 -1q38 0 52.5 5.5t14.5 20.5q0 25 -57 25q-60 0 -102 -39l-58 77q63 66 175 66q85 0 129 -30.5t44 -80.5q0 -31 -24.5 -56.5t-64.5 -32.5q37 -3 66.5 -28.5
t29.5 -64.5q0 -53 -50 -86.5t-131 -33.5z" />
    <glyph glyph-name="acute" unicode="&#xb4;" horiz-adv-x="275" 
d="M120 556h-120l120 144h155z" />
    <glyph glyph-name="uni00B5" unicode="&#xb5;" horiz-adv-x="620" 
d="M230 -184h-180v667h180v-268q0 -68 70 -68q42 0 76 38v298h180v-305q0 -15 10 -23t24 -8q10 0 19 3l11 -152q-33 -10 -78 -10q-121 0 -156 87q-16 -40 -46.5 -63.5t-70.5 -23.5q-23 0 -39 8v-180z" />
    <glyph glyph-name="paragraph" unicode="&#xb6;" horiz-adv-x="449" 
d="M347 -100v687h-68v-687h-80v423q-71 0 -121.5 50.5t-50.5 121.5t50.5 121.5t121.5 50.5h228v-767h-80z" />
    <glyph glyph-name="periodcentered" unicode="&#xb7;" horiz-adv-x="283" 
d="M141 138q-43 0 -74.5 31.5t-31.5 74.5q0 44 31.5 75.5t74.5 31.5t74.5 -31.5t31.5 -75.5q0 -43 -31.5 -74.5t-74.5 -31.5z" />
    <glyph glyph-name="cedilla" unicode="&#xb8;" horiz-adv-x="237" 
d="M0 -166l31 64q43 -30 83 -30q42 0 42 24q0 17 -21 17q-16 0 -26 -12l-59 34l30 80h80l-25 -58q15 9 34 9q28 0 48 -20.5t20 -52.5q0 -41 -34 -65t-84 -24q-77 0 -119 34z" />
    <glyph glyph-name="uni00B9" unicode="&#xb9;" horiz-adv-x="336" 
d="M144 421v233l-70 -69l-74 78l163 158h113v-400h-132z" />
    <glyph glyph-name="ordmasculine" unicode="&#xba;" horiz-adv-x="405" 
d="M20 483q0 68 50 116.5t132 48.5q84 0 133.5 -48.5t49.5 -116.5t-49.5 -116.5t-133.5 -48.5q-82 0 -132 48.5t-50 116.5zM255 483q0 63 -53 63q-51 0 -51 -63q0 -65 51 -65q53 0 53 65z" />
    <glyph glyph-name="guillemotright" unicode="&#xbb;" horiz-adv-x="615" 
d="M190 63h-160l160 180l-160 177h160l160 -177zM425 63h-160l160 180l-160 177h160l160 -177z" />
    <glyph glyph-name="onequarter" unicode="&#xbc;" horiz-adv-x="873" 
d="M144 267v233l-70 -69l-74 78l163 158h113v-400h-132zM261 0h-97l426 667h98zM813 71v-71h-131v71h-197v87l143 242h185v-227h47v-102h-47zM682 291l-68 -118h68v118z" />
    <glyph glyph-name="onehalf" unicode="&#xbd;" horiz-adv-x="923" 
d="M144 267v233l-70 -69l-74 78l163 158h113v-400h-132zM261 0h-97l426 667h98zM558 0v95q96 67 138.5 99t53 44.5t10.5 25.5q0 38 -50 38q-30 0 -60 -15t-46 -33l-66 84q65 68 175 68q83 0 131 -35.5t48 -95.5q0 -39 -30.5 -76t-113.5 -95h148v-104h-338z" />
    <glyph glyph-name="threequarters" unicode="&#xbe;" horiz-adv-x="944" 
d="M202 260q-119 0 -179 62l62 87q23 -23 55 -34t57 -11q55 0 55 26q0 18 -17 23t-56 5q-43 0 -49 -1v102q9 -1 48 -1q38 0 52.5 5.5t14.5 20.5q0 25 -57 25q-60 0 -102 -39l-58 77q63 66 175 66q85 0 129 -30.5t44 -80.5q0 -31 -24.5 -56.5t-64.5 -32.5q37 -3 66.5 -28.5
t29.5 -64.5q0 -53 -50 -86.5t-131 -33.5zM332 0h-97l426 667h98zM884 71v-71h-131v71h-197v87l143 242h185v-227h47v-102h-47zM753 291l-68 -118h68v118z" />
    <glyph glyph-name="questiondown" unicode="&#xbf;" horiz-adv-x="401" 
d="M329 388q0 -44 -31.5 -75.5t-75.5 -31.5t-75.5 31.5t-31.5 75.5t31.5 75.5t75.5 31.5t75.5 -31.5t31.5 -75.5zM324 164q0 -33 -15 -60t-28.5 -38.5t-37.5 -28.5q-31 -21 -31 -32q0 -21 39 -21q47 0 87 42l112 -129q-42 -45 -101.5 -68t-120.5 -23q-101 0 -160.5 43.5
t-59.5 117.5q0 38 16 70t31 46t43 36q18 14 27 21.5t17 20t8 25.5q0 24 -11 37l158 36q27 -37 27 -95z" />
    <glyph glyph-name="Agrave" unicode="&#xc0;" horiz-adv-x="710" 
d="M297 723l-155 144h155l120 -144h-120zM509 0l-26 86h-256l-26 -86h-219l246 667h254l246 -667h-219zM355 489l-76 -235h152z" />
    <glyph glyph-name="Aacute" unicode="&#xc1;" horiz-adv-x="710" 
d="M411 723h-120l120 144h155zM509 0l-26 86h-256l-26 -86h-219l246 667h254l246 -667h-219zM355 489l-76 -235h152z" />
    <glyph glyph-name="Acircumflex" unicode="&#xc2;" horiz-adv-x="710" 
d="M419 723l-64 73l-61 -73h-105l88 144h156l91 -144h-105zM509 0l-26 86h-256l-26 -86h-219l246 667h254l246 -667h-219zM355 489l-76 -235h152z" />
    <glyph glyph-name="Atilde" unicode="&#xc3;" horiz-adv-x="710" 
d="M330 749q-22 15 -32 15q-24 0 -24 -37h-89q0 134 118 134q36 0 78 -28q23 -15 32 -15q24 0 24 37h89q0 -134 -118 -134q-36 0 -78 28zM509 0l-26 86h-256l-26 -86h-219l246 667h254l246 -667h-219zM355 489l-76 -235h152z" />
    <glyph glyph-name="Adieresis" unicode="&#xc4;" horiz-adv-x="710" 
d="M247 696q-37 0 -63 26t-26 63t26 63t63 26t63 -26t26 -63t-26 -63t-63 -26zM463 696q-37 0 -63 26t-26 63t26 63t63 26q38 0 64 -26t26 -63t-26 -63t-64 -26zM509 0l-26 86h-256l-26 -86h-219l246 667h254l246 -667h-219zM355 489l-76 -235h152z" />
    <glyph glyph-name="Aring" unicode="&#xc5;" horiz-adv-x="710" 
d="M244 798q0 46 33 79t79 33t78 -33t32 -79t-32 -79t-78 -33t-79 33t-33 79zM390 798q0 14 -10 24.5t-24 10.5t-24.5 -10.5t-10.5 -24.5t10.5 -24.5t24.5 -10.5t24 10.5t10 24.5zM509 0l-26 86h-256l-26 -86h-219l246 667h254l246 -667h-219zM355 489l-76 -235h152z" />
    <glyph glyph-name="AE" unicode="&#xc6;" horiz-adv-x="989" 
d="M453 0v86h-213l-45 -86h-220l395 667h589v-168h-304v-78h297v-168h-297v-85h304v-168h-506zM453 489l-123 -235h123v235z" />
    <glyph glyph-name="Ccedilla" unicode="&#xc7;" horiz-adv-x="697" 
d="M380 166q47 0 84 28t50 69l174 -80q-21 -48 -52.5 -86t-90.5 -70.5t-134 -37.5l-16 -36q15 9 34 9q28 0 48 -20.5t20 -52.5q0 -41 -34 -65t-84 -24q-77 0 -119 34l31 64q43 -30 83 -30q42 0 42 24q0 17 -21 17q-16 0 -26 -12l-59 34l22 60q-137 15 -225.5 109t-88.5 233
q0 152 103.5 248.5t258.5 96.5q123 0 197.5 -56t110.5 -138l-174 -81q-13 41 -50 69t-84 28q-68 0 -112.5 -48t-44.5 -119t44.5 -119t112.5 -48z" />
    <glyph glyph-name="Egrave" unicode="&#xc8;" 
d="M256 723l-155 144h155l120 -144h-120zM54 0v667h506v-168h-304v-78h297v-168h-297v-85h304v-168h-506z" />
    <glyph glyph-name="Eacute" unicode="&#xc9;" 
d="M370 723h-120l120 144h155zM54 0v667h506v-168h-304v-78h297v-168h-297v-85h304v-168h-506z" />
    <glyph glyph-name="Ecircumflex" unicode="&#xca;" 
d="M378 723l-64 73l-61 -73h-105l88 144h156l91 -144h-105zM54 0v667h506v-168h-304v-78h297v-168h-297v-85h304v-168h-506z" />
    <glyph glyph-name="Edieresis" unicode="&#xcb;" 
d="M206 696q-38 0 -63.5 26t-25.5 63t25.5 63t63.5 26t63.5 -26t25.5 -63t-25.5 -63t-63.5 -26zM422 696q-37 0 -63 26t-26 63t26 63t63 26q38 0 64 -26t26 -63t-26 -63t-64 -26zM54 0v667h506v-168h-304v-78h297v-168h-297v-85h304v-168h-506z" />
    <glyph glyph-name="Igrave" unicode="&#xcc;" horiz-adv-x="310" 
d="M97 723l-155 144h155l120 -144h-120zM54 0v667h202v-667h-202z" />
    <glyph glyph-name="Iacute" unicode="&#xcd;" horiz-adv-x="310" 
d="M211 723h-120l120 144h155zM54 0v667h202v-667h-202z" />
    <glyph glyph-name="Icircumflex" unicode="&#xce;" horiz-adv-x="310" 
d="M219 723l-64 73l-61 -73h-105l88 144h156l91 -144h-105zM54 0v667h202v-667h-202z" />
    <glyph glyph-name="Idieresis" unicode="&#xcf;" horiz-adv-x="310" 
d="M47 696q-37 0 -63 26t-26 63t26 63t63 26t63 -26t26 -63t-26 -63t-63 -26zM263 696q-37 0 -63 26t-26 63t26 63t63 26q38 0 64 -26t26 -63t-26 -63t-64 -26zM54 0v667h202v-667h-202z" />
    <glyph glyph-name="Eth" unicode="&#xd0;" horiz-adv-x="757" 
d="M373 667q162 0 264 -88.5t102 -244.5t-102 -245t-263 -89h-299v254h-68v159h68v254h298zM373 176q73 0 117 46t44 112q0 71 -41 114t-119 43h-97v-78h129v-159h-129v-78h96z" />
    <glyph glyph-name="Ntilde" unicode="&#xd1;" horiz-adv-x="750" 
d="M350 749q-23 15 -32 15q-24 0 -24 -37h-89q0 134 118 134q36 0 78 -28q22 -15 32 -15q24 0 24 37h89q0 -134 -118 -134q-36 0 -78 28zM502 0l-246 358v-358h-202v667h208l232 -336v336h202v-667h-194z" />
    <glyph glyph-name="Ograve" unicode="&#xd2;" horiz-adv-x="766" 
d="M325 723l-155 144h155l120 -144h-120zM18 333q0 152 104.5 248.5t260.5 96.5t260.5 -96.5t104.5 -248.5t-104.5 -248.5t-260.5 -96.5t-260.5 96.5t-104.5 248.5zM543 333q0 71 -44.5 119t-115.5 48t-115.5 -48t-44.5 -119t44.5 -119t115.5 -48t115.5 48t44.5 119z" />
    <glyph glyph-name="Oacute" unicode="&#xd3;" horiz-adv-x="766" 
d="M439 723h-120l120 144h155zM18 333q0 152 104.5 248.5t260.5 96.5t260.5 -96.5t104.5 -248.5t-104.5 -248.5t-260.5 -96.5t-260.5 96.5t-104.5 248.5zM543 333q0 71 -44.5 119t-115.5 48t-115.5 -48t-44.5 -119t44.5 -119t115.5 -48t115.5 48t44.5 119z" />
    <glyph glyph-name="Ocircumflex" unicode="&#xd4;" horiz-adv-x="766" 
d="M447 723l-64 73l-61 -73h-105l88 144h156l91 -144h-105zM18 333q0 152 104.5 248.5t260.5 96.5t260.5 -96.5t104.5 -248.5t-104.5 -248.5t-260.5 -96.5t-260.5 96.5t-104.5 248.5zM543 333q0 71 -44.5 119t-115.5 48t-115.5 -48t-44.5 -119t44.5 -119t115.5 -48t115.5 48
t44.5 119z" />
    <glyph glyph-name="Otilde" unicode="&#xd5;" horiz-adv-x="766" 
d="M358 749q-23 15 -32 15q-24 0 -24 -37h-89q0 134 118 134q36 0 78 -28q22 -15 32 -15q24 0 24 37h89q0 -134 -118 -134q-36 0 -78 28zM18 333q0 152 104.5 248.5t260.5 96.5t260.5 -96.5t104.5 -248.5t-104.5 -248.5t-260.5 -96.5t-260.5 96.5t-104.5 248.5zM543 333
q0 71 -44.5 119t-115.5 48t-115.5 -48t-44.5 -119t44.5 -119t115.5 -48t115.5 48t44.5 119z" />
    <glyph glyph-name="Odieresis" unicode="&#xd6;" horiz-adv-x="766" 
d="M275 696q-37 0 -63 26t-26 63t26 63t63 26t63 -26t26 -63t-26 -63t-63 -26zM491 696q-37 0 -63 26t-26 63t26 63t63 26q38 0 64 -26t26 -63t-26 -63t-64 -26zM18 333q0 152 104.5 248.5t260.5 96.5t260.5 -96.5t104.5 -248.5t-104.5 -248.5t-260.5 -96.5t-260.5 96.5
t-104.5 248.5zM543 333q0 71 -44.5 119t-115.5 48t-115.5 -48t-44.5 -119t44.5 -119t115.5 -48t115.5 48t44.5 119z" />
    <glyph glyph-name="multiply" unicode="&#xd7;" horiz-adv-x="510" 
d="M255 260l-133 -134l-75 74l134 134l-134 134l75 74l133 -134l134 134l74 -74l-133 -134l133 -134l-74 -74z" />
    <glyph glyph-name="Oslash" unicode="&#xd8;" horiz-adv-x="766" 
d="M648 578q100 -98 100 -245q0 -152 -104.5 -248.5t-260.5 -96.5q-109 0 -196 49l-31 -37h-138l87 102q-87 93 -87 231q0 152 104.5 248.5t260.5 96.5q98 0 178 -40l25 29h138zM223 333q0 -41 15 -75l199 234q-27 8 -54 8q-71 0 -115.5 -48t-44.5 -119zM383 166
q71 0 115.5 48t44.5 119q0 50 -24 93l-208 -244q34 -16 72 -16z" />
    <glyph glyph-name="Ugrave" unicode="&#xd9;" horiz-adv-x="749" 
d="M317 723l-155 144h155l120 -144h-120zM54 274v393h205v-386q0 -52 28.5 -83.5t87.5 -31.5q58 0 86.5 32t28.5 83v386h205v-392q0 -131 -79 -209t-241 -78t-241.5 77.5t-79.5 208.5z" />
    <glyph glyph-name="Uacute" unicode="&#xda;" horiz-adv-x="749" 
d="M431 723h-120l120 144h155zM54 274v393h205v-386q0 -52 28.5 -83.5t87.5 -31.5q58 0 86.5 32t28.5 83v386h205v-392q0 -131 -79 -209t-241 -78t-241.5 77.5t-79.5 208.5z" />
    <glyph glyph-name="Ucircumflex" unicode="&#xdb;" horiz-adv-x="749" 
d="M439 723l-64 73l-61 -73h-105l88 144h156l91 -144h-105zM54 274v393h205v-386q0 -52 28.5 -83.5t87.5 -31.5q58 0 86.5 32t28.5 83v386h205v-392q0 -131 -79 -209t-241 -78t-241.5 77.5t-79.5 208.5z" />
    <glyph glyph-name="Udieresis" unicode="&#xdc;" horiz-adv-x="749" 
d="M267 696q-37 0 -63 26t-26 63t26 63t63 26t63 -26t26 -63t-26 -63t-63 -26zM483 696q-37 0 -63 26t-26 63t26 63t63 26q38 0 64 -26t26 -63t-26 -63t-64 -26zM54 274v393h205v-386q0 -52 28.5 -83.5t87.5 -31.5q58 0 86.5 32t28.5 83v386h205v-392q0 -131 -79 -209
t-241 -78t-241.5 77.5t-79.5 208.5z" />
    <glyph glyph-name="Yacute" unicode="&#xdd;" horiz-adv-x="664" 
d="M388 723h-120l120 144h155zM232 0v265l-250 402h227l124 -225l122 225h227l-248 -402v-265h-202z" />
    <glyph glyph-name="Thorn" unicode="&#xde;" horiz-adv-x="662" 
d="M54 0v667h202v-96h154q113 0 176.5 -66t63.5 -164t-63.5 -162.5t-176.5 -64.5h-154v-114h-202zM445 342q0 27 -18.5 44t-51.5 17h-119v-121h119q34 0 52 16.5t18 43.5z" />
    <glyph glyph-name="germandbls" unicode="&#xdf;" horiz-adv-x="688" 
d="M460 -12q-122 0 -207 72l69 123q20 -25 60.5 -43t77.5 -18q44 0 44 21q0 14 -58 26q-30 6 -46 10t-44.5 16.5t-44.5 28t-28.5 43.5t-12.5 65q0 30 13.5 57t26.5 39.5t34 28.5q26 21 26 29q0 32 -56 32q-38 0 -60.5 -17.5t-22.5 -49.5v-451h-180v451q0 95 71.5 160.5
t195.5 65.5q95 0 166 -45t71 -118q0 -34 -15 -62.5t-27.5 -40.5t-36.5 -31q-34 -27 -34 -37q0 -13 42 -20q4 -1 7 -1q29 -4 46.5 -7.5t47.5 -15.5t47 -28t30.5 -46.5t13.5 -70.5q0 -75 -61 -120.5t-155 -45.5z" />
    <glyph glyph-name="agrave" unicode="&#xe0;" horiz-adv-x="559" 
d="M219 556l-155 144h155l120 -144h-120zM329 0v46q-20 -26 -60.5 -42t-85.5 -16q-62 0 -114 41.5t-52 117.5q0 43 15.5 73.5t41 46t52.5 22.5t57 7q104 0 146 -53v55q0 26 -23.5 43t-66.5 17q-72 0 -134 -47l-61 111q91 73 228 73q48 0 88 -9.5t75 -31t54.5 -63t19.5 -99.5
v-292h-180zM329 131v27q-18 26 -71 26q-63 0 -63 -40q0 -39 63 -39q53 0 71 26z" />
    <glyph glyph-name="aacute" unicode="&#xe1;" horiz-adv-x="559" 
d="M333 556h-120l120 144h155zM329 0v46q-20 -26 -60.5 -42t-85.5 -16q-62 0 -114 41.5t-52 117.5q0 43 15.5 73.5t41 46t52.5 22.5t57 7q104 0 146 -53v55q0 26 -23.5 43t-66.5 17q-72 0 -134 -47l-61 111q91 73 228 73q48 0 88 -9.5t75 -31t54.5 -63t19.5 -99.5v-292h-180
zM329 131v27q-18 26 -71 26q-63 0 -63 -40q0 -39 63 -39q53 0 71 26z" />
    <glyph glyph-name="acircumflex" unicode="&#xe2;" horiz-adv-x="559" 
d="M341 556l-64 73l-61 -73h-105l88 144h156l91 -144h-105zM329 0v46q-20 -26 -60.5 -42t-85.5 -16q-62 0 -114 41.5t-52 117.5q0 43 15.5 73.5t41 46t52.5 22.5t57 7q104 0 146 -53v55q0 26 -23.5 43t-66.5 17q-72 0 -134 -47l-61 111q91 73 228 73q48 0 88 -9.5t75 -31
t54.5 -63t19.5 -99.5v-292h-180zM329 131v27q-18 26 -71 26q-63 0 -63 -40q0 -39 63 -39q53 0 71 26z" />
    <glyph glyph-name="atilde" unicode="&#xe3;" horiz-adv-x="559" 
d="M252 582q-22 15 -32 15q-24 0 -24 -37h-89q0 134 118 134q36 0 78 -28q23 -15 32 -15q24 0 24 37h89q0 -134 -118 -134q-36 0 -78 28zM329 0v46q-20 -26 -60.5 -42t-85.5 -16q-62 0 -114 41.5t-52 117.5q0 43 15.5 73.5t41 46t52.5 22.5t57 7q104 0 146 -53v55
q0 26 -23.5 43t-66.5 17q-72 0 -134 -47l-61 111q91 73 228 73q48 0 88 -9.5t75 -31t54.5 -63t19.5 -99.5v-292h-180zM329 131v27q-18 26 -71 26q-63 0 -63 -40q0 -39 63 -39q53 0 71 26z" />
    <glyph glyph-name="adieresis" unicode="&#xe4;" horiz-adv-x="559" 
d="M169 529q-37 0 -63 25.5t-26 63.5t26 63.5t63 25.5t63 -25.5t26 -63.5t-26 -63.5t-63 -25.5zM385 529q-37 0 -63 26t-26 63t26 63t63 26q38 0 64 -26t26 -63t-26 -63t-64 -26zM329 0v46q-20 -26 -60.5 -42t-85.5 -16q-62 0 -114 41.5t-52 117.5q0 43 15.5 73.5t41 46
t52.5 22.5t57 7q104 0 146 -53v55q0 26 -23.5 43t-66.5 17q-72 0 -134 -47l-61 111q91 73 228 73q48 0 88 -9.5t75 -31t54.5 -63t19.5 -99.5v-292h-180zM329 131v27q-18 26 -71 26q-63 0 -63 -40q0 -39 63 -39q53 0 71 26z" />
    <glyph glyph-name="aring" unicode="&#xe5;" horiz-adv-x="559" 
d="M166 631q0 46 33 79t79 33t78 -33t32 -79t-32 -79t-78 -33t-79 33t-33 79zM312 631q0 14 -10 24.5t-24 10.5t-24.5 -10.5t-10.5 -24.5t10.5 -24.5t24.5 -10.5t24 10.5t10 24.5zM329 0v46q-20 -26 -60.5 -42t-85.5 -16q-62 0 -114 41.5t-52 117.5q0 43 15.5 73.5t41 46
t52.5 22.5t57 7q104 0 146 -53v55q0 26 -23.5 43t-66.5 17q-72 0 -134 -47l-61 111q91 73 228 73q48 0 88 -9.5t75 -31t54.5 -63t19.5 -99.5v-292h-180zM329 131v27q-18 26 -71 26q-63 0 -63 -40q0 -39 63 -39q53 0 71 26z" />
    <glyph glyph-name="ae" unicode="&#xe6;" horiz-adv-x="851" 
d="M520 186q27 -57 104 -57q59 0 98 34l78 -115q-34 -29 -89.5 -44.5t-107.5 -15.5q-106 0 -175 65q-77 -65 -198 -65q-94 0 -153.5 39t-59.5 117q0 77 48 117t121 40q47 0 89 -14t63 -38v49q0 26 -24.5 42.5t-69.5 16.5q-76 0 -139 -47l-61 112q91 73 228 73q104 0 156 -59
q66 59 170 59q102 0 171.5 -74t69.5 -198v-37h-319zM668 300q-14 58 -76 58q-59 0 -74 -58h150zM338 157q-21 27 -76 27q-27 0 -47 -9t-20 -26t17.5 -25.5t38.5 -8.5q35 0 61 12.5t26 26.5v3z" />
    <glyph glyph-name="ccedilla" unicode="&#xe7;" horiz-adv-x="502" 
d="M296 147q52 0 81 42l116 -110q-22 -33 -68 -59t-112 -31l-15 -36q15 9 34 9q28 0 48 -20.5t20 -52.5q0 -41 -34 -65t-84 -24q-77 0 -119 34l31 64q43 -30 83 -30q42 0 42 24q0 17 -21 17q-16 0 -26 -12l-59 34l23 61q-97 15 -158 82.5t-61 167.5q0 113 77 183t194 70
q75 0 128 -27.5t77 -63.5l-116 -109q-27 41 -81 41q-40 0 -67.5 -24.5t-27.5 -69.5t27.5 -70t67.5 -25z" />
    <glyph glyph-name="egrave" unicode="&#xe8;" horiz-adv-x="543" 
d="M222 556l-155 144h155l120 -144h-120zM17 242q0 107 74 180t189 73q109 0 180 -73.5t71 -198.5v-37h-328q8 -26 35.5 -43.5t70.5 -17.5q66 0 109 34l74 -111q-34 -29 -91 -44.5t-115 -15.5q-116 0 -192.5 69t-76.5 185zM280 358q-63 0 -79 -58h159q-14 58 -80 58z" />
    <glyph glyph-name="eacute" unicode="&#xe9;" horiz-adv-x="543" 
d="M336 556h-120l120 144h155zM17 242q0 107 74 180t189 73q109 0 180 -73.5t71 -198.5v-37h-328q8 -26 35.5 -43.5t70.5 -17.5q66 0 109 34l74 -111q-34 -29 -91 -44.5t-115 -15.5q-116 0 -192.5 69t-76.5 185zM280 358q-63 0 -79 -58h159q-14 58 -80 58z" />
    <glyph glyph-name="ecircumflex" unicode="&#xea;" horiz-adv-x="543" 
d="M344 556l-64 73l-61 -73h-105l88 144h156l91 -144h-105zM17 242q0 107 74 180t189 73q109 0 180 -73.5t71 -198.5v-37h-328q8 -26 35.5 -43.5t70.5 -17.5q66 0 109 34l74 -111q-34 -29 -91 -44.5t-115 -15.5q-116 0 -192.5 69t-76.5 185zM280 358q-63 0 -79 -58h159
q-14 58 -80 58z" />
    <glyph glyph-name="edieresis" unicode="&#xeb;" horiz-adv-x="543" 
d="M172 529q-38 0 -63.5 25.5t-25.5 63.5t25.5 63.5t63.5 25.5t63.5 -25.5t25.5 -63.5t-25.5 -63.5t-63.5 -25.5zM388 529q-37 0 -63 26t-26 63t26 63t63 26q38 0 64 -26t26 -63t-26 -63t-64 -26zM17 242q0 107 74 180t189 73q109 0 180 -73.5t71 -198.5v-37h-328
q8 -26 35.5 -43.5t70.5 -17.5q66 0 109 34l74 -111q-34 -29 -91 -44.5t-115 -15.5q-116 0 -192.5 69t-76.5 185zM280 358q-63 0 -79 -58h159q-14 58 -80 58z" />
    <glyph glyph-name="igrave" unicode="&#xec;" horiz-adv-x="280" 
d="M82 556l-155 144h155l120 -144h-120zM50 0v483h180v-483h-180z" />
    <glyph glyph-name="iacute" unicode="&#xed;" horiz-adv-x="280" 
d="M196 556h-120l120 144h155zM50 0v483h180v-483h-180z" />
    <glyph glyph-name="icircumflex" unicode="&#xee;" horiz-adv-x="280" 
d="M204 556l-64 73l-61 -73h-105l88 144h156l91 -144h-105zM50 0v483h180v-483h-180z" />
    <glyph glyph-name="idieresis" unicode="&#xef;" horiz-adv-x="280" 
d="M32 529q-38 0 -63.5 25.5t-25.5 63.5t25.5 63.5t63.5 25.5t63.5 -25.5t25.5 -63.5t-25.5 -63.5t-63.5 -25.5zM248 529q-37 0 -63 26t-26 63t26 63t63 26q38 0 64 -26t26 -63t-26 -63t-64 -26zM50 0v483h180v-483h-180z" />
    <glyph glyph-name="eth" unicode="&#xf0;" horiz-adv-x="577" 
d="M403 582q157 -146 157 -324q0 -124 -72 -197t-200 -73q-122 0 -196.5 62.5t-74.5 164.5q0 100 60.5 163t147.5 63q107 0 162 -96q-22 71 -154 161l-149 -66l-32 78l97 42q-9 6 -26.5 16t-20.5 12l96 143q77 -46 134 -90l99 43l33 -75zM288 147q41 0 64 18.5t23 49.5
t-23 49.5t-64 18.5q-40 0 -63 -18.5t-23 -49.5t23 -49.5t63 -18.5z" />
    <glyph glyph-name="ntilde" unicode="&#xf1;" horiz-adv-x="607" 
d="M278 582q-23 15 -32 15q-24 0 -24 -37h-89q0 134 118 134q36 0 78 -28q22 -15 32 -15q24 0 24 37h89q0 -134 -118 -134q-36 0 -78 28zM377 0v267q0 69 -70 69q-43 0 -77 -38v-298h-180v483h180v-55q59 67 166 67q80 0 120.5 -42.5t40.5 -109.5v-343h-180z" />
    <glyph glyph-name="ograve" unicode="&#xf2;" horiz-adv-x="577" 
d="M230 556l-155 144h155l120 -144h-120zM288 -12q-124 0 -197.5 74t-73.5 180t73.5 179.5t197.5 73.5t198 -73.5t74 -179.5t-74 -180t-198 -74zM288 147q41 0 64 26.5t23 68.5q0 41 -23 67.5t-64 26.5q-40 0 -63 -26.5t-23 -67.5q0 -42 23 -68.5t63 -26.5z" />
    <glyph glyph-name="oacute" unicode="&#xf3;" horiz-adv-x="577" 
d="M344 556h-120l120 144h155zM288 -12q-124 0 -197.5 74t-73.5 180t73.5 179.5t197.5 73.5t198 -73.5t74 -179.5t-74 -180t-198 -74zM288 147q41 0 64 26.5t23 68.5q0 41 -23 67.5t-64 26.5q-40 0 -63 -26.5t-23 -67.5q0 -42 23 -68.5t63 -26.5z" />
    <glyph glyph-name="ocircumflex" unicode="&#xf4;" horiz-adv-x="577" 
d="M352 556l-64 73l-61 -73h-105l88 144h156l91 -144h-105zM288 -12q-124 0 -197.5 74t-73.5 180t73.5 179.5t197.5 73.5t198 -73.5t74 -179.5t-74 -180t-198 -74zM288 147q41 0 64 26.5t23 68.5q0 41 -23 67.5t-64 26.5q-40 0 -63 -26.5t-23 -67.5q0 -42 23 -68.5t63 -26.5
z" />
    <glyph glyph-name="otilde" unicode="&#xf5;" horiz-adv-x="577" 
d="M263 582q-23 15 -32 15q-24 0 -24 -37h-89q0 134 118 134q36 0 78 -28q22 -15 32 -15q24 0 24 37h89q0 -134 -118 -134q-36 0 -78 28zM288 -12q-124 0 -197.5 74t-73.5 180t73.5 179.5t197.5 73.5t198 -73.5t74 -179.5t-74 -180t-198 -74zM288 147q41 0 64 26.5t23 68.5
q0 41 -23 67.5t-64 26.5q-40 0 -63 -26.5t-23 -67.5q0 -42 23 -68.5t63 -26.5z" />
    <glyph glyph-name="odieresis" unicode="&#xf6;" horiz-adv-x="577" 
d="M180 529q-38 0 -63.5 25.5t-25.5 63.5t25.5 63.5t63.5 25.5t63.5 -25.5t25.5 -63.5t-25.5 -63.5t-63.5 -25.5zM396 529q-37 0 -63 26t-26 63t26 63t63 26q38 0 64 -26t26 -63t-26 -63t-64 -26zM288 -12q-124 0 -197.5 74t-73.5 180t73.5 179.5t197.5 73.5t198 -73.5
t74 -179.5t-74 -180t-198 -74zM288 147q41 0 64 26.5t23 68.5q0 41 -23 67.5t-64 26.5q-40 0 -63 -26.5t-23 -67.5q0 -42 23 -68.5t63 -26.5z" />
    <glyph glyph-name="divide" unicode="&#xf7;" horiz-adv-x="511" 
d="M255 428q-31 0 -53.5 22.5t-22.5 54.5q0 31 22 53t54 22t54 -22t22 -53q0 -32 -22.5 -54.5t-53.5 -22.5zM29 285v105h453v-105h-453zM255 94q-31 0 -53.5 22t-22.5 54t22.5 54t53.5 22t53.5 -22t22.5 -54t-22.5 -54t-53.5 -22z" />
    <glyph glyph-name="oslash" unicode="&#xf8;" horiz-adv-x="577" 
d="M560 483l-65 -71q65 -71 65 -170q0 -106 -74 -180t-198 -74q-84 0 -147 36l-22 -24h-102l65 71q-65 71 -65 171q0 106 73.5 179.5t197.5 73.5q82 0 146 -35l21 23h105zM202 242q0 -20 4 -33l112 123q-18 4 -30 4q-40 0 -63 -26.5t-23 -67.5zM375 242q0 16 -5 33
l-112 -123q15 -5 30 -5q41 0 64 26.5t23 68.5z" />
    <glyph glyph-name="ugrave" unicode="&#xf9;" horiz-adv-x="606" 
d="M245 556l-155 144h155l120 -144h-120zM376 0v54q-60 -66 -166 -66q-80 0 -120 42t-40 108v345h180v-268q0 -68 70 -68q42 0 76 38v298h180v-483h-180z" />
    <glyph glyph-name="uacute" unicode="&#xfa;" horiz-adv-x="606" 
d="M359 556h-120l120 144h155zM376 0v54q-60 -66 -166 -66q-80 0 -120 42t-40 108v345h180v-268q0 -68 70 -68q42 0 76 38v298h180v-483h-180z" />
    <glyph glyph-name="ucircumflex" unicode="&#xfb;" horiz-adv-x="606" 
d="M367 556l-64 73l-61 -73h-105l88 144h156l91 -144h-105zM376 0v54q-60 -66 -166 -66q-80 0 -120 42t-40 108v345h180v-268q0 -68 70 -68q42 0 76 38v298h180v-483h-180z" />
    <glyph glyph-name="udieresis" unicode="&#xfc;" horiz-adv-x="606" 
d="M195 529q-37 0 -63 25.5t-26 63.5t26 63.5t63 25.5t63 -25.5t26 -63.5t-26 -63.5t-63 -25.5zM411 529q-37 0 -63 26t-26 63t26 63t63 26q38 0 64 -26t26 -63t-26 -63t-64 -26zM376 0v54q-60 -66 -166 -66q-80 0 -120 42t-40 108v345h180v-268q0 -68 70 -68q42 0 76 38
v298h180v-483h-180z" />
    <glyph glyph-name="yacute" unicode="&#xfd;" horiz-adv-x="535" 
d="M323 556h-120l120 144h155zM70 -28q16 -9 38 -9q54 0 63 19l4 10l-190 491h190l92 -276l93 276h190l-210 -543q-30 -78 -84 -105.5t-141 -30.5q-43 0 -70 8z" />
    <glyph glyph-name="thorn" unicode="&#xfe;" horiz-adv-x="595" 
d="M230 51v-235h-180v851h180v-235q53 63 136 63q93 0 152.5 -66.5t59.5 -186.5q0 -121 -59.5 -187.5t-152.5 -66.5q-81 0 -136 63zM394 242q0 43 -26 68.5t-64 25.5q-19 0 -40.5 -9t-33.5 -24v-123q11 -14 33.5 -23.5t40.5 -9.5q38 0 64 25.5t26 69.5z" />
    <glyph glyph-name="ydieresis" unicode="&#xff;" horiz-adv-x="535" 
d="M159 529q-37 0 -63 25.5t-26 63.5t26 63.5t63 25.5t63 -25.5t26 -63.5t-26 -63.5t-63 -25.5zM375 529q-37 0 -63 26t-26 63t26 63t63 26q38 0 64 -26t26 -63t-26 -63t-64 -26zM70 -28q16 -9 38 -9q54 0 63 19l4 10l-190 491h190l92 -276l93 276h190l-210 -543
q-30 -78 -84 -105.5t-141 -30.5q-43 0 -70 8z" />
    <glyph glyph-name="Amacron" unicode="&#x100;" horiz-adv-x="710" 
d="M173 718v97h363v-97h-363zM509 0l-26 86h-256l-26 -86h-219l246 667h254l246 -667h-219zM355 489l-76 -235h152z" />
    <glyph glyph-name="amacron" unicode="&#x101;" horiz-adv-x="559" 
d="M95 551v97h363v-97h-363zM329 0v46q-20 -26 -60.5 -42t-85.5 -16q-62 0 -114 41.5t-52 117.5q0 43 15.5 73.5t41 46t52.5 22.5t57 7q104 0 146 -53v55q0 26 -23.5 43t-66.5 17q-72 0 -134 -47l-61 111q91 73 228 73q48 0 88 -9.5t75 -31t54.5 -63t19.5 -99.5v-292h-180z
M329 131v27q-18 26 -71 26q-63 0 -63 -40q0 -39 63 -39q53 0 71 26z" />
    <glyph glyph-name="Abreve" unicode="&#x102;" horiz-adv-x="710" 
d="M355 717q-109 0 -176 88l76 62q38 -53 100 -53q63 0 100 53l75 -62q-65 -88 -175 -88zM509 0l-26 86h-256l-26 -86h-219l246 667h254l246 -667h-219zM355 489l-76 -235h152z" />
    <glyph glyph-name="abreve" unicode="&#x103;" horiz-adv-x="559" 
d="M277 550q-109 0 -176 88l76 62q38 -53 100 -53q63 0 100 53l75 -62q-65 -88 -175 -88zM329 0v46q-20 -26 -60.5 -42t-85.5 -16q-62 0 -114 41.5t-52 117.5q0 43 15.5 73.5t41 46t52.5 22.5t57 7q104 0 146 -53v55q0 26 -23.5 43t-66.5 17q-72 0 -134 -47l-61 111
q91 73 228 73q48 0 88 -9.5t75 -31t54.5 -63t19.5 -99.5v-292h-180zM329 131v27q-18 26 -71 26q-63 0 -63 -40q0 -39 63 -39q53 0 71 26z" />
    <glyph glyph-name="Aogonek" unicode="&#x104;" horiz-adv-x="710" 
d="M686 0q-43 -4 -65 -20t-22 -38q0 -13 9.5 -21t23.5 -8q12 0 24 5l27 -84q-41 -20 -107 -20q-32 0 -59.5 7t-50 28t-22.5 53q0 63 112 98h-47l-26 86h-256l-26 -86h-219l246 667h254l246 -667h-42zM279 254h152l-76 235z" />
    <glyph glyph-name="aogonek" unicode="&#x105;" horiz-adv-x="559" 
d="M509 0q-43 -4 -65 -20t-22 -38q0 -13 9.5 -21t23.5 -8q12 0 24 5l27 -84q-41 -20 -107 -20q-32 0 -59.5 7t-50 28t-22.5 53q0 63 112 98h-50v46q-20 -26 -60.5 -42t-85.5 -16q-62 0 -114 41.5t-52 117.5q0 43 15.5 73.5t41 46t52.5 22.5t57 7q104 0 146 -53v55
q0 26 -23.5 43t-66.5 17q-72 0 -134 -47l-61 111q91 73 228 73q48 0 88 -9.5t75 -31t54.5 -63t19.5 -99.5v-292zM329 131v27q-18 26 -71 26q-63 0 -63 -40q0 -39 63 -39q53 0 71 26z" />
    <glyph glyph-name="Cacute" unicode="&#x106;" horiz-adv-x="697" 
d="M436 723h-120l120 144h155zM380 -12q-155 0 -258.5 96.5t-103.5 248.5t103.5 248.5t258.5 96.5q123 0 197.5 -56t110.5 -138l-174 -81q-13 41 -50 69t-84 28q-68 0 -112.5 -48t-44.5 -119t44.5 -119t112.5 -48q47 0 84 28t50 69l174 -80q-16 -37 -40 -68.5t-60.5 -61.5
t-90 -47.5t-117.5 -17.5z" />
    <glyph glyph-name="cacute" unicode="&#x107;" horiz-adv-x="502" 
d="M339 556h-120l120 144h155zM17 242q0 113 77 183t194 70q75 0 128 -27.5t77 -63.5l-116 -109q-27 41 -81 41q-40 0 -67.5 -24.5t-27.5 -69.5t27.5 -70t67.5 -25q52 0 81 42l116 -110q-24 -36 -77 -63.5t-128 -27.5q-117 0 -194 70t-77 184z" />
    <glyph glyph-name="Ccircumflex" unicode="&#x108;" horiz-adv-x="697" 
d="M444 723l-64 73l-61 -73h-105l88 144h156l91 -144h-105zM380 -12q-155 0 -258.5 96.5t-103.5 248.5t103.5 248.5t258.5 96.5q123 0 197.5 -56t110.5 -138l-174 -81q-13 41 -50 69t-84 28q-68 0 -112.5 -48t-44.5 -119t44.5 -119t112.5 -48q47 0 84 28t50 69l174 -80
q-16 -37 -40 -68.5t-60.5 -61.5t-90 -47.5t-117.5 -17.5z" />
    <glyph glyph-name="ccircumflex" unicode="&#x109;" horiz-adv-x="502" 
d="M347 556l-64 73l-61 -73h-105l88 144h156l91 -144h-105zM17 242q0 113 77 183t194 70q75 0 128 -27.5t77 -63.5l-116 -109q-27 41 -81 41q-40 0 -67.5 -24.5t-27.5 -69.5t27.5 -70t67.5 -25q52 0 81 42l116 -110q-24 -36 -77 -63.5t-128 -27.5q-117 0 -194 70t-77 184z
" />
    <glyph glyph-name="Cdotaccent" unicode="&#x10a;" horiz-adv-x="697" 
d="M291 786q0 37 26 63t63 26q36 0 62 -26t26 -63t-26 -63t-62 -26q-37 0 -63 26t-26 63zM380 -12q-155 0 -258.5 96.5t-103.5 248.5t103.5 248.5t258.5 96.5q123 0 197.5 -56t110.5 -138l-174 -81q-13 41 -50 69t-84 28q-68 0 -112.5 -48t-44.5 -119t44.5 -119t112.5 -48
q47 0 84 28t50 69l174 -80q-16 -37 -40 -68.5t-60.5 -61.5t-90 -47.5t-117.5 -17.5z" />
    <glyph glyph-name="cdotaccent" unicode="&#x10b;" horiz-adv-x="502" 
d="M194 619q0 37 26 63t63 26q36 0 62 -26t26 -63t-26 -63t-62 -26q-37 0 -63 26t-26 63zM17 242q0 113 77 183t194 70q75 0 128 -27.5t77 -63.5l-116 -109q-27 41 -81 41q-40 0 -67.5 -24.5t-27.5 -69.5t27.5 -70t67.5 -25q52 0 81 42l116 -110q-24 -36 -77 -63.5
t-128 -27.5q-117 0 -194 70t-77 184z" />
    <glyph glyph-name="Ccaron" unicode="&#x10c;" horiz-adv-x="697" 
d="M302 723l-91 144h105l64 -73l61 73h105l-88 -144h-156zM380 -12q-155 0 -258.5 96.5t-103.5 248.5t103.5 248.5t258.5 96.5q123 0 197.5 -56t110.5 -138l-174 -81q-13 41 -50 69t-84 28q-68 0 -112.5 -48t-44.5 -119t44.5 -119t112.5 -48q47 0 84 28t50 69l174 -80
q-16 -37 -40 -68.5t-60.5 -61.5t-90 -47.5t-117.5 -17.5z" />
    <glyph glyph-name="ccaron" unicode="&#x10d;" horiz-adv-x="502" 
d="M205 556l-91 144h105l64 -73l61 73h105l-88 -144h-156zM17 242q0 113 77 183t194 70q75 0 128 -27.5t77 -63.5l-116 -109q-27 41 -81 41q-40 0 -67.5 -24.5t-27.5 -69.5t27.5 -70t67.5 -25q52 0 81 42l116 -110q-24 -36 -77 -63.5t-128 -27.5q-117 0 -194 70t-77 184z
" />
    <glyph glyph-name="Dcaron" unicode="&#x10e;" horiz-adv-x="736" 
d="M288 723l-91 144h105l64 -73l61 73h105l-88 -144h-156zM54 0v667h298q162 0 264 -88.5t102 -244.5t-102 -245t-263 -89h-299zM256 176h96q73 0 117 46t44 112q0 71 -41 114t-119 43h-97v-315z" />
    <glyph glyph-name="dcaron" unicode="&#x10f;" horiz-adv-x="736" 
d="M648 417l-55 44q19 9 40.5 30.5t27.5 42.5q-5 -3 -19 -3q-28 0 -46.5 19t-18.5 50q0 33 23 56t55 23q36 0 61.5 -26t25.5 -71q0 -99 -94 -165zM366 0v51q-56 -63 -136 -63q-92 0 -152.5 67t-60.5 187q0 117 60.5 185t152.5 68q84 0 136 -63v235h180v-667h-180zM366 180
v124q-26 32 -75 32q-38 0 -64 -25.5t-26 -68.5q0 -44 26 -69.5t64 -25.5q48 0 75 33z" />
    <glyph glyph-name="Dcroat" unicode="&#x110;" horiz-adv-x="757" 
d="M373 667q162 0 264 -88.5t102 -244.5t-102 -245t-263 -89h-299v254h-68v159h68v254h298zM373 176q73 0 117 46t44 112q0 71 -41 114t-119 43h-97v-78h129v-159h-129v-78h96z" />
    <glyph glyph-name="dcroat" unicode="&#x111;" horiz-adv-x="602" 
d="M595 618v-97h-49v-521h-180v51q-56 -63 -136 -63q-92 0 -152.5 67t-60.5 187q0 117 60.5 185t152.5 68q84 0 136 -63v89h-134v97h134v49h180v-49h49zM366 180v124q-26 32 -75 32q-38 0 -64 -25.5t-26 -68.5q0 -44 26 -69.5t64 -25.5q48 0 75 33z" />
    <glyph glyph-name="Emacron" unicode="&#x112;" 
d="M132 718v97h363v-97h-363zM54 0v667h506v-168h-304v-78h297v-168h-297v-85h304v-168h-506z" />
    <glyph glyph-name="emacron" unicode="&#x113;" horiz-adv-x="543" 
d="M98 551v97h363v-97h-363zM17 242q0 107 74 180t189 73q109 0 180 -73.5t71 -198.5v-37h-328q8 -26 35.5 -43.5t70.5 -17.5q66 0 109 34l74 -111q-34 -29 -91 -44.5t-115 -15.5q-116 0 -192.5 69t-76.5 185zM280 358q-63 0 -79 -58h159q-14 58 -80 58z" />
    <glyph glyph-name="Ebreve" unicode="&#x114;" 
d="M314 717q-109 0 -176 88l76 62q38 -53 100 -53q63 0 100 53l75 -62q-65 -88 -175 -88zM54 0v667h506v-168h-304v-78h297v-168h-297v-85h304v-168h-506z" />
    <glyph glyph-name="ebreve" unicode="&#x115;" horiz-adv-x="543" 
d="M280 550q-109 0 -176 88l76 62q38 -53 100 -53q63 0 100 53l75 -62q-65 -88 -175 -88zM17 242q0 107 74 180t189 73q109 0 180 -73.5t71 -198.5v-37h-328q8 -26 35.5 -43.5t70.5 -17.5q66 0 109 34l74 -111q-34 -29 -91 -44.5t-115 -15.5q-116 0 -192.5 69t-76.5 185z
M280 358q-63 0 -79 -58h159q-14 58 -80 58z" />
    <glyph glyph-name="Edotaccent" unicode="&#x116;" 
d="M225 786q0 37 26 63t63 26q36 0 62 -26t26 -63t-26 -63t-62 -26q-37 0 -63 26t-26 63zM54 0v667h506v-168h-304v-78h297v-168h-297v-85h304v-168h-506z" />
    <glyph glyph-name="edotaccent" unicode="&#x117;" horiz-adv-x="543" 
d="M191 619q0 37 26 63t63 26q36 0 62 -26t26 -63t-26 -63t-62 -26q-37 0 -63 26t-26 63zM17 242q0 107 74 180t189 73q109 0 180 -73.5t71 -198.5v-37h-328q8 -26 35.5 -43.5t70.5 -17.5q66 0 109 34l74 -111q-34 -29 -91 -44.5t-115 -15.5q-116 0 -192.5 69t-76.5 185z
M280 358q-63 0 -79 -58h159q-14 58 -80 58z" />
    <glyph glyph-name="Eogonek" unicode="&#x118;" 
d="M560 499h-304v-78h297v-168h-297v-85h304v-168q-43 -4 -65 -20t-22 -38q0 -13 9.5 -21t23.5 -8q12 0 24 5l27 -84q-41 -20 -107 -20q-32 0 -59.5 7t-50 28t-22.5 53q0 63 112 98h-376v667h506v-168z" />
    <glyph glyph-name="eogonek" unicode="&#x119;" horiz-adv-x="543" 
d="M286 -12q-116 0 -192.5 69t-76.5 185q0 107 74 180t189 73q109 0 180 -73.5t71 -198.5v-37h-328q8 -25 35 -43t69 -18q23 0 58.5 10t52.5 24l74 -111q-40 -27 -62 -56t-22 -50q0 -13 9.5 -21t23.5 -8q12 0 24 5l27 -84q-41 -20 -107 -20q-32 0 -59.5 7t-50 28t-22.5 53
q0 61 75 88q-28 -2 -42 -2zM280 358q-63 0 -79 -58h159q-14 58 -80 58z" />
    <glyph glyph-name="Ecaron" unicode="&#x11a;" 
d="M236 723l-91 144h105l64 -73l61 73h105l-88 -144h-156zM54 0v667h506v-168h-304v-78h297v-168h-297v-85h304v-168h-506z" />
    <glyph glyph-name="ecaron" unicode="&#x11b;" horiz-adv-x="543" 
d="M202 556l-91 144h105l64 -73l61 73h105l-88 -144h-156zM17 242q0 107 74 180t189 73q109 0 180 -73.5t71 -198.5v-37h-328q8 -26 35.5 -43.5t70.5 -17.5q66 0 109 34l74 -111q-34 -29 -91 -44.5t-115 -15.5q-116 0 -192.5 69t-76.5 185zM280 358q-63 0 -79 -58h159
q-14 58 -80 58z" />
    <glyph glyph-name="Gcircumflex" unicode="&#x11c;" horiz-adv-x="726" 
d="M449 723l-64 73l-61 -73h-105l88 144h156l91 -144h-105zM18 333q0 156 105.5 250.5t261.5 94.5q108 0 181 -46t112 -118l-170 -87q-17 32 -49.5 52.5t-73.5 20.5q-72 0 -117 -48t-45 -119t45 -119t117 -48q68 0 109 30v29h-129v166h325v-268q-122 -135 -305 -135
q-156 0 -261.5 94.5t-105.5 250.5z" />
    <glyph glyph-name="gcircumflex" unicode="&#x11d;" horiz-adv-x="595" 
d="M365 556l-64 73l-61 -73h-105l88 144h156l91 -144h-105zM33 -124l76 128q53 -53 144 -53q43 0 77.5 22.5t34.5 78.5v26q-57 -65 -136 -65q-93 0 -152.5 61.5t-59.5 179.5q0 116 59.5 178.5t152.5 62.5q83 0 136 -63v51h180v-431q0 -60 -19.5 -106t-48.5 -72t-69.5 -42.5
t-77.5 -22t-77 -5.5q-129 0 -220 72zM365 203v102q-12 14 -33.5 22.5t-40.5 8.5q-40 0 -65 -20t-25 -62t25 -62t65 -20q19 0 40.5 8.5t33.5 22.5z" />
    <glyph glyph-name="Gbreve" unicode="&#x11e;" horiz-adv-x="726" 
d="M385 717q-109 0 -176 88l76 62q38 -53 100 -53q63 0 100 53l75 -62q-65 -88 -175 -88zM18 333q0 156 105.5 250.5t261.5 94.5q108 0 181 -46t112 -118l-170 -87q-17 32 -49.5 52.5t-73.5 20.5q-72 0 -117 -48t-45 -119t45 -119t117 -48q68 0 109 30v29h-129v166h325v-268
q-122 -135 -305 -135q-156 0 -261.5 94.5t-105.5 250.5z" />
    <glyph glyph-name="gbreve" unicode="&#x11f;" horiz-adv-x="595" 
d="M301 550q-109 0 -176 88l76 62q38 -53 100 -53q63 0 100 53l75 -62q-65 -88 -175 -88zM33 -124l76 128q53 -53 144 -53q43 0 77.5 22.5t34.5 78.5v26q-57 -65 -136 -65q-93 0 -152.5 61.5t-59.5 179.5q0 116 59.5 178.5t152.5 62.5q83 0 136 -63v51h180v-431
q0 -60 -19.5 -106t-48.5 -72t-69.5 -42.5t-77.5 -22t-77 -5.5q-129 0 -220 72zM365 203v102q-12 14 -33.5 22.5t-40.5 8.5q-40 0 -65 -20t-25 -62t25 -62t65 -20q19 0 40.5 8.5t33.5 22.5z" />
    <glyph glyph-name="Gdotaccent" unicode="&#x120;" horiz-adv-x="726" 
d="M296 786q0 37 26 63t63 26q36 0 62 -26t26 -63t-26 -63t-62 -26q-37 0 -63 26t-26 63zM18 333q0 156 105.5 250.5t261.5 94.5q108 0 181 -46t112 -118l-170 -87q-17 32 -49.5 52.5t-73.5 20.5q-72 0 -117 -48t-45 -119t45 -119t117 -48q68 0 109 30v29h-129v166h325v-268
q-122 -135 -305 -135q-156 0 -261.5 94.5t-105.5 250.5z" />
    <glyph glyph-name="gdotaccent" unicode="&#x121;" horiz-adv-x="595" 
d="M212 619q0 37 26 63t63 26q36 0 62 -26t26 -63t-26 -63t-62 -26q-37 0 -63 26t-26 63zM33 -124l76 128q53 -53 144 -53q43 0 77.5 22.5t34.5 78.5v26q-57 -65 -136 -65q-93 0 -152.5 61.5t-59.5 179.5q0 116 59.5 178.5t152.5 62.5q83 0 136 -63v51h180v-431
q0 -60 -19.5 -106t-48.5 -72t-69.5 -42.5t-77.5 -22t-77 -5.5q-129 0 -220 72zM365 203v102q-12 14 -33.5 22.5t-40.5 8.5q-40 0 -65 -20t-25 -62t25 -62t65 -20q19 0 40.5 8.5t33.5 22.5z" />
    <glyph glyph-name="uni0122" unicode="&#x122;" horiz-adv-x="726" 
d="M18 333q0 156 105.5 250.5t261.5 94.5q108 0 181 -46t112 -118l-170 -87q-17 32 -49.5 52.5t-73.5 20.5q-72 0 -117 -48t-45 -119t45 -119t117 -48q68 0 109 30v29h-129v166h325v-268q-122 -135 -305 -135q-156 0 -261.5 94.5t-105.5 250.5zM378 -304l-55 44
q19 9 40.5 30.5t27.5 42.5q-5 -3 -19 -3q-28 0 -46.5 19t-18.5 50q0 33 23 56t55 23q36 0 61.5 -26t25.5 -71q0 -99 -94 -165z" />
    <glyph glyph-name="uni0123" unicode="&#x123;" horiz-adv-x="595" 
d="M303 782l55 -44q-18 -6 -40.5 -26t-26.5 -39q1 0 3 0.5t4 0.5q29 0 52 -21.5t23 -52.5q0 -33 -23.5 -56.5t-56.5 -23.5q-29 0 -54.5 21t-25.5 71q0 107 90 170zM33 -124l76 128q53 -53 144 -53q43 0 77.5 22.5t34.5 78.5v26q-57 -65 -136 -65q-93 0 -152.5 61.5
t-59.5 179.5q0 116 59.5 178.5t152.5 62.5q83 0 136 -63v51h180v-431q0 -60 -19.5 -106t-48.5 -72t-69.5 -42.5t-77.5 -22t-77 -5.5q-129 0 -220 72zM365 203v102q-12 14 -33.5 22.5t-40.5 8.5q-40 0 -65 -20t-25 -62t25 -62t65 -20q19 0 40.5 8.5t33.5 22.5z" />
    <glyph glyph-name="Hcircumflex" unicode="&#x124;" horiz-adv-x="751" 
d="M440 723l-64 73l-61 -73h-105l88 144h156l91 -144h-105zM495 0v255h-239v-255h-202v667h202v-236h239v236h202v-667h-202z" />
    <glyph glyph-name="hcircumflex" unicode="&#x125;" horiz-adv-x="608" 
d="M368 723l-64 73l-61 -73h-105l88 144h156l91 -144h-105zM378 0v269q0 67 -70 67q-43 0 -77 -38v-298h-180v667h180v-239q59 67 166 67q80 0 120.5 -41.5t40.5 -108.5v-345h-180z" />
    <glyph glyph-name="Hbar" unicode="&#x126;" horiz-adv-x="765" 
d="M758 598v-97h-54v-501h-202v255h-239v-255h-202v501h-54v97h54v69h202v-69h239v69h202v-69h54zM502 431v70h-239v-70h239z" />
    <glyph glyph-name="hbar" unicode="&#x127;" horiz-adv-x="613" 
d="M402 495q80 0 120.5 -41.5t40.5 -108.5v-345h-180v269q0 67 -70 67q-43 0 -77 -38v-298h-180v521h-49v97h49v49h180v-49h134v-97h-134v-93q59 67 166 67z" />
    <glyph glyph-name="Itilde" unicode="&#x128;" horiz-adv-x="310" 
d="M130 749q-23 15 -32 15q-24 0 -24 -37h-89q0 134 118 134q36 0 78 -28q22 -15 32 -15q24 0 24 37h89q0 -134 -118 -134q-36 0 -78 28zM54 0v667h202v-667h-202z" />
    <glyph glyph-name="itilde" unicode="&#x129;" horiz-adv-x="280" 
d="M115 582q-23 15 -32 15q-24 0 -24 -37h-89q0 134 118 134q36 0 78 -28q22 -15 32 -15q24 0 24 37h89q0 -134 -118 -134q-36 0 -78 28zM50 0v483h180v-483h-180z" />
    <glyph glyph-name="Imacron" unicode="&#x12a;" horiz-adv-x="310" 
d="M-27 718v97h363v-97h-363zM54 0v667h202v-667h-202z" />
    <glyph glyph-name="imacron" unicode="&#x12b;" horiz-adv-x="280" 
d="M-42 551v97h363v-97h-363zM50 0v483h180v-483h-180z" />
    <glyph glyph-name="Ibreve" unicode="&#x12c;" horiz-adv-x="310" 
d="M155 717q-109 0 -176 88l76 62q38 -53 100 -53q63 0 100 53l75 -62q-65 -88 -175 -88zM54 0v667h202v-667h-202z" />
    <glyph glyph-name="ibreve" unicode="&#x12d;" horiz-adv-x="280" 
d="M140 550q-109 0 -176 88l76 62q38 -53 100 -53q63 0 100 53l75 -62q-65 -88 -175 -88zM50 0v483h180v-483h-180z" />
    <glyph glyph-name="Iogonek" unicode="&#x12e;" horiz-adv-x="310" 
d="M256 0q-43 -4 -65 -20t-22 -38q0 -13 9.5 -21t23.5 -8q12 0 24 5l27 -84q-41 -20 -107 -20q-32 0 -59.5 7t-50 28t-22.5 53q0 63 112 98h-72v667h202v-667z" />
    <glyph glyph-name="iogonek" unicode="&#x12f;" horiz-adv-x="280" 
d="M140 518q-42 0 -71.5 29.5t-29.5 71.5t29.5 71.5t71.5 29.5t71.5 -29.5t29.5 -71.5t-29.5 -71.5t-71.5 -29.5zM50 0v483h180v-483q-43 -4 -65 -20t-22 -38q0 -13 9.5 -21t23.5 -8q12 0 24 5l27 -84q-41 -20 -107 -20q-32 0 -59.5 7t-50 28t-22.5 53q0 63 112 98h-50z" />
    <glyph glyph-name="Idotaccent" unicode="&#x130;" horiz-adv-x="310" 
d="M66 786q0 37 26 63t63 26q36 0 62 -26t26 -63t-26 -63t-62 -26q-37 0 -63 26t-26 63zM54 0v667h202v-667h-202z" />
    <glyph glyph-name="dotlessi" unicode="&#x131;" horiz-adv-x="280" 
d="M50 0v483h180v-483h-180z" />
    <glyph glyph-name="IJ" unicode="&#x132;" horiz-adv-x="808" 
d="M54 0v667h202v-667h-202zM310 42l82 154q44 -30 86 -30q33 0 53.5 20t20.5 55v426h202v-429q0 -125 -69 -187.5t-189 -62.5q-116 0 -186 54z" />
    <glyph glyph-name="ij" unicode="&#x133;" horiz-adv-x="560" 
d="M140 518q-42 0 -71.5 29.5t-29.5 71.5t29.5 71.5t71.5 29.5t71.5 -29.5t29.5 -71.5t-29.5 -71.5t-71.5 -29.5zM420 518q-42 0 -71.5 29.5t-29.5 71.5t29.5 71.5t71.5 29.5t71.5 -29.5t29.5 -71.5t-29.5 -71.5t-71.5 -29.5zM50 0v483h180v-483h-180zM510 483v-462
q0 -98 -50 -157.5t-151 -59.5q-36 0 -56 4v145q10 -2 24 -2q53 0 53 70v462h180z" />
    <glyph glyph-name="Jcircumflex" unicode="&#x134;" horiz-adv-x="498" 
d="M409 723l-64 73l-61 -73h-105l88 144h156l91 -144h-105zM0 42l82 154q44 -30 86 -30q33 0 53.5 20t20.5 55v426h202v-429q0 -125 -69 -187.5t-189 -62.5q-116 0 -186 54z" />
    <glyph glyph-name="jcircumflex" unicode="&#x135;" horiz-adv-x="280" 
d="M204 556l-64 73l-61 -73h-105l88 144h156l91 -144h-105zM-27 -192v145q10 -2 24 -2q53 0 53 70v462h180v-462q0 -98 -50 -157.5t-151 -59.5q-36 0 -56 4z" />
    <glyph glyph-name="uni0136" unicode="&#x136;" horiz-adv-x="671" 
d="M443 0l-150 235l-37 -50v-185h-202v667h202v-250l175 250h247l-252 -310l263 -357h-246zM337 -304l-55 44q19 9 40.5 30.5t27.5 42.5q-4 -3 -19 -3q-28 0 -46.5 19t-18.5 50q0 33 23 56t55 23q36 0 61.5 -26t25.5 -71q0 -99 -94 -165z" />
    <glyph glyph-name="uni0137" unicode="&#x137;" horiz-adv-x="557" 
d="M348 0l-83 156l-35 -47v-109h-180v667h180v-356l111 172h217l-166 -220l177 -263h-221zM270 -304l-55 44q19 9 40.5 30.5t27.5 42.5q-5 -3 -19 -3q-28 0 -46.5 19t-18.5 50q0 33 23 56t55 23q36 0 61.5 -26t25.5 -71q0 -99 -94 -165z" />
    <glyph glyph-name="kgreenlandic" unicode="&#x138;" horiz-adv-x="557" 
d="M348 0l-83 156l-35 -47v-109h-180v483h180v-172l111 172h217l-166 -220l177 -263h-221z" />
    <glyph glyph-name="Lacute" unicode="&#x139;" horiz-adv-x="536" 
d="M338 723h-120l120 144h155zM54 0v667h202v-491h253v-176h-455z" />
    <glyph glyph-name="lacute" unicode="&#x13a;" horiz-adv-x="280" 
d="M196 723h-120l120 144h155zM50 0v667h180v-667h-180z" />
    <glyph glyph-name="uni013B" unicode="&#x13b;" horiz-adv-x="536" 
d="M54 0v667h202v-491h253v-176h-455zM275 -304l-55 44q19 9 40.5 30.5t27.5 42.5q-4 -3 -19 -3q-28 0 -46.5 19t-18.5 50q0 33 23 56t55 23q36 0 61.5 -26t25.5 -71q0 -99 -94 -165z" />
    <glyph glyph-name="uni013C" unicode="&#x13c;" horiz-adv-x="280" 
d="M50 0v667h180v-667h-180zM133 -304l-55 44q19 9 40.5 30.5t27.5 42.5q-5 -3 -19 -3q-28 0 -46.5 19t-18.5 50q0 33 23 56t55 23q36 0 61.5 -26t25.5 -71q0 -99 -94 -165z" />
    <glyph glyph-name="Lcaron" unicode="&#x13d;" horiz-adv-x="536" 
d="M392 419l-55 44q19 9 40.5 30.5t27.5 42.5q-5 -3 -19 -3q-28 0 -46.5 19t-18.5 50q0 33 23 56t55 23q36 0 61.5 -26t25.5 -71q0 -99 -94 -165zM54 0v667h202v-491h253v-176h-455z" />
    <glyph glyph-name="lcaron" unicode="&#x13e;" horiz-adv-x="418" 
d="M332 422l-55 44q19 9 40.5 30.5t27.5 42.5q-5 -3 -19 -3q-28 0 -46.5 19t-18.5 50q0 33 23 56t55 23q36 0 61.5 -26t25.5 -71q0 -99 -94 -165zM50 0v667h180v-667h-180z" />
    <glyph glyph-name="Ldot" unicode="&#x13f;" horiz-adv-x="599" 
d="M54 0v667h202v-491h253v-176h-455zM457 236q-43 0 -74.5 31.5t-31.5 74.5q0 44 31.5 75.5t74.5 31.5t74.5 -31.5t31.5 -75.5q0 -43 -31.5 -74.5t-74.5 -31.5z" />
    <glyph glyph-name="ldot" unicode="&#x140;" horiz-adv-x="462" 
d="M50 0v667h180v-667h-180zM371 138q-43 0 -74.5 31.5t-31.5 74.5q0 44 31.5 75.5t74.5 31.5t74.5 -31.5t31.5 -75.5q0 -43 -31.5 -74.5t-74.5 -31.5z" />
    <glyph glyph-name="Lslash" unicode="&#x141;" horiz-adv-x="545" 
d="M265 176h253v-176h-455v195l-56 -32v160l56 32v312h202v-195l56 32v-161l-56 -32v-135z" />
    <glyph glyph-name="lslash" unicode="&#x142;" horiz-adv-x="330" 
d="M323 488v-125l-68 -39v-324h-180v219l-68 -39v126l68 39v322h180v-218z" />
    <glyph glyph-name="Nacute" unicode="&#x143;" horiz-adv-x="750" 
d="M431 723h-120l120 144h155zM502 0l-246 358v-358h-202v667h208l232 -336v336h202v-667h-194z" />
    <glyph glyph-name="nacute" unicode="&#x144;" horiz-adv-x="607" 
d="M359 556h-120l120 144h155zM377 0v267q0 69 -70 69q-43 0 -77 -38v-298h-180v483h180v-55q59 67 166 67q80 0 120.5 -42.5t40.5 -109.5v-343h-180z" />
    <glyph glyph-name="uni0145" unicode="&#x145;" horiz-adv-x="750" 
d="M502 0l-246 358v-358h-202v667h208l232 -336v336h202v-667h-194zM368 -304l-55 44q19 9 40.5 30.5t27.5 42.5q-5 -3 -19 -3q-28 0 -46.5 19t-18.5 50q0 33 23 56t55 23q36 0 61.5 -26t25.5 -71q0 -99 -94 -165z" />
    <glyph glyph-name="uni0146" unicode="&#x146;" horiz-adv-x="607" 
d="M377 0v267q0 69 -70 69q-43 0 -77 -38v-298h-180v483h180v-55q59 67 166 67q80 0 120.5 -42.5t40.5 -109.5v-343h-180zM296 -304l-55 44q19 9 40.5 30.5t27.5 42.5q-5 -3 -19 -3q-28 0 -46.5 19t-18.5 50q0 33 23 56t55 23q36 0 61.5 -26t25.5 -71q0 -99 -94 -165z" />
    <glyph glyph-name="Ncaron" unicode="&#x147;" horiz-adv-x="750" 
d="M297 723l-91 144h105l64 -73l61 73h105l-88 -144h-156zM502 0l-246 358v-358h-202v667h208l232 -336v336h202v-667h-194z" />
    <glyph glyph-name="ncaron" unicode="&#x148;" horiz-adv-x="607" 
d="M225 556l-91 144h105l64 -73l61 73h105l-88 -144h-156zM377 0v267q0 69 -70 69q-43 0 -77 -38v-298h-180v483h180v-55q59 67 166 67q80 0 120.5 -42.5t40.5 -109.5v-343h-180z" />
    <glyph glyph-name="napostrophe" unicode="&#x149;" horiz-adv-x="607" 
d="M96 523l-55 44q19 9 40.5 30.5t27.5 42.5q-5 -3 -19 -3q-28 0 -46.5 19t-18.5 50q0 33 23 56t55 23q36 0 61.5 -26t25.5 -71q0 -99 -94 -165zM377 0v267q0 69 -70 69q-43 0 -77 -38v-298h-180v483h180v-55q59 67 166 67q80 0 120.5 -42.5t40.5 -109.5v-343h-180z" />
    <glyph glyph-name="Eng" unicode="&#x14a;" horiz-adv-x="750" 
d="M494 667h202v-613q0 -125 -69 -187.5t-189 -62.5q-116 0 -186 54l82 154q44 -30 86 -30q48 0 67 39l-231 317v-338h-202v667h208l232 -316v316z" />
    <glyph glyph-name="eng" unicode="&#x14b;" horiz-adv-x="607" 
d="M557 21q0 -98 -50 -157.5t-151 -59.5q-36 0 -56 4v145q10 -2 24 -2q53 0 53 70v246q0 69 -70 69q-43 0 -77 -38v-298h-180v483h180v-55q59 67 166 67q80 0 120.5 -42.5t40.5 -109.5v-322z" />
    <glyph glyph-name="Omacron" unicode="&#x14c;" horiz-adv-x="766" 
d="M201 718v97h363v-97h-363zM18 333q0 152 104.5 248.5t260.5 96.5t260.5 -96.5t104.5 -248.5t-104.5 -248.5t-260.5 -96.5t-260.5 96.5t-104.5 248.5zM543 333q0 71 -44.5 119t-115.5 48t-115.5 -48t-44.5 -119t44.5 -119t115.5 -48t115.5 48t44.5 119z" />
    <glyph glyph-name="omacron" unicode="&#x14d;" horiz-adv-x="577" 
d="M106 551v97h363v-97h-363zM288 -12q-124 0 -197.5 74t-73.5 180t73.5 179.5t197.5 73.5t198 -73.5t74 -179.5t-74 -180t-198 -74zM288 147q41 0 64 26.5t23 68.5q0 41 -23 67.5t-64 26.5q-40 0 -63 -26.5t-23 -67.5q0 -42 23 -68.5t63 -26.5z" />
    <glyph glyph-name="Obreve" unicode="&#x14e;" horiz-adv-x="766" 
d="M383 717q-109 0 -176 88l76 62q38 -53 100 -53q63 0 100 53l75 -62q-65 -88 -175 -88zM18 333q0 152 104.5 248.5t260.5 96.5t260.5 -96.5t104.5 -248.5t-104.5 -248.5t-260.5 -96.5t-260.5 96.5t-104.5 248.5zM543 333q0 71 -44.5 119t-115.5 48t-115.5 -48t-44.5 -119
t44.5 -119t115.5 -48t115.5 48t44.5 119z" />
    <glyph glyph-name="obreve" unicode="&#x14f;" horiz-adv-x="577" 
d="M288 550q-109 0 -176 88l76 62q38 -53 100 -53q63 0 100 53l75 -62q-65 -88 -175 -88zM288 -12q-124 0 -197.5 74t-73.5 180t73.5 179.5t197.5 73.5t198 -73.5t74 -179.5t-74 -180t-198 -74zM288 147q41 0 64 26.5t23 68.5q0 41 -23 67.5t-64 26.5q-40 0 -63 -26.5
t-23 -67.5q0 -42 23 -68.5t63 -26.5z" />
    <glyph glyph-name="Ohungarumlaut" unicode="&#x150;" horiz-adv-x="766" 
d="M354 723h-100l80 144h135zM510 723h-100l80 144h135zM18 333q0 152 104.5 248.5t260.5 96.5t260.5 -96.5t104.5 -248.5t-104.5 -248.5t-260.5 -96.5t-260.5 96.5t-104.5 248.5zM543 333q0 71 -44.5 119t-115.5 48t-115.5 -48t-44.5 -119t44.5 -119t115.5 -48t115.5 48
t44.5 119z" />
    <glyph glyph-name="ohungarumlaut" unicode="&#x151;" horiz-adv-x="577" 
d="M259 556h-100l80 144h135zM415 556h-100l80 144h135zM288 -12q-124 0 -197.5 74t-73.5 180t73.5 179.5t197.5 73.5t198 -73.5t74 -179.5t-74 -180t-198 -74zM288 147q41 0 64 26.5t23 68.5q0 41 -23 67.5t-64 26.5q-40 0 -63 -26.5t-23 -67.5q0 -42 23 -68.5t63 -26.5z
" />
    <glyph glyph-name="OE" unicode="&#x152;" horiz-adv-x="1062" 
d="M526 0v36q-61 -48 -166 -48q-148 0 -245 96t-97 249t97 248.5t245 95.5q106 0 166 -46v36h506v-168h-304v-78h297v-168h-297v-85h304v-168h-506zM526 430q-40 69 -135 69q-77 0 -122.5 -47t-45.5 -119t45.5 -119.5t122.5 -47.5q44 0 80 19t55 52v193z" />
    <glyph glyph-name="oe" unicode="&#x153;" horiz-adv-x="901" 
d="M561 186q30 -62 109 -62q61 0 102 34l78 -110q-34 -29 -91 -44.5t-115 -15.5q-60 0 -100 20t-79 56q-76 -76 -177 -76q-124 0 -197.5 74t-73.5 180t73.5 179.5t197.5 73.5q95 0 178 -77q73 77 172 77q109 0 180 -73.5t71 -198.5v-37h-328zM718 300q-14 59 -80 59
q-64 0 -79 -59h159zM288 336q-38 0 -62 -24.5t-24 -69.5q0 -46 24 -71t62 -25t62.5 25t24.5 71t-24.5 70t-62.5 24z" />
    <glyph glyph-name="Racute" unicode="&#x154;" horiz-adv-x="678" 
d="M400 723h-120l120 144h155zM421 0l-92 214h-73v-214h-202v667h356q113 0 176.5 -65.5t63.5 -163.5q0 -78 -35.5 -128t-84.5 -74l121 -236h-230zM445 441q0 26 -19.5 42t-46.5 16h-123v-117h123q27 0 46.5 16t19.5 43z" />
    <glyph glyph-name="racute" unicode="&#x155;" horiz-adv-x="390" 
d="M271 556h-120l120 144h155zM50 0v483h180v-55q23 27 65.5 47t82.5 20v-172q-15 5 -41 5q-79 0 -107 -34v-294h-180z" />
    <glyph glyph-name="uni0156" unicode="&#x156;" horiz-adv-x="678" 
d="M421 0l-92 214h-73v-214h-202v667h356q113 0 176.5 -65.5t63.5 -163.5q0 -78 -35.5 -128t-84.5 -74l121 -236h-230zM445 441q0 26 -19.5 42t-46.5 16h-123v-117h123q27 0 46.5 16t19.5 43zM337 -304l-55 44q19 9 40.5 30.5t27.5 42.5q-4 -3 -19 -3q-28 0 -46.5 19
t-18.5 50q0 33 23 56t55 23q36 0 61.5 -26t25.5 -71q0 -99 -94 -165z" />
    <glyph glyph-name="uni0157" unicode="&#x157;" horiz-adv-x="390" 
d="M50 0v483h180v-55q23 27 65.5 47t82.5 20v-172q-15 5 -41 5q-79 0 -107 -34v-294h-180zM136 -304l-55 44q19 9 40.5 30.5t27.5 42.5q-5 -3 -19 -3q-28 0 -46.5 19t-18.5 50q0 33 23 56t55 23q36 0 61.5 -26t25.5 -71q0 -99 -94 -165z" />
    <glyph glyph-name="Rcaron" unicode="&#x158;" horiz-adv-x="678" 
d="M266 723l-91 144h105l64 -73l61 73h105l-88 -144h-156zM421 0l-92 214h-73v-214h-202v667h356q113 0 176.5 -65.5t63.5 -163.5q0 -78 -35.5 -128t-84.5 -74l121 -236h-230zM445 441q0 26 -19.5 42t-46.5 16h-123v-117h123q27 0 46.5 16t19.5 43z" />
    <glyph glyph-name="rcaron" unicode="&#x159;" horiz-adv-x="390" 
d="M137 556l-91 144h105l64 -73l61 73h105l-88 -144h-156zM50 0v483h180v-55q23 27 65.5 47t82.5 20v-172q-15 5 -41 5q-79 0 -107 -34v-294h-180z" />
    <glyph glyph-name="Sacute" unicode="&#x15a;" horiz-adv-x="613" 
d="M358 723h-120l120 144h155zM3 94l105 150q90 -86 215 -86q31 0 52.5 10.5t21.5 28.5q0 19 -21.5 30.5t-72.5 20.5q-123 22 -174 48q-104 53 -104 165q0 90 73 153t204 63q169 0 283 -93l-108 -143q-42 32 -93 49t-93 17q-61 0 -61 -35q0 -19 21 -28.5t77 -18.5
q44 -8 72 -14t70.5 -22t67.5 -36t44 -54.5t19 -78.5q0 -110 -76.5 -171t-211.5 -61q-192 0 -310 106z" />
    <glyph glyph-name="sacute" unicode="&#x15b;" horiz-adv-x="490" 
d="M301 556h-120l120 144h155zM9 62l72 121q29 -23 82 -42t92 -19q48 0 48 23q0 11 -15.5 17t-52.5 11q-26 3 -37.5 5t-38 8t-40.5 12.5t-34 18.5t-30 26.5t-18 37t-8 49.5q0 69 57.5 117t158.5 48q115 0 209 -62l-66 -117q-25 20 -63.5 35t-78.5 15q-45 0 -45 -21
q0 -10 13 -16t49 -11q26 -4 38 -6t39 -8t41.5 -13t35 -19.5t31.5 -28t19 -38.5t8 -51q0 -73 -62 -119.5t-167 -46.5q-66 0 -132 20.5t-105 53.5z" />
    <glyph glyph-name="Scircumflex" unicode="&#x15c;" horiz-adv-x="613" 
d="M366 723l-64 73l-61 -73h-105l88 144h156l91 -144h-105zM3 94l105 150q90 -86 215 -86q31 0 52.5 10.5t21.5 28.5q0 19 -21.5 30.5t-72.5 20.5q-123 22 -174 48q-104 53 -104 165q0 90 73 153t204 63q169 0 283 -93l-108 -143q-42 32 -93 49t-93 17q-61 0 -61 -35
q0 -19 21 -28.5t77 -18.5q44 -8 72 -14t70.5 -22t67.5 -36t44 -54.5t19 -78.5q0 -110 -76.5 -171t-211.5 -61q-192 0 -310 106z" />
    <glyph glyph-name="scircumflex" unicode="&#x15d;" horiz-adv-x="490" 
d="M309 556l-64 73l-61 -73h-105l88 144h156l91 -144h-105zM9 62l72 121q29 -23 82 -42t92 -19q48 0 48 23q0 11 -15.5 17t-52.5 11q-26 3 -37.5 5t-38 8t-40.5 12.5t-34 18.5t-30 26.5t-18 37t-8 49.5q0 69 57.5 117t158.5 48q115 0 209 -62l-66 -117q-25 20 -63.5 35
t-78.5 15q-45 0 -45 -21q0 -10 13 -16t49 -11q26 -4 38 -6t39 -8t41.5 -13t35 -19.5t31.5 -28t19 -38.5t8 -51q0 -73 -62 -119.5t-167 -46.5q-66 0 -132 20.5t-105 53.5z" />
    <glyph glyph-name="uni015E" unicode="&#x15e;" horiz-adv-x="613" 
d="M601 220q0 -106 -71 -166.5t-198 -65.5l-15 -35q15 9 34 9q28 0 48 -20.5t20 -52.5q0 -41 -34 -65t-84 -24q-77 0 -119 34l31 64q43 -30 83 -30q42 0 42 24q0 17 -21 17q-16 0 -26 -12l-59 34l22 60q-152 14 -251 103l105 150q90 -86 215 -86q31 0 52.5 10.5t21.5 28.5
q0 19 -21.5 30.5t-72.5 20.5q-123 22 -174 48q-104 53 -104 165q0 90 73 153t204 63q169 0 283 -93l-108 -143q-42 32 -93 49t-93 17q-61 0 -61 -35q0 -19 21 -28.5t77 -18.5q44 -8 72 -14t70.5 -22t67.5 -36t44 -54.5t19 -78.5z" />
    <glyph glyph-name="uni015F" unicode="&#x15f;" horiz-adv-x="490" 
d="M475 154q0 -68 -53.5 -113t-145.5 -52l-16 -36q15 9 34 9q28 0 48 -20.5t20 -52.5q0 -41 -34 -65t-84 -24q-77 0 -119 34l31 64q43 -30 83 -30q42 0 42 24q0 17 -21 17q-16 0 -26 -12l-59 34l22 60q-119 15 -188 71l72 121q29 -23 82 -42t92 -19q48 0 48 23
q0 11 -15.5 17t-52.5 11q-26 3 -37.5 5t-38 8t-40.5 12.5t-34 18.5t-30 26.5t-18 37t-8 49.5q0 69 57.5 117t158.5 48q115 0 209 -62l-66 -117q-25 20 -63.5 35t-78.5 15q-45 0 -45 -21q0 -10 13 -16t49 -11q26 -4 38 -6t39 -8t41.5 -13t35 -19.5t31.5 -28t19 -38.5t8 -51z
" />
    <glyph glyph-name="Scaron" unicode="&#x160;" horiz-adv-x="613" 
d="M224 723l-91 144h105l64 -73l61 73h105l-88 -144h-156zM3 94l105 150q90 -86 215 -86q31 0 52.5 10.5t21.5 28.5q0 19 -21.5 30.5t-72.5 20.5q-123 22 -174 48q-104 53 -104 165q0 90 73 153t204 63q169 0 283 -93l-108 -143q-42 32 -93 49t-93 17q-61 0 -61 -35
q0 -19 21 -28.5t77 -18.5q44 -8 72 -14t70.5 -22t67.5 -36t44 -54.5t19 -78.5q0 -110 -76.5 -171t-211.5 -61q-192 0 -310 106z" />
    <glyph glyph-name="scaron" unicode="&#x161;" horiz-adv-x="490" 
d="M167 556l-91 144h105l64 -73l61 73h105l-88 -144h-156zM9 62l72 121q29 -23 82 -42t92 -19q48 0 48 23q0 11 -15.5 17t-52.5 11q-26 3 -37.5 5t-38 8t-40.5 12.5t-34 18.5t-30 26.5t-18 37t-8 49.5q0 69 57.5 117t158.5 48q115 0 209 -62l-66 -117q-25 20 -63.5 35
t-78.5 15q-45 0 -45 -21q0 -10 13 -16t49 -11q26 -4 38 -6t39 -8t41.5 -13t35 -19.5t31.5 -28t19 -38.5t8 -51q0 -73 -62 -119.5t-167 -46.5q-66 0 -132 20.5t-105 53.5z" />
    <glyph glyph-name="uni0162" unicode="&#x162;" horiz-adv-x="595" 
d="M197 0v491h-179v176h559v-176h-178v-491h-202zM291 -304l-55 44q19 9 40.5 30.5t27.5 42.5q-5 -3 -19 -3q-28 0 -46.5 19t-18.5 50q0 33 23 56t55 23q36 0 61.5 -26t25.5 -71q0 -99 -94 -165z" />
    <glyph glyph-name="uni0163" unicode="&#x163;" horiz-adv-x="382" 
d="M253 -12q-81 0 -123.5 38.5t-42.5 113.5v187h-80v156h80v132h180v-132h98v-156h-98v-135q0 -19 11 -32t29 -13q27 0 36 9l32 -136q-36 -32 -122 -32zM182 -304l-55 44q19 9 40.5 30.5t27.5 42.5q-5 -3 -19 -3q-28 0 -46.5 19t-18.5 50q0 33 23 56t55 23q36 0 61.5 -26
t25.5 -71q0 -99 -94 -165z" />
    <glyph glyph-name="Tcaron" unicode="&#x164;" horiz-adv-x="595" 
d="M220 723l-91 144h105l64 -73l61 73h105l-88 -144h-156zM197 0v491h-179v176h559v-176h-178v-491h-202z" />
    <glyph glyph-name="tcaron" unicode="&#x165;" horiz-adv-x="447" 
d="M384 523l-55 44q19 9 40.5 30.5t27.5 42.5q-5 -3 -19 -3q-28 0 -46.5 19t-18.5 50q0 33 23 56t55 23q36 0 61.5 -26t25.5 -71q0 -99 -94 -165zM253 -12q-81 0 -123.5 38.5t-42.5 113.5v187h-80v156h80v132h180v-132h98v-156h-98v-135q0 -19 11 -32t29 -13q27 0 36 9
l32 -136q-36 -32 -122 -32z" />
    <glyph glyph-name="Tbar" unicode="&#x166;" horiz-adv-x="595" 
d="M577 491h-178v-163h118v-97h-118v-231h-202v231h-116v97h116v163h-179v176h559v-176z" />
    <glyph glyph-name="tbar" unicode="&#x167;" horiz-adv-x="382" 
d="M343 156l32 -136q-36 -32 -122 -32q-81 0 -123.5 38.5t-42.5 113.5v51h-80v97h80v39h-80v156h80v132h180v-132h98v-156h-98v-39h67v-97h-67q0 -19 11 -31.5t29 -12.5q27 0 36 9z" />
    <glyph glyph-name="Utilde" unicode="&#x168;" horiz-adv-x="749" 
d="M350 749q-23 15 -32 15q-24 0 -24 -37h-89q0 134 118 134q36 0 78 -28q22 -15 32 -15q24 0 24 37h89q0 -134 -118 -134q-36 0 -78 28zM54 274v393h205v-386q0 -52 28.5 -83.5t87.5 -31.5q58 0 86.5 32t28.5 83v386h205v-392q0 -131 -79 -209t-241 -78t-241.5 77.5
t-79.5 208.5z" />
    <glyph glyph-name="utilde" unicode="&#x169;" horiz-adv-x="606" 
d="M278 582q-23 15 -32 15q-24 0 -24 -37h-89q0 134 118 134q36 0 78 -28q22 -15 32 -15q24 0 24 37h89q0 -134 -118 -134q-36 0 -78 28zM376 0v54q-60 -66 -166 -66q-80 0 -120 42t-40 108v345h180v-268q0 -68 70 -68q42 0 76 38v298h180v-483h-180z" />
    <glyph glyph-name="Umacron" unicode="&#x16a;" horiz-adv-x="749" 
d="M193 718v97h363v-97h-363zM54 274v393h205v-386q0 -52 28.5 -83.5t87.5 -31.5q58 0 86.5 32t28.5 83v386h205v-392q0 -131 -79 -209t-241 -78t-241.5 77.5t-79.5 208.5z" />
    <glyph glyph-name="umacron" unicode="&#x16b;" horiz-adv-x="606" 
d="M121 551v97h363v-97h-363zM376 0v54q-60 -66 -166 -66q-80 0 -120 42t-40 108v345h180v-268q0 -68 70 -68q42 0 76 38v298h180v-483h-180z" />
    <glyph glyph-name="Ubreve" unicode="&#x16c;" horiz-adv-x="749" 
d="M375 717q-109 0 -176 88l76 62q38 -53 100 -53q63 0 100 53l75 -62q-65 -88 -175 -88zM54 274v393h205v-386q0 -52 28.5 -83.5t87.5 -31.5q58 0 86.5 32t28.5 83v386h205v-392q0 -131 -79 -209t-241 -78t-241.5 77.5t-79.5 208.5z" />
    <glyph glyph-name="ubreve" unicode="&#x16d;" horiz-adv-x="606" 
d="M303 550q-109 0 -176 88l76 62q38 -53 100 -53q63 0 100 53l75 -62q-65 -88 -175 -88zM376 0v54q-60 -66 -166 -66q-80 0 -120 42t-40 108v345h180v-268q0 -68 70 -68q42 0 76 38v298h180v-483h-180z" />
    <glyph glyph-name="Uring" unicode="&#x16e;" horiz-adv-x="749" 
d="M264 798q0 46 33 79t79 33t78 -33t32 -79t-32 -79t-78 -33t-79 33t-33 79zM410 798q0 14 -10 24.5t-24 10.5t-24.5 -10.5t-10.5 -24.5t10.5 -24.5t24.5 -10.5t24 10.5t10 24.5zM54 274v393h205v-386q0 -52 28.5 -83.5t87.5 -31.5q58 0 86.5 32t28.5 83v386h205v-392
q0 -131 -79 -209t-241 -78t-241.5 77.5t-79.5 208.5z" />
    <glyph glyph-name="uring" unicode="&#x16f;" horiz-adv-x="606" 
d="M192 631q0 46 33 79t79 33t78 -33t32 -79t-32 -79t-78 -33t-79 33t-33 79zM338 631q0 14 -10 24.5t-24 10.5t-24.5 -10.5t-10.5 -24.5t10.5 -24.5t24.5 -10.5t24 10.5t10 24.5zM376 0v54q-60 -66 -166 -66q-80 0 -120 42t-40 108v345h180v-268q0 -68 70 -68q42 0 76 38
v298h180v-483h-180z" />
    <glyph glyph-name="Uhungarumlaut" unicode="&#x170;" horiz-adv-x="749" 
d="M346 723h-100l80 144h135zM502 723h-100l80 144h135zM54 274v393h205v-386q0 -52 28.5 -83.5t87.5 -31.5q58 0 86.5 32t28.5 83v386h205v-392q0 -131 -79 -209t-241 -78t-241.5 77.5t-79.5 208.5z" />
    <glyph glyph-name="uhungarumlaut" unicode="&#x171;" horiz-adv-x="606" 
d="M274 556h-100l80 144h135zM430 556h-100l80 144h135zM376 0v54q-60 -66 -166 -66q-80 0 -120 42t-40 108v345h180v-268q0 -68 70 -68q42 0 76 38v298h180v-483h-180z" />
    <glyph glyph-name="Uogonek" unicode="&#x172;" horiz-adv-x="749" 
d="M54 274v393h205v-386q0 -52 28.5 -83.5t87.5 -31.5q58 0 86.5 32t28.5 83v386h205v-392q0 -193 -151 -257q-52 -22 -70.5 -39t-18.5 -37q0 -13 9.5 -21t23.5 -8q12 0 24 5l27 -84q-41 -20 -107 -20q-32 0 -59.5 7t-50 28t-22.5 53q0 56 78 86h-3q-162 0 -241.5 77.5
t-79.5 208.5z" />
    <glyph glyph-name="uogonek" unicode="&#x173;" horiz-adv-x="606" 
d="M556 0q-43 -4 -65 -20t-22 -38q0 -13 9.5 -21t23.5 -8q12 0 24 5l27 -84q-41 -20 -107 -20q-32 0 -59.5 7t-50 28t-22.5 53q0 63 112 98h-50v54q-60 -66 -166 -66q-80 0 -120 42t-40 108v345h180v-268q0 -68 70 -68q42 0 76 38v298h180v-483z" />
    <glyph glyph-name="Wcircumflex" unicode="&#x174;" horiz-adv-x="954" 
d="M541 723l-64 73l-61 -73h-105l88 144h156l91 -144h-105zM563 0l-86 378l-86 -378h-212l-191 667h226l86 -408l101 408h152l101 -408l85 408h227l-191 -667h-212z" />
    <glyph glyph-name="wcircumflex" unicode="&#x175;" horiz-adv-x="805" 
d="M466 556l-64 73l-61 -73h-105l88 144h156l91 -144h-105zM481 0l-79 270l-78 -270h-196l-140 483h185l64 -266l85 266h161l84 -266l64 266h186l-140 -483h-196z" />
    <glyph glyph-name="Ycircumflex" unicode="&#x176;" horiz-adv-x="664" 
d="M396 723l-64 73l-61 -73h-105l88 144h156l91 -144h-105zM232 0v265l-250 402h227l124 -225l122 225h227l-248 -402v-265h-202z" />
    <glyph glyph-name="ycircumflex" unicode="&#x177;" horiz-adv-x="535" 
d="M331 556l-64 73l-61 -73h-105l88 144h156l91 -144h-105zM70 -28q16 -9 38 -9q54 0 63 19l4 10l-190 491h190l92 -276l93 276h190l-210 -543q-30 -78 -84 -105.5t-141 -30.5q-43 0 -70 8z" />
    <glyph glyph-name="Ydieresis" unicode="&#x178;" horiz-adv-x="664" 
d="M224 696q-38 0 -63.5 26t-25.5 63t25.5 63t63.5 26t63.5 -26t25.5 -63t-25.5 -63t-63.5 -26zM440 696q-37 0 -63 26t-26 63t26 63t63 26q38 0 64 -26t26 -63t-26 -63t-64 -26zM232 0v265l-250 402h227l124 -225l122 225h227l-248 -402v-265h-202z" />
    <glyph glyph-name="Zacute" unicode="&#x179;" horiz-adv-x="600" 
d="M356 723h-120l120 144h155zM36 0v160l254 331h-254v176h521v-159l-255 -332h262v-176h-528z" />
    <glyph glyph-name="zacute" unicode="&#x17a;" horiz-adv-x="486" 
d="M299 556h-120l120 144h155zM33 0v132l170 195h-170v156h416v-126l-174 -201h178v-156h-420z" />
    <glyph glyph-name="Zdotaccent" unicode="&#x17b;" horiz-adv-x="600" 
d="M211 786q0 37 26 63t63 26q36 0 62 -26t26 -63t-26 -63t-62 -26q-37 0 -63 26t-26 63zM36 0v160l254 331h-254v176h521v-159l-255 -332h262v-176h-528z" />
    <glyph glyph-name="zdotaccent" unicode="&#x17c;" horiz-adv-x="486" 
d="M154 619q0 37 26 63t63 26q36 0 62 -26t26 -63t-26 -63t-62 -26q-37 0 -63 26t-26 63zM33 0v132l170 195h-170v156h416v-126l-174 -201h178v-156h-420z" />
    <glyph glyph-name="Zcaron" unicode="&#x17d;" horiz-adv-x="600" 
d="M222 723l-91 144h105l64 -73l61 73h105l-88 -144h-156zM36 0v160l254 331h-254v176h521v-159l-255 -332h262v-176h-528z" />
    <glyph glyph-name="zcaron" unicode="&#x17e;" horiz-adv-x="486" 
d="M165 556l-91 144h105l64 -73l61 73h105l-88 -144h-156zM33 0v132l170 195h-170v156h416v-126l-174 -201h178v-156h-420z" />
    <glyph glyph-name="longs" unicode="&#x17f;" horiz-adv-x="371" 
d="M87 0v327h-80v156h80v22q0 75 52 123.5t132 48.5q67 0 112 -24l-32 -120q-17 11 -38 11t-33.5 -12t-12.5 -33v-499h-180z" />
    <glyph glyph-name="uni018F" unicode="&#x18f;" horiz-adv-x="741" 
d="M356 678q156 0 261.5 -94.5t105.5 -250.5q0 -154 -102.5 -249.5t-244.5 -95.5q-169 0 -266.5 106.5t-97.5 302.5h495q-18 47 -57.5 75t-93.5 28q-42 0 -74.5 -24.5t-48.5 -58.5l-170 87q36 74 109.5 124t183.5 50zM361 164q94 0 136 77h-263q11 -35 45.5 -56t81.5 -21z
" />
    <glyph glyph-name="uni0192" unicode="&#x192;" horiz-adv-x="477" 
d="M-10 -161l85 384h-40v156h74l28 127q16 75 79 123t143 48q95 0 141 -49l-71 -147q-15 20 -43 20q-18 0 -32.5 -11t-19.5 -31l-18 -80h87v-156h-121l-86 -384h-206z" />
    <glyph glyph-name="uni019D" unicode="&#x19d;" horiz-adv-x="750" 
d="M494 667h202v-667h-194l-246 358v-304q0 -125 -69 -187.5t-189 -62.5q-53 0 -93 11l32 165q20 -8 43 -8q33 0 53.5 20t20.5 55v620h208l232 -336v336z" />
    <glyph glyph-name="Ohorn" unicode="&#x1a0;" horiz-adv-x="766" 
d="M765 667q0 -82 -75 -139q58 -85 58 -195q0 -152 -104.5 -248.5t-260.5 -96.5t-260.5 96.5t-104.5 248.5t104.5 248.5t260.5 96.5q165 0 270 -105q31 24 42 52q-5 -3 -17 -3q-24 0 -40.5 17t-16.5 44q0 28 20 48.5t48 20.5q32 0 54 -23t22 -62zM383 166q71 0 115.5 48
t44.5 119t-44.5 119t-115.5 48t-115.5 -48t-44.5 -119t44.5 -119t115.5 -48z" />
    <glyph glyph-name="ohorn" unicode="&#x1a1;" horiz-adv-x="577" 
d="M577 534q0 -79 -70 -135q53 -69 53 -157q0 -106 -74 -180t-198 -74t-197.5 74t-73.5 180t73.5 179.5t197.5 73.5q104 0 177 -55q31 24 42 52q-5 -3 -17 -3q-24 0 -40.5 17t-16.5 44q0 28 20 48.5t48 20.5q32 0 54 -23t22 -62zM288 147q41 0 64 26.5t23 68.5
q0 41 -23 67.5t-64 26.5q-40 0 -63 -26.5t-23 -67.5q0 -42 23 -68.5t63 -26.5z" />
    <glyph glyph-name="Uhorn" unicode="&#x1af;" horiz-adv-x="749" 
d="M799 725q0 -44 -26.5 -87.5t-77.5 -70.5v-292q0 -131 -79 -209t-241 -78t-241.5 77.5t-79.5 208.5v393h205v-386q0 -52 28.5 -83.5t87.5 -31.5q58 0 86.5 32t28.5 83v386h205v-30q25 22 34 46q-5 -3 -17 -3q-24 0 -40.5 17t-16.5 44q0 28 20 48.5t48 20.5q32 0 54 -23
t22 -62z" />
    <glyph glyph-name="uhorn" unicode="&#x1b0;" horiz-adv-x="606" 
d="M627 554q0 -81 -71 -136v-418h-180v54q-60 -66 -166 -66q-80 0 -120 42t-40 108v345h180v-268q0 -68 70 -68q42 0 76 38v298h163q14 16 18 29q-5 -3 -17 -3q-24 0 -40.5 17t-16.5 44q0 28 20 48.5t48 20.5q32 0 54 -23t22 -62z" />
    <glyph glyph-name="Gcaron" unicode="&#x1e6;" horiz-adv-x="726" 
d="M307 723l-91 144h105l64 -73l61 73h105l-88 -144h-156zM18 333q0 156 105.5 250.5t261.5 94.5q108 0 181 -46t112 -118l-170 -87q-17 32 -49.5 52.5t-73.5 20.5q-72 0 -117 -48t-45 -119t45 -119t117 -48q68 0 109 30v29h-129v166h325v-268q-122 -135 -305 -135
q-156 0 -261.5 94.5t-105.5 250.5z" />
    <glyph glyph-name="gcaron" unicode="&#x1e7;" horiz-adv-x="595" 
d="M223 556l-91 144h105l64 -73l61 73h105l-88 -144h-156zM33 -124l76 128q53 -53 144 -53q43 0 77.5 22.5t34.5 78.5v26q-57 -65 -136 -65q-93 0 -152.5 61.5t-59.5 179.5q0 116 59.5 178.5t152.5 62.5q83 0 136 -63v51h180v-431q0 -60 -19.5 -106t-48.5 -72t-69.5 -42.5
t-77.5 -22t-77 -5.5q-129 0 -220 72zM365 203v102q-12 14 -33.5 22.5t-40.5 8.5q-40 0 -65 -20t-25 -62t25 -62t65 -20q19 0 40.5 8.5t33.5 22.5z" />
    <glyph glyph-name="uni01EA" unicode="&#x1ea;" horiz-adv-x="766" 
d="M440 -8q-45 -16 -45 -50q0 -13 9.5 -21t23.5 -8q12 0 24 5l27 -84q-41 -20 -107 -20q-32 0 -59.5 7t-50 28t-22.5 53q0 57 88 89q-136 18 -223 111.5t-87 230.5q0 152 104.5 248.5t260.5 96.5t260.5 -96.5t104.5 -248.5q0 -137 -86 -230t-222 -111zM223 333
q0 -71 44.5 -119t115.5 -48t115.5 48t44.5 119t-44.5 119t-115.5 48t-115.5 -48t-44.5 -119z" />
    <glyph glyph-name="uni01EB" unicode="&#x1eb;" horiz-adv-x="577" 
d="M332 -9q-43 -16 -43 -49q0 -13 9.5 -21t23.5 -8q12 0 24 5l27 -84q-41 -20 -107 -20q-32 0 -59.5 7t-50 28t-22.5 53q0 58 93 91q-98 18 -154 88t-56 161q0 106 73.5 179.5t197.5 73.5t198 -73.5t74 -179.5q0 -96 -61.5 -167t-166.5 -84zM288 336q-40 0 -63 -26.5
t-23 -67.5q0 -42 23 -68.5t63 -26.5q41 0 64 26.5t23 68.5q0 41 -23 67.5t-64 26.5z" />
    <glyph glyph-name="Aringacute" unicode="&#x1fa;" horiz-adv-x="710" 
d="M411 935h-120l120 144h155zM244 798q0 46 33 79t79 33t78 -33t32 -79t-32 -79t-78 -33t-79 33t-33 79zM390 798q0 14 -10 24.5t-24 10.5t-24.5 -10.5t-10.5 -24.5t10.5 -24.5t24.5 -10.5t24 10.5t10 24.5zM509 0l-26 86h-256l-26 -86h-219l246 667h254l246 -667h-219z
M355 489l-76 -235h152z" />
    <glyph glyph-name="aringacute" unicode="&#x1fb;" horiz-adv-x="559" 
d="M333 768h-120l120 144h155zM166 631q0 46 33 79t79 33t78 -33t32 -79t-32 -79t-78 -33t-79 33t-33 79zM312 631q0 14 -10 24.5t-24 10.5t-24.5 -10.5t-10.5 -24.5t10.5 -24.5t24.5 -10.5t24 10.5t10 24.5zM329 0v46q-20 -26 -60.5 -42t-85.5 -16q-62 0 -114 41.5
t-52 117.5q0 43 15.5 73.5t41 46t52.5 22.5t57 7q104 0 146 -53v55q0 26 -23.5 43t-66.5 17q-72 0 -134 -47l-61 111q91 73 228 73q48 0 88 -9.5t75 -31t54.5 -63t19.5 -99.5v-292h-180zM329 131v27q-18 26 -71 26q-63 0 -63 -40q0 -39 63 -39q53 0 71 26z" />
    <glyph glyph-name="AEacute" unicode="&#x1fc;" horiz-adv-x="989" 
d="M608 723h-120l120 144h155zM453 0v86h-213l-45 -86h-220l395 667h589v-168h-304v-78h297v-168h-297v-85h304v-168h-506zM453 489l-123 -235h123v235z" />
    <glyph glyph-name="aeacute" unicode="&#x1fd;" horiz-adv-x="851" 
d="M483 556h-120l120 144h155zM520 186q27 -57 104 -57q59 0 98 34l78 -115q-34 -29 -89.5 -44.5t-107.5 -15.5q-106 0 -175 65q-77 -65 -198 -65q-94 0 -153.5 39t-59.5 117q0 77 48 117t121 40q47 0 89 -14t63 -38v49q0 26 -24.5 42.5t-69.5 16.5q-76 0 -139 -47l-61 112
q91 73 228 73q104 0 156 -59q66 59 170 59q102 0 171.5 -74t69.5 -198v-37h-319zM668 300q-14 58 -76 58q-59 0 -74 -58h150zM338 157q-21 27 -76 27q-27 0 -47 -9t-20 -26t17.5 -25.5t38.5 -8.5q35 0 61 12.5t26 26.5v3z" />
    <glyph glyph-name="Oslashacute" unicode="&#x1fe;" horiz-adv-x="766" 
d="M587 867l-155 -144h-120l120 144h155zM648 578q100 -98 100 -245q0 -152 -104.5 -248.5t-260.5 -96.5q-109 0 -196 49l-31 -37h-138l87 102q-87 93 -87 231q0 152 104.5 248.5t260.5 96.5q98 0 178 -40l25 29h138zM223 333q0 -41 15 -75l199 234q-27 8 -54 8
q-71 0 -115.5 -48t-44.5 -119zM383 166q71 0 115.5 48t44.5 119q0 50 -24 93l-208 -244q34 -16 72 -16z" />
    <glyph glyph-name="oslashacute" unicode="&#x1ff;" horiz-adv-x="577" 
d="M499 700l-155 -144h-120l120 144h155zM560 483l-65 -71q65 -71 65 -170q0 -106 -74 -180t-198 -74q-84 0 -147 36l-22 -24h-102l65 71q-65 71 -65 171q0 106 73.5 179.5t197.5 73.5q82 0 146 -35l21 23h105zM202 242q0 -20 4 -33l112 123q-18 4 -30 4q-40 0 -63 -26.5
t-23 -67.5zM375 242q0 16 -5 33l-112 -123q15 -5 30 -5q41 0 64 26.5t23 68.5z" />
    <glyph glyph-name="uni0218" unicode="&#x218;" horiz-adv-x="613" 
d="M3 94l105 150q90 -86 215 -86q31 0 52.5 10.5t21.5 28.5q0 19 -21.5 30.5t-72.5 20.5q-123 22 -174 48q-104 53 -104 165q0 90 73 153t204 63q169 0 283 -93l-108 -143q-42 32 -93 49t-93 17q-61 0 -61 -35q0 -19 21 -28.5t77 -18.5q44 -8 72 -14t70.5 -22t67.5 -36
t44 -54.5t19 -78.5q0 -110 -76.5 -171t-211.5 -61q-192 0 -310 106zM295 -304l-55 44q19 9 40.5 30.5t27.5 42.5q-4 -3 -19 -3q-28 0 -46.5 19t-18.5 50q0 33 23 56t55 23q36 0 61.5 -26t25.5 -71q0 -99 -94 -165z" />
    <glyph glyph-name="uni0219" unicode="&#x219;" horiz-adv-x="490" 
d="M9 62l72 121q29 -23 82 -42t92 -19q48 0 48 23q0 11 -15.5 17t-52.5 11q-26 3 -37.5 5t-38 8t-40.5 12.5t-34 18.5t-30 26.5t-18 37t-8 49.5q0 69 57.5 117t158.5 48q115 0 209 -62l-66 -117q-25 20 -63.5 35t-78.5 15q-45 0 -45 -21q0 -10 13 -16t49 -11q26 -4 38 -6
t39 -8t41.5 -13t35 -19.5t31.5 -28t19 -38.5t8 -51q0 -73 -62 -119.5t-167 -46.5q-66 0 -132 20.5t-105 53.5zM238 -304l-55 44q19 9 40.5 30.5t27.5 42.5q-5 -3 -19 -3q-28 0 -46.5 19t-18.5 50q0 33 23 56t55 23q36 0 61.5 -26t25.5 -71q0 -99 -94 -165z" />
    <glyph glyph-name="uni021A" unicode="&#x21a;" horiz-adv-x="595" 
d="M197 0v491h-179v176h559v-176h-178v-491h-202zM291 -304l-55 44q19 9 40.5 30.5t27.5 42.5q-5 -3 -19 -3q-28 0 -46.5 19t-18.5 50q0 33 23 56t55 23q36 0 61.5 -26t25.5 -71q0 -99 -94 -165z" />
    <glyph glyph-name="uni021B" unicode="&#x21b;" horiz-adv-x="382" 
d="M253 -12q-81 0 -123.5 38.5t-42.5 113.5v187h-80v156h80v132h180v-132h98v-156h-98v-135q0 -19 11 -32t29 -13q27 0 36 9l32 -136q-36 -32 -122 -32zM182 -304l-55 44q19 9 40.5 30.5t27.5 42.5q-5 -3 -19 -3q-28 0 -46.5 19t-18.5 50q0 33 23 56t55 23q36 0 61.5 -26
t25.5 -71q0 -99 -94 -165z" />
    <glyph glyph-name="uni0232" unicode="&#x232;" horiz-adv-x="664" 
d="M150 718v97h363v-97h-363zM232 0v265l-250 402h227l124 -225l122 225h227l-248 -402v-265h-202z" />
    <glyph glyph-name="uni0233" unicode="&#x233;" horiz-adv-x="535" 
d="M85 551v97h363v-97h-363zM70 -28q16 -9 38 -9q54 0 63 19l4 10l-190 491h190l92 -276l93 276h190l-210 -543q-30 -78 -84 -105.5t-141 -30.5q-43 0 -70 8z" />
    <glyph glyph-name="uni0237" unicode="&#x237;" horiz-adv-x="280" 
d="M-27 -192v145q10 -2 24 -2q53 0 53 70v462h180v-462q0 -98 -50 -157.5t-151 -59.5q-36 0 -56 4z" />
    <glyph glyph-name="uni0259" unicode="&#x259;" horiz-adv-x="543" 
d="M526 241q0 -107 -74 -180t-189 -73q-109 0 -180 73.5t-71 198.5v37h328q-8 25 -35 43t-69 18q-23 0 -58.5 -10t-52.5 -24l-74 111q34 29 91 44.5t115 15.5q116 0 192.5 -69t76.5 -185zM263 125q63 0 79 58h-159q14 -58 80 -58z" />
    <glyph glyph-name="uni0272" unicode="&#x272;" horiz-adv-x="607" 
d="M396 495q80 0 120.5 -42.5t40.5 -109.5v-343h-180v267q0 69 -70 69q-43 0 -77 -38v-277q0 -98 -50 -157.5t-151 -59.5q-36 0 -56 4v145q10 -2 24 -2q53 0 53 70v462h180v-55q59 67 166 67z" />
    <glyph glyph-name="uni02B0" unicode="&#x2b0;" horiz-adv-x="424" 
d="M257 326v174q0 41 -45 41q-25 0 -46 -21v-194h-126v434h126v-154q38 42 110 42q54 0 81 -28t27 -72v-222h-127z" />
    <glyph glyph-name="uni02BC" unicode="&#x2bc;" horiz-adv-x="281" 
d="M129 328l-73 59q25 11 53.5 40t37.5 56q-10 -4 -26 -4q-37 0 -62 26t-25 67q0 43 31 74t73 31q48 0 82 -35t34 -94q0 -132 -125 -220z" />
    <glyph glyph-name="circumflex" unicode="&#x2c6;" horiz-adv-x="335" 
d="M230 556l-64 73l-61 -73h-105l88 144h156l91 -144h-105z" />
    <glyph glyph-name="caron" unicode="&#x2c7;" horiz-adv-x="335" 
d="M91 556l-91 144h105l64 -73l61 73h105l-88 -144h-156z" />
    <glyph glyph-name="uni02C9" unicode="&#x2c9;" horiz-adv-x="363" 
d="M0 591v97h363v-97h-363z" />
    <glyph glyph-name="uni02CB" unicode="&#x2cb;" horiz-adv-x="275" 
d="M155 556l-155 144h155l120 -144h-120z" />
    <glyph glyph-name="breve" unicode="&#x2d8;" horiz-adv-x="351" 
d="M176 550q-109 0 -176 88l76 62q38 -53 100 -53q63 0 100 53l75 -62q-65 -88 -175 -88z" />
    <glyph glyph-name="dotaccent" unicode="&#x2d9;" horiz-adv-x="187" 
d="M5 619q0 37 26 63t63 26q36 0 62 -26t26 -63t-26 -63t-62 -26q-37 0 -63 26t-26 63z" />
    <glyph glyph-name="ring" unicode="&#x2da;" horiz-adv-x="262" 
d="M20 631q0 46 33 79t79 33t78 -33t32 -79t-32 -79t-78 -33t-79 33t-33 79zM166 631q0 14 -10 24.5t-24 10.5t-24.5 -10.5t-10.5 -24.5t10.5 -24.5t24.5 -10.5t24 10.5t10 24.5z" />
    <glyph glyph-name="ogonek" unicode="&#x2db;" horiz-adv-x="252" 
d="M244 -166q-41 -20 -107 -20q-32 0 -59.5 7t-50 28t-22.5 53q0 69 137 105l105 -7q-43 -4 -65 -20t-22 -38q0 -13 9.5 -21t23.5 -8q12 0 24 5z" />
    <glyph glyph-name="tilde" unicode="&#x2dc;" horiz-adv-x="341" 
d="M145 582q-23 15 -32 15q-24 0 -24 -37h-89q0 134 118 134q36 0 78 -28q22 -15 32 -15q24 0 24 37h89q0 -134 -118 -134q-36 0 -78 28z" />
    <glyph glyph-name="hungarumlaut" unicode="&#x2dd;" horiz-adv-x="371" 
d="M100 556h-100l80 144h135zM256 556h-100l80 144h135z" />
    <glyph glyph-name="gravecomb" unicode="&#x300;" horiz-adv-x="0" 
d="M-120 556l-155 144h155l120 -144h-120z" />
    <glyph glyph-name="acutecomb" unicode="&#x301;" horiz-adv-x="0" 
d="M-155 556h-120l120 144h155z" />
    <glyph glyph-name="uni0302" unicode="&#x302;" horiz-adv-x="0" 
d="M-105 556l-64 73l-61 -73h-105l88 144h156l91 -144h-105z" />
    <glyph glyph-name="tildecomb" unicode="&#x303;" horiz-adv-x="0" 
d="M-196 582q-22 15 -32 15q-24 0 -24 -37h-89q0 134 118 134q36 0 78 -28q23 -15 32 -15q24 0 24 37h89q0 -134 -118 -134q-36 0 -78 28z" />
    <glyph glyph-name="uni0304" unicode="&#x304;" horiz-adv-x="0" 
d="M-363 551v97h363v-97h-363z" />
    <glyph glyph-name="uni0306" unicode="&#x306;" horiz-adv-x="0" 
d="M-175 550q-109 0 -176 88l76 62q38 -53 100 -53q63 0 100 53l75 -62q-65 -88 -175 -88z" />
    <glyph glyph-name="uni0307" unicode="&#x307;" horiz-adv-x="0" 
d="M-182 619q0 37 26 63t63 26q36 0 62 -26t26 -63t-26 -63t-62 -26q-37 0 -63 26t-26 63z" />
    <glyph glyph-name="uni0308" unicode="&#x308;" horiz-adv-x="0" 
d="M-325 529q-37 0 -63 25.5t-26 63.5t26 63.5t63 25.5t63 -25.5t26 -63.5t-26 -63.5t-63 -25.5zM-109 529q-37 0 -63 26t-26 63t26 63t63 26q38 0 64 -26t26 -63t-26 -63t-64 -26z" />
    <glyph glyph-name="uni0309" unicode="&#x309;" horiz-adv-x="0" 
d="M-223 641q13 38 43 56.5t68 18.5q49 0 82 -24t33 -73q0 -27 -16 -63h-91q22 25 22 58q0 31 -30 31q-23 0 -36 -29z" />
    <glyph glyph-name="uni030A" unicode="&#x30a;" horiz-adv-x="0" 
d="M-242 631q0 46 33 79t79 33t78 -33t32 -79t-32 -79t-78 -33t-79 33t-33 79zM-96 631q0 14 -10 24.5t-24 10.5t-24.5 -10.5t-10.5 -24.5t10.5 -24.5t24.5 -10.5t24 10.5t10 24.5z" />
    <glyph glyph-name="uni030B" unicode="&#x30b;" horiz-adv-x="0" 
d="M-271 556h-100l80 144h135zM-115 556h-100l80 144h135z" />
    <glyph glyph-name="uni030C" unicode="&#x30c;" horiz-adv-x="0" 
d="M-244 556l-91 144h105l64 -73l61 73h105l-88 -144h-156z" />
    <glyph glyph-name="dotbelowcomb" unicode="&#x323;" horiz-adv-x="0" 
d="M-182 -121q0 37 26 63t63 26q36 0 62 -26t26 -63t-26 -63t-62 -26q-37 0 -63 26t-26 63z" />
    <glyph glyph-name="uni0326" unicode="&#x326;" horiz-adv-x="0" 
d="M-149 -304l-55 44q19 9 40.5 30.5t27.5 42.5q-4 -3 -19 -3q-28 0 -46.5 19t-18.5 50q0 33 23 56t55 23q36 0 61.5 -26t25.5 -71q0 -99 -94 -165z" />
    <glyph glyph-name="uni0327" unicode="&#x327;" horiz-adv-x="0" 
d="M-237 -166l31 64q43 -30 83 -30q42 0 42 24q0 17 -21 17q-16 0 -26 -12l-59 34l30 80h80l-25 -58q15 9 34 9q28 0 48 -20.5t20 -52.5q0 -41 -34 -65t-84 -24q-77 0 -119 34z" />
    <glyph glyph-name="uni0328" unicode="&#x328;" horiz-adv-x="0" 
d="M-8 -166q-41 -20 -107 -20q-32 0 -59.5 7t-50 28t-22.5 53q0 69 137 105l105 -7q-43 -4 -65 -20t-22 -38q0 -13 9.5 -21t23.5 -8q12 0 24 5z" />
    <glyph glyph-name="uni037E" unicode="&#x37e;" horiz-adv-x="281" 
d="M141 276q-43 0 -75 32t-32 76q0 43 31.5 74.5t75.5 31.5t75.5 -31.5t31.5 -74.5q0 -44 -32 -76t-75 -32zM129 -146l-73 59q25 11 53.5 40t37.5 56q-10 -4 -26 -4q-37 0 -62 26t-25 67q0 43 31 74t73 31q48 0 82 -35t34 -94q0 -132 -125 -220z" />
    <glyph glyph-name="tonos" unicode="&#x384;" horiz-adv-x="166" 
d="M5 541l22 224h134l-82 -224h-74z" />
    <glyph glyph-name="dieresistonos" unicode="&#x385;" horiz-adv-x="520" 
d="M201 541l22 224h135l-82 -224h-75zM94 529q-38 0 -63.5 25.5t-25.5 63.5t25.5 63.5t63.5 25.5t63.5 -25.5t25.5 -63.5t-25.5 -63.5t-63.5 -25.5zM425 529q-37 0 -63 26t-26 63t26 63t63 26q38 0 64 -26t26 -63t-26 -63t-64 -26z" />
    <glyph glyph-name="Alphatonos" unicode="&#x386;" horiz-adv-x="710" 
d="M509 0l-26 86h-256l-26 -86h-219l246 667h254l246 -667h-219zM12 443l22 224h134l-82 -224h-74zM355 489l-76 -235h152z" />
    <glyph glyph-name="Epsilontonos" unicode="&#x388;" horiz-adv-x="730" 
d="M2 443l22 224h134l-82 -224h-74zM188 0v667h506v-168h-304v-78h297v-168h-297v-85h304v-168h-506z" />
    <glyph glyph-name="Etatonos" unicode="&#x389;" horiz-adv-x="885" 
d="M2 443l22 224h134l-82 -224h-74zM629 0v255h-239v-255h-202v667h202v-236h239v236h202v-667h-202z" />
    <glyph glyph-name="Iotatonos" unicode="&#x38a;" horiz-adv-x="444" 
d="M2 443l22 224h134l-82 -224h-74zM188 0v667h202v-667h-202z" />
    <glyph glyph-name="Omicrontonos" unicode="&#x38c;" horiz-adv-x="852" 
d="M104 333q0 152 104.5 248.5t260.5 96.5t260.5 -96.5t104.5 -248.5t-104.5 -248.5t-260.5 -96.5t-260.5 96.5t-104.5 248.5zM2 443l22 224h134l-82 -224h-74zM629 333q0 71 -44.5 119t-115.5 48t-115.5 -48t-44.5 -119t44.5 -119t115.5 -48t115.5 48t44.5 119z" />
    <glyph glyph-name="Upsilontonos" unicode="&#x38e;" horiz-adv-x="848" 
d="M2 443l22 224h134l-82 -224h-74zM416 0v265l-250 402h227l124 -225l122 225h227l-248 -402v-265h-202z" />
    <glyph glyph-name="Omegatonos" unicode="&#x38f;" horiz-adv-x="872" 
d="M244 176q-120 93 -120 207q0 138 103 216.5t262 78.5q160 0 262.5 -78.5t102.5 -216.5q0 -114 -119 -207h102v-176h-298v176q55 17 82.5 62.5t27.5 96.5q0 27 -8 53.5t-25 52.5t-50 42t-77 16t-77 -16t-50 -42t-25 -52.5t-8 -53.5q0 -51 27.5 -96.5t82.5 -62.5v-176h-298
v176h103zM2 443l22 224h134l-82 -224h-74z" />
    <glyph glyph-name="iotadieresistonos" unicode="&#x390;" horiz-adv-x="294" 
d="M101 541l22 224h135l-82 -224h-75zM-6 529q-38 0 -63.5 25.5t-25.5 63.5t25.5 63.5t63.5 25.5t63.5 -25.5t25.5 -63.5t-25.5 -63.5t-63.5 -25.5zM325 529q-37 0 -63 26t-26 63t26 63t63 26q38 0 64 -26t26 -63t-26 -63t-64 -26zM50 140v343h180v-305q0 -15 10 -23t24 -8
q10 0 19 3l11 -152q-33 -10 -78 -10q-81 0 -123.5 38.5t-42.5 113.5z" />
    <glyph glyph-name="Alpha" unicode="&#x391;" horiz-adv-x="710" 
d="M509 0l-26 86h-256l-26 -86h-219l246 667h254l246 -667h-219zM355 489l-76 -235h152z" />
    <glyph glyph-name="Beta" unicode="&#x392;" horiz-adv-x="697" 
d="M54 0v667h405q96 0 147 -52t51 -118q0 -61 -32 -101.5t-82 -51.5q55 -8 91 -53.5t36 -109.5q0 -75 -51 -128t-146 -53h-419zM256 419h156q16 0 28 12.5t12 30.5q0 17 -12 29t-28 12h-156v-84zM256 164h162q21 0 34 13t13 32t-13 32.5t-34 13.5h-162v-91z" />
    <glyph glyph-name="Gamma" unicode="&#x393;" horiz-adv-x="592" 
d="M54 0v667h506v-176h-304v-491h-202z" />
    <glyph glyph-name="uni0394" unicode="&#x394;" horiz-adv-x="710" 
d="M-18 0l246 667h254l246 -667h-746zM355 469l-90 -293h180z" />
    <glyph glyph-name="Epsilon" unicode="&#x395;" 
d="M54 0v667h506v-168h-304v-78h297v-168h-297v-85h304v-168h-506z" />
    <glyph glyph-name="Zeta" unicode="&#x396;" horiz-adv-x="600" 
d="M36 0v160l254 331h-254v176h521v-159l-255 -332h262v-176h-528z" />
    <glyph glyph-name="Eta" unicode="&#x397;" horiz-adv-x="751" 
d="M495 0v255h-239v-255h-202v667h202v-236h239v236h202v-667h-202z" />
    <glyph glyph-name="Theta" unicode="&#x398;" horiz-adv-x="766" 
d="M18 333q0 152 104.5 248.5t260.5 96.5t260.5 -96.5t104.5 -248.5t-104.5 -248.5t-260.5 -96.5t-260.5 96.5t-104.5 248.5zM543 333q0 71 -44.5 119t-115.5 48t-115.5 -48t-44.5 -119t44.5 -119t115.5 -48t115.5 48t44.5 119zM263 249v176h240v-176h-240z" />
    <glyph glyph-name="Iota" unicode="&#x399;" horiz-adv-x="310" 
d="M54 0v667h202v-667h-202z" />
    <glyph glyph-name="Kappa" unicode="&#x39a;" horiz-adv-x="671" 
d="M443 0l-150 235l-37 -50v-185h-202v667h202v-250l175 250h247l-252 -310l263 -357h-246z" />
    <glyph glyph-name="Lambda" unicode="&#x39b;" horiz-adv-x="710" 
d="M499 0l-144 469l-144 -469h-229l246 667h254l246 -667h-229z" />
    <glyph glyph-name="Mu" unicode="&#x39c;" horiz-adv-x="900" 
d="M644 0v421l-149 -421h-90l-149 421v-421h-202v667h279l117 -340l117 340h279v-667h-202z" />
    <glyph glyph-name="Nu" unicode="&#x39d;" horiz-adv-x="750" 
d="M502 0l-246 358v-358h-202v667h208l232 -336v336h202v-667h-194z" />
    <glyph glyph-name="Xi" unicode="&#x39e;" horiz-adv-x="632" 
d="M36 499v168h559v-168h-559zM43 253v168h546v-168h-546zM37 0v168h559v-168h-559z" />
    <glyph glyph-name="Omicron" unicode="&#x39f;" horiz-adv-x="766" 
d="M18 333q0 152 104.5 248.5t260.5 96.5t260.5 -96.5t104.5 -248.5t-104.5 -248.5t-260.5 -96.5t-260.5 96.5t-104.5 248.5zM543 333q0 71 -44.5 119t-115.5 48t-115.5 -48t-44.5 -119t44.5 -119t115.5 -48t115.5 48t44.5 119z" />
    <glyph glyph-name="Pi" unicode="&#x3a0;" horiz-adv-x="751" 
d="M495 0v491h-239v-491h-202v667h643v-667h-202z" />
    <glyph glyph-name="Rho" unicode="&#x3a1;" horiz-adv-x="662" 
d="M54 0v667h356q113 0 176.5 -65.5t63.5 -163.5q0 -97 -63.5 -160.5t-176.5 -63.5h-154v-214h-202zM445 440q0 26 -17.5 42.5t-43.5 16.5h-128v-117h128q26 0 43.5 16t17.5 42z" />
    <glyph glyph-name="Sigma" unicode="&#x3a3;" 
d="M281 176h279v-176h-524v176l175 163l-174 153v175h523v-176h-270l170 -151z" />
    <glyph glyph-name="Tau" unicode="&#x3a4;" horiz-adv-x="595" 
d="M197 0v491h-179v176h559v-176h-178v-491h-202z" />
    <glyph glyph-name="Upsilon" unicode="&#x3a5;" horiz-adv-x="664" 
d="M232 0v265l-250 402h227l124 -225l122 225h227l-248 -402v-265h-202z" />
    <glyph glyph-name="Phi" unicode="&#x3a6;" horiz-adv-x="904" 
d="M886 333q0 -117 -86 -183.5t-247 -81.5v-68h-202v68q-161 15 -247 81.5t-86 183.5t86 183.5t247 81.5v69h202v-69q161 -15 247 -81.5t86 -183.5zM223 333q0 -70 128 -86v172q-128 -16 -128 -86zM553 247q128 16 128 86t-128 86v-172z" />
    <glyph glyph-name="Chi" unicode="&#x3a7;" horiz-adv-x="684" 
d="M464 0l-122 204l-122 -204h-238l223 342l-208 325h237l108 -190l106 190h239l-208 -324l223 -343h-238z" />
    <glyph glyph-name="Psi" unicode="&#x3a8;" horiz-adv-x="937" 
d="M677 667h206v-256q0 -113 -79 -187.5t-234 -93.5v-130h-202v130q-156 19 -235 93.5t-79 186.5v257h205v-250q0 -81 109 -105v355h202v-355q107 24 107 105v250z" />
    <glyph glyph-name="uni03A9" unicode="&#x3a9;" horiz-adv-x="766" 
d="M138 176q-120 93 -120 207q0 138 103 216.5t262 78.5q160 0 262.5 -78.5t102.5 -216.5q0 -114 -119 -207h102v-176h-298v176q55 17 82.5 62.5t27.5 96.5q0 27 -8 53.5t-25 52.5t-50 42t-77 16t-77 -16t-50 -42t-25 -52.5t-8 -53.5q0 -51 27.5 -96.5t82.5 -62.5v-176h-298
v176h103z" />
    <glyph glyph-name="Iotadieresis" unicode="&#x3aa;" horiz-adv-x="310" 
d="M47 696q-37 0 -63 26t-26 63t26 63t63 26t63 -26t26 -63t-26 -63t-63 -26zM263 696q-37 0 -63 26t-26 63t26 63t63 26q38 0 64 -26t26 -63t-26 -63t-64 -26zM54 0v667h202v-667h-202z" />
    <glyph glyph-name="Upsilondieresis" unicode="&#x3ab;" horiz-adv-x="664" 
d="M224 696q-38 0 -63.5 26t-25.5 63t25.5 63t63.5 26t63.5 -26t25.5 -63t-25.5 -63t-63.5 -26zM440 696q-37 0 -63 26t-26 63t26 63t63 26q38 0 64 -26t26 -63t-26 -63t-64 -26zM232 0v265l-250 402h227l124 -225l122 225h227l-248 -402v-265h-202z" />
    <glyph glyph-name="alphatonos" unicode="&#x3ac;" horiz-adv-x="610" 
d="M263 541l22 224h134l-82 -224h-74zM610 -2q-33 -10 -78 -10q-119 0 -154 82q-50 -82 -148 -82q-92 0 -152.5 67t-60.5 187q0 117 60.5 185t152.5 68q83 0 135 -63v51h181v-305q0 -15 10 -23t24 -8q10 0 19 3zM366 180v123q-26 32 -75 32q-38 0 -64 -25t-26 -68
q0 -44 26 -69.5t64 -25.5q48 0 75 33z" />
    <glyph glyph-name="epsilontonos" unicode="&#x3ad;" horiz-adv-x="502" 
d="M213 541l22 224h134l-82 -224h-74zM259 -12q-110 1 -176 41.5t-66 106.5q0 47 40.5 78.5t90.5 34.5q-53 9 -87.5 40t-34.5 70q1 62 59 99t164 36q155 0 239 -82l-85 -101q-54 49 -137 49q-54 0 -54 -30t56 -30h90v-114h-90q-65 0 -65 -30q0 -33 59 -33q88 0 151 46
l80 -105q-79 -76 -234 -76z" />
    <glyph glyph-name="etatonos" unicode="&#x3ae;" horiz-adv-x="607" 
d="M265 541l22 224h134l-82 -224h-74zM377 -184v451q0 69 -70 69q-43 0 -77 -38v-298h-180v483h180v-55q59 67 166 67q80 0 120.5 -42.5t40.5 -109.5v-527h-180z" />
    <glyph glyph-name="iotatonos" unicode="&#x3af;" horiz-adv-x="294" 
d="M102 541l22 224h134l-82 -224h-74zM50 140v343h180v-305q0 -15 10 -23t24 -8q10 0 19 3l11 -152q-33 -10 -78 -10q-81 0 -123.5 38.5t-42.5 113.5z" />
    <glyph glyph-name="upsilondieresistonos" unicode="&#x3b0;" horiz-adv-x="592" 
d="M264 541l22 224h135l-82 -224h-75zM157 529q-37 0 -63 25.5t-26 63.5t26 63.5t63 25.5t63 -25.5t26 -63.5t-26 -63.5t-63 -25.5zM488 529q-37 0 -63 26t-26 63t26 63t63 26q38 0 64 -26t26 -63t-26 -63t-64 -26zM303 -12q-124 0 -188.5 64.5t-64.5 171.5v259h180v-256
q0 -35 19.5 -57.5t53.5 -22.5q87 0 87 122q0 88 -45 159l167 67q63 -99 63 -226q0 -126 -72.5 -203.5t-199.5 -77.5z" />
    <glyph glyph-name="alpha" unicode="&#x3b1;" horiz-adv-x="610" 
d="M610 -2q-33 -10 -78 -10q-119 0 -154 82q-50 -82 -148 -82q-92 0 -152.5 67t-60.5 187q0 117 60.5 185t152.5 68q83 0 135 -63v51h181v-305q0 -15 10 -23t24 -8q10 0 19 3zM366 180v123q-26 32 -75 32q-38 0 -64 -25t-26 -68q0 -44 26 -69.5t64 -25.5q48 0 75 33z" />
    <glyph glyph-name="beta" unicode="&#x3b2;" 
d="M230 -184h-180v625q0 62 25 110t65 74t85 39t91 13q123 0 185.5 -49.5t62.5 -135.5q0 -54 -39.5 -96t-102.5 -52q63 -7 110 -53t47 -126q0 -71 -59.5 -124t-133.5 -53q-100 0 -156 63v-235zM230 179q35 -32 91 -32q35 0 54.5 15.5t19.5 39.5q0 23 -19 38t-55 15h-44v160
h38q64 0 64 51q0 24 -17 37.5t-46 13.5q-40 0 -63 -21.5t-23 -54.5v-262z" />
    <glyph glyph-name="gamma" unicode="&#x3b3;" horiz-adv-x="535" 
d="M177 -184v79q0 166 -56.5 324.5t-145.5 263.5h200q40 -55 72.5 -138t40.5 -144q21 40 39 126.5t18 155.5h180q0 -118 -49 -254t-119 -224v-189h-180z" />
    <glyph glyph-name="delta" unicode="&#x3b4;" horiz-adv-x="577" 
d="M300 498q39 -9 63.5 -16.5t66 -28t66.5 -46.5t44.5 -71t19.5 -102q0 -102 -69.5 -174t-191.5 -72q-131 0 -206.5 73.5t-75.5 180.5q0 60 26.5 105t67.5 72q-39 36 -39 95q0 69 57.5 117t158.5 48q115 0 209 -62l-66 -128q-25 20 -64 35t-78 15q-45 0 -45 -18q0 -7 12 -11
t44 -12zM294 147q43 0 68 25.5t25 61.5q0 47 -31 72t-90 44q-31 -18 -47.5 -47.5t-16.5 -60.5q0 -42 24.5 -68.5t67.5 -26.5z" />
    <glyph glyph-name="epsilon" unicode="&#x3b5;" horiz-adv-x="502" 
d="M259 -12q-110 1 -176 41.5t-66 106.5q0 47 40.5 78.5t90.5 34.5q-53 9 -87.5 40t-34.5 70q1 62 59 99t164 36q155 0 239 -82l-85 -101q-54 49 -137 49q-54 0 -54 -30t56 -30h90v-114h-90q-65 0 -65 -30q0 -33 59 -33q88 0 151 46l80 -105q-79 -76 -234 -76z" />
    <glyph glyph-name="zeta" unicode="&#x3b6;" horiz-adv-x="482" 
d="M275 0q-120 0 -189 55t-69 156q0 92 54 172.5t147 127.5h-185v156h416v-126q-92 -46 -170 -136.5t-78 -178.5q0 -42 21.5 -54.5t73.5 -12.5q169 0 169 -134q0 -70 -63 -182h-188q18 24 44 75.5t26 72.5q0 9 -9 9z" />
    <glyph glyph-name="eta" unicode="&#x3b7;" horiz-adv-x="607" 
d="M377 -184v451q0 69 -70 69q-43 0 -77 -38v-298h-180v483h180v-55q59 67 166 67q80 0 120.5 -42.5t40.5 -109.5v-527h-180z" />
    <glyph glyph-name="theta" unicode="&#x3b8;" horiz-adv-x="577" 
d="M288 679q83 0 146 -48t94.5 -125.5t31.5 -171.5q0 -144 -74 -245t-198 -101t-197.5 101t-73.5 245q0 145 73.5 245t197.5 100zM288 520q-35 0 -55 -25.5t-27 -81.5h165q-14 107 -83 107zM288 147q36 0 56 26t27 84h-165q13 -110 82 -110z" />
    <glyph glyph-name="iota" unicode="&#x3b9;" horiz-adv-x="294" 
d="M50 140v343h180v-305q0 -15 10 -23t24 -8q10 0 19 3l11 -152q-33 -10 -78 -10q-81 0 -123.5 38.5t-42.5 113.5z" />
    <glyph glyph-name="kappa" unicode="&#x3ba;" horiz-adv-x="557" 
d="M348 0l-83 156l-35 -47v-109h-180v483h180v-172l111 172h217l-166 -220l177 -263h-221z" />
    <glyph glyph-name="lambda" unicode="&#x3bb;" horiz-adv-x="535" 
d="M115 679q87 -3 141 -30.5t84 -105.5l210 -543h-190l-93 276l-92 -276h-190l190 491l-4 10q-9 19 -63 19q-22 0 -38 -9l-25 160q27 8 70 8z" />
    <glyph glyph-name="uni03BC" unicode="&#x3bc;" horiz-adv-x="620" 
d="M230 -184h-180v667h180v-268q0 -68 70 -68q42 0 76 38v298h180v-305q0 -15 10 -23t24 -8q10 0 19 3l11 -152q-33 -10 -78 -10q-121 0 -156 87q-16 -40 -46.5 -63.5t-70.5 -23.5q-23 0 -39 8v-180z" />
    <glyph glyph-name="nu" unicode="&#x3bd;" horiz-adv-x="535" 
d="M172 0l-187 483h190l101 -304q34 57 51.5 142t17.5 162h180q0 -120 -50.5 -258t-121.5 -225h-181z" />
    <glyph glyph-name="xi" unicode="&#x3be;" horiz-adv-x="482" 
d="M17 161q0 103 104 142q-41 7 -67 32.5t-26 64.5q0 36 23 66t61 45h-72v156h409v-156h-192q-44 -13 -44 -52q0 -47 83 -47h150v-154h-150q-49 0 -71.5 -11.5t-22.5 -39.5q0 -48 94 -48q169 0 169 -134q0 -70 -63 -182h-188q18 23 42.5 75t24.5 73q0 9 -9 9
q-126 0 -190.5 42.5t-64.5 118.5z" />
    <glyph glyph-name="omicron" unicode="&#x3bf;" horiz-adv-x="577" 
d="M288 -12q-124 0 -197.5 74t-73.5 180t73.5 179.5t197.5 73.5t198 -73.5t74 -179.5t-74 -180t-198 -74zM288 147q41 0 64 26.5t23 68.5q0 41 -23 67.5t-64 26.5q-40 0 -63 -26.5t-23 -67.5q0 -42 23 -68.5t63 -26.5z" />
    <glyph glyph-name="pi" unicode="&#x3c0;" horiz-adv-x="681" 
d="M414 0v327h-147v-327h-180v327h-80v156h667v-156h-80v-327h-180z" />
    <glyph glyph-name="rho" unicode="&#x3c1;" horiz-adv-x="595" 
d="M230 51v-235h-180v426q0 106 71.5 179.5t192.5 73.5t192.5 -73.5t71.5 -179.5q0 -121 -59.5 -187.5t-152.5 -66.5q-81 0 -136 63zM394 242q0 41 -21.5 67.5t-60.5 26.5t-60.5 -26.5t-21.5 -67.5v-62q11 -14 33.5 -23.5t40.5 -9.5q38 0 64 25.5t26 69.5z" />
    <glyph glyph-name="uni03C2" unicode="&#x3c2;" horiz-adv-x="502" 
d="M17 242q0 113 77 183t194 70q75 0 128 -27.5t77 -63.5l-116 -109q-27 41 -81 41q-41 0 -68 -22.5t-27 -66.5t27 -66t68 -22q182 0 182 -122q0 -82 -63 -194h-188q18 23 42.5 75t24.5 73q0 9 -6 9q-118 0 -194.5 65t-76.5 177z" />
    <glyph glyph-name="sigma" unicode="&#x3c3;" horiz-adv-x="577" 
d="M288 -12q-124 0 -197.5 74t-73.5 180q0 104 73 172.5t198 68.5h274v-159h-65q48 -44 48 -119q0 -93 -67 -155t-190 -62zM336 324h-48q-40 0 -63 -24t-23 -58q0 -42 23 -68.5t63 -26.5q41 0 64 26.5t23 68.5q0 50 -39 82z" />
    <glyph glyph-name="tau" unicode="&#x3c4;" horiz-adv-x="485" 
d="M148 140v187h-133v156h455v-156h-142v-135q0 -19 11 -32t29 -13q27 0 36 9l32 -136q-36 -32 -122 -32q-81 0 -123.5 38.5t-42.5 113.5z" />
    <glyph glyph-name="upsilon" unicode="&#x3c5;" horiz-adv-x="592" 
d="M303 -12q-124 0 -188.5 64.5t-64.5 171.5v259h180v-256q0 -35 19.5 -57.5t53.5 -22.5q87 0 87 122q0 88 -45 159l167 67q63 -99 63 -226q0 -126 -72.5 -203.5t-199.5 -77.5z" />
    <glyph glyph-name="phi" unicode="&#x3c6;" horiz-adv-x="754" 
d="M737 236q0 -119 -73 -181.5t-198 -66.5l1 -172h-180l1 172q-126 4 -198.5 69.5t-72.5 192.5q0 88 48.5 148.5t130.5 92.5l74 -146q-33 -10 -50.5 -37.5t-17.5 -57.5q0 -50 23 -76.5t62 -26.5v336h141q150 0 229.5 -62.5t79.5 -184.5zM467 147q40 0 62.5 22.5t22.5 66.5
t-22.5 66t-62.5 22v-177z" />
    <glyph glyph-name="chi" unicode="&#x3c7;" horiz-adv-x="521" 
d="M336 -184l-75 176l-77 -176h-196l158 343l-148 324h197l65 -156l65 156h197l-148 -324l159 -343h-197z" />
    <glyph glyph-name="psi" unicode="&#x3c8;" horiz-adv-x="798" 
d="M568 483h180v-226q0 -113 -60.5 -180t-198.5 -84v-177h-180v177q-138 16 -198.5 83.5t-60.5 180.5v226h180v-225q0 -43 16.5 -67t62.5 -35v511h180v-511q45 10 62 34t17 68v225z" />
    <glyph glyph-name="omega" unicode="&#x3c9;" horiz-adv-x="806" 
d="M578 -12q-63 0 -104 31t-71 96q-30 -65 -71 -96t-104 -31q-105 0 -158 70.5t-53 173.5q0 164 106 263l168 -59q-89 -74 -89 -204q0 -85 52 -85q29 0 44 26t15 69v121h180v-121q0 -43 15 -69t44 -26q52 0 52 85q0 130 -89 204l168 59q106 -99 106 -263q0 -103 -53 -173.5
t-158 -70.5z" />
    <glyph glyph-name="iotadieresis" unicode="&#x3ca;" horiz-adv-x="294" 
d="M32 529q-38 0 -63.5 25.5t-25.5 63.5t25.5 63.5t63.5 25.5t63.5 -25.5t25.5 -63.5t-25.5 -63.5t-63.5 -25.5zM248 529q-37 0 -63 26t-26 63t26 63t63 26q38 0 64 -26t26 -63t-26 -63t-64 -26zM50 140v343h180v-305q0 -15 10 -23t24 -8q10 0 19 3l11 -152q-33 -10 -78 -10
q-81 0 -123.5 38.5t-42.5 113.5z" />
    <glyph glyph-name="upsilondieresis" unicode="&#x3cb;" horiz-adv-x="592" 
d="M195 529q-37 0 -63 25.5t-26 63.5t26 63.5t63 25.5t63 -25.5t26 -63.5t-26 -63.5t-63 -25.5zM411 529q-37 0 -63 26t-26 63t26 63t63 26q38 0 64 -26t26 -63t-26 -63t-64 -26zM303 -12q-124 0 -188.5 64.5t-64.5 171.5v259h180v-256q0 -35 19.5 -57.5t53.5 -22.5
q87 0 87 122q0 88 -45 159l167 67q63 -99 63 -226q0 -126 -72.5 -203.5t-199.5 -77.5z" />
    <glyph glyph-name="omicrontonos" unicode="&#x3cc;" horiz-adv-x="577" 
d="M250 541l22 224h134l-82 -224h-74zM288 -12q-124 0 -197.5 74t-73.5 180t73.5 179.5t197.5 73.5t198 -73.5t74 -179.5t-74 -180t-198 -74zM288 147q41 0 64 26.5t23 68.5q0 41 -23 67.5t-64 26.5q-40 0 -63 -26.5t-23 -67.5q0 -42 23 -68.5t63 -26.5z" />
    <glyph glyph-name="upsilontonos" unicode="&#x3cd;" horiz-adv-x="592" 
d="M265 541l22 224h134l-82 -224h-74zM303 -12q-124 0 -188.5 64.5t-64.5 171.5v259h180v-256q0 -35 19.5 -57.5t53.5 -22.5q87 0 87 122q0 88 -45 159l167 67q63 -99 63 -226q0 -126 -72.5 -203.5t-199.5 -77.5z" />
    <glyph glyph-name="omegatonos" unicode="&#x3ce;" horiz-adv-x="806" 
d="M365 541l22 224h134l-82 -224h-74zM578 -12q-63 0 -104 31t-71 96q-30 -65 -71 -96t-104 -31q-105 0 -158 70.5t-53 173.5q0 164 106 263l168 -59q-89 -74 -89 -204q0 -85 52 -85q29 0 44 26t15 69v121h180v-121q0 -43 15 -69t44 -26q52 0 52 85q0 130 -89 204l168 59
q106 -99 106 -263q0 -103 -53 -173.5t-158 -70.5z" />
    <glyph glyph-name="uni0401" unicode="&#x401;" 
d="M206 696q-38 0 -63.5 26t-25.5 63t25.5 63t63.5 26t63.5 -26t25.5 -63t-25.5 -63t-63.5 -26zM422 696q-37 0 -63 26t-26 63t26 63t63 26q38 0 64 -26t26 -63t-26 -63t-64 -26zM54 0v667h506v-168h-304v-78h297v-168h-297v-85h304v-168h-506z" />
    <glyph glyph-name="uni0402" unicode="&#x402;" horiz-adv-x="805" 
d="M507 154q47 0 65.5 12t18.5 37v7q0 59 -95 59q-52 0 -97 -25v-244h-202v491h-179v176h559v-176h-178v-91q72 45 173 45q107 0 164 -61t57 -161v-10q0 -225 -286 -225v166z" />
    <glyph glyph-name="uni0403" unicode="&#x403;" horiz-adv-x="592" 
d="M381 723h-150l120 144h185zM54 0v667h506v-176h-304v-491h-202z" />
    <glyph glyph-name="uni0404" unicode="&#x404;" horiz-adv-x="697" 
d="M377 166q49 0 86.5 28t50.5 69l174 -80q-16 -37 -40 -68.5t-60 -61.5t-88.5 -47.5t-114.5 -17.5q-158 0 -262.5 96.5t-104.5 248.5q0 153 104 249t263 96q120 0 193.5 -56t109.5 -138l-174 -81q-13 41 -50.5 69t-86.5 28q-96 0 -136 -79h227v-168h-230q37 -87 139 -87z
" />
    <glyph glyph-name="uni0405" unicode="&#x405;" horiz-adv-x="613" 
d="M3 94l105 150q90 -86 215 -86q31 0 52.5 10.5t21.5 28.5q0 19 -21.5 30.5t-72.5 20.5q-123 22 -174 48q-104 53 -104 165q0 90 73 153t204 63q169 0 283 -93l-108 -143q-42 32 -93 49t-93 17q-61 0 -61 -35q0 -19 21 -28.5t77 -18.5q44 -8 72 -14t70.5 -22t67.5 -36
t44 -54.5t19 -78.5q0 -110 -76.5 -171t-211.5 -61q-192 0 -310 106z" />
    <glyph glyph-name="uni0406" unicode="&#x406;" horiz-adv-x="310" 
d="M54 0v667h202v-667h-202z" />
    <glyph glyph-name="uni0407" unicode="&#x407;" horiz-adv-x="310" 
d="M47 696q-37 0 -63 26t-26 63t26 63t63 26t63 -26t26 -63t-26 -63t-63 -26zM263 696q-37 0 -63 26t-26 63t26 63t63 26q38 0 64 -26t26 -63t-26 -63t-64 -26zM54 0v667h202v-667h-202z" />
    <glyph glyph-name="uni0408" unicode="&#x408;" horiz-adv-x="498" 
d="M0 42l82 154q44 -30 86 -30q33 0 53.5 20t20.5 55v426h202v-429q0 -125 -69 -187.5t-189 -62.5q-116 0 -186 54z" />
    <glyph glyph-name="uni0409" unicode="&#x409;" horiz-adv-x="1103" 
d="M20 176q20 0 35 5t33.5 24t31.5 52t25 94t18 146l13 170h521v-210h154q113 0 176.5 -65.5t63.5 -162.5q0 -98 -63.5 -163.5t-176.5 -65.5h-356v491h-155l-4 -53q-8 -113 -29.5 -195t-49 -130.5t-68 -77t-79.5 -38t-90 -9.5v188zM697 281v-105h128q27 0 44 13.5t17 39.5
q0 25 -17 38.5t-44 13.5h-128z" />
    <glyph glyph-name="uni040A" unicode="&#x40a;" horiz-adv-x="1103" 
d="M54 667h202v-236h239v236h202v-236h167q107 0 167 -61.5t60 -153.5q0 -93 -60 -154.5t-167 -61.5h-369v255h-239v-255h-202v667zM840 176q20 0 33 10.5t13 29.5t-13 29t-33 10h-143v-79h143z" />
    <glyph glyph-name="uni040B" unicode="&#x40b;" horiz-adv-x="847" 
d="M591 187q0 82 -95 82q-52 0 -97 -25v-244h-202v491h-179v176h559v-176h-178v-91q72 45 173 45q221 0 221 -258v-187h-202v187z" />
    <glyph glyph-name="uni040C" unicode="&#x40c;" horiz-adv-x="671" 
d="M416 723h-150l120 144h185zM443 0l-150 235l-37 -50v-185h-202v667h202v-250l175 250h247l-252 -310l263 -357h-246z" />
    <glyph glyph-name="uni040E" unicode="&#x40e;" horiz-adv-x="664" 
d="M333 707q-56 0 -105.5 25.5t-83.5 69.5l93 76q36 -53 96 -53q61 0 97 53l91 -76q-33 -44 -82 -69.5t-106 -25.5zM461 667h221l-218 -491q-43 -96 -106 -142t-159 -46q-62 0 -95 12l35 174q17 -8 42 -8q44 0 67 26l-265 475h231l140 -271z" />
    <glyph glyph-name="uni040F" unicode="&#x40f;" horiz-adv-x="731" 
d="M677 667v-667h-223v-123h-176v123h-224v667h202v-491h219v491h202z" />
    <glyph glyph-name="uni0410" unicode="&#x410;" horiz-adv-x="710" 
d="M509 0l-26 86h-256l-26 -86h-219l246 667h254l246 -667h-219zM355 489l-76 -235h152z" />
    <glyph glyph-name="uni0411" unicode="&#x411;" horiz-adv-x="662" 
d="M610 667v-168h-354v-65h164q108 0 169 -62t61 -155q0 -94 -60.5 -155.5t-169.5 -61.5h-366v667h556zM256 266v-98h139q21 0 35.5 14t14.5 35t-14.5 35t-35.5 14h-139z" />
    <glyph glyph-name="uni0412" unicode="&#x412;" horiz-adv-x="697" 
d="M54 0v667h405q96 0 147 -52t51 -118q0 -61 -32 -101.5t-82 -51.5q55 -8 91 -53.5t36 -109.5q0 -75 -51 -128t-146 -53h-419zM256 419h156q16 0 28 12.5t12 30.5q0 17 -12 29t-28 12h-156v-84zM256 164h162q21 0 34 13t13 32t-13 32.5t-34 13.5h-162v-91z" />
    <glyph glyph-name="uni0413" unicode="&#x413;" horiz-adv-x="592" 
d="M54 0v667h506v-176h-304v-491h-202z" />
    <glyph glyph-name="uni0414" unicode="&#x414;" horiz-adv-x="761" 
d="M13 176h53q56 48 81 323l15 168h508v-491h78v-299h-176v123h-383v-123h-176v299zM318 425q-17 -188 -49 -249h199v315h-144z" />
    <glyph glyph-name="uni0415" unicode="&#x415;" 
d="M54 0v667h506v-168h-304v-78h297v-168h-297v-85h304v-168h-506z" />
    <glyph glyph-name="uni0416" unicode="&#x416;" horiz-adv-x="992" 
d="M773 0l-145 265h-31v-265h-202v265h-31l-145 -265h-237l222 348l-211 319h233l138 -246h31v246h202v-246h31l138 246h233l-211 -319l222 -348h-237z" />
    <glyph glyph-name="uni0417" unicode="&#x417;" horiz-adv-x="637" 
d="M12 92l99 130q36 -31 91.5 -47.5t99.5 -16.5q51 0 79 14t28 35t-24 32.5t-89 11.5h-127v168h127q102 0 102 41q0 23 -30 35t-79 12q-44 0 -91.5 -16t-81.5 -44l-95 120q46 51 121 80.5t169 29.5q136 0 212 -50.5t76 -134.5q0 -53 -41.5 -95.5t-105.5 -52.5
q61 -7 109.5 -49t48.5 -107q0 -89 -84.5 -144.5t-215.5 -55.5q-96 0 -175.5 28.5t-122.5 75.5z" />
    <glyph glyph-name="uni0418" unicode="&#x418;" horiz-adv-x="750" 
d="M54 667h202v-376l232 376h208v-667h-202v398l-246 -398h-194v667z" />
    <glyph glyph-name="uni0419" unicode="&#x419;" horiz-adv-x="750" 
d="M375 707q-56 0 -105.5 25.5t-83.5 69.5l93 76q36 -53 96 -53q61 0 97 53l91 -76q-33 -44 -82 -69.5t-106 -25.5zM54 667h202v-376l232 376h208v-667h-202v398l-246 -398h-194v667z" />
    <glyph glyph-name="uni041A" unicode="&#x41a;" horiz-adv-x="671" 
d="M443 0l-150 235l-37 -50v-185h-202v667h202v-250l175 250h247l-252 -310l263 -357h-246z" />
    <glyph glyph-name="uni041B" unicode="&#x41b;" horiz-adv-x="751" 
d="M20 176q20 0 35 5t33 24t31.5 52t25 94t18.5 146l13 170h521v-667h-202v491h-155l-4 -53q-8 -113 -29.5 -195t-49 -130.5t-68 -77t-79.5 -38t-90 -9.5v188z" />
    <glyph glyph-name="uni041C" unicode="&#x41c;" horiz-adv-x="900" 
d="M644 0v421l-149 -421h-90l-149 421v-421h-202v667h279l117 -340l117 340h279v-667h-202z" />
    <glyph glyph-name="uni041D" unicode="&#x41d;" horiz-adv-x="751" 
d="M495 0v255h-239v-255h-202v667h202v-236h239v236h202v-667h-202z" />
    <glyph glyph-name="uni041E" unicode="&#x41e;" horiz-adv-x="766" 
d="M18 333q0 152 104.5 248.5t260.5 96.5t260.5 -96.5t104.5 -248.5t-104.5 -248.5t-260.5 -96.5t-260.5 96.5t-104.5 248.5zM543 333q0 71 -44.5 119t-115.5 48t-115.5 -48t-44.5 -119t44.5 -119t115.5 -48t115.5 48t44.5 119z" />
    <glyph glyph-name="uni041F" unicode="&#x41f;" horiz-adv-x="751" 
d="M495 0v491h-239v-491h-202v667h643v-667h-202z" />
    <glyph glyph-name="uni0420" unicode="&#x420;" horiz-adv-x="662" 
d="M54 0v667h356q113 0 176.5 -65.5t63.5 -163.5q0 -97 -63.5 -160.5t-176.5 -63.5h-154v-214h-202zM445 440q0 26 -17.5 42.5t-43.5 16.5h-128v-117h128q26 0 43.5 16t17.5 42z" />
    <glyph glyph-name="uni0421" unicode="&#x421;" horiz-adv-x="697" 
d="M380 -12q-155 0 -258.5 96.5t-103.5 248.5t103.5 248.5t258.5 96.5q123 0 197.5 -56t110.5 -138l-174 -81q-13 41 -50 69t-84 28q-68 0 -112.5 -48t-44.5 -119t44.5 -119t112.5 -48q47 0 84 28t50 69l174 -80q-16 -37 -40 -68.5t-60.5 -61.5t-90 -47.5t-117.5 -17.5z" />
    <glyph glyph-name="uni0422" unicode="&#x422;" horiz-adv-x="595" 
d="M197 0v491h-179v176h559v-176h-178v-491h-202z" />
    <glyph glyph-name="uni0423" unicode="&#x423;" horiz-adv-x="664" 
d="M461 667h221l-218 -491q-43 -96 -106 -142t-159 -46q-62 0 -95 12l35 174q17 -8 42 -8q44 0 67 26l-265 475h231l140 -271z" />
    <glyph glyph-name="uni0424" unicode="&#x424;" horiz-adv-x="904" 
d="M886 333q0 -117 -86 -183.5t-247 -81.5v-68h-202v68q-161 15 -247 81.5t-86 183.5t86 183.5t247 81.5v69h202v-69q161 -15 247 -81.5t86 -183.5zM223 333q0 -70 128 -86v172q-128 -16 -128 -86zM553 247q128 16 128 86t-128 86v-172z" />
    <glyph glyph-name="uni0425" unicode="&#x425;" horiz-adv-x="684" 
d="M464 0l-122 204l-122 -204h-238l223 342l-208 325h237l108 -190l106 190h239l-208 -324l223 -343h-238z" />
    <glyph glyph-name="uni0426" unicode="&#x426;" horiz-adv-x="768" 
d="M579 0h-525v667h202v-491h219v491h202v-491h78v-299h-176v123z" />
    <glyph glyph-name="uni0427" unicode="&#x427;" horiz-adv-x="691" 
d="M243 456q0 -82 95 -82q52 0 97 25v268h202v-667h-202v243q-72 -45 -173 -45q-221 0 -221 258v211h202v-211z" />
    <glyph glyph-name="uni0428" unicode="&#x428;" horiz-adv-x="1052" 
d="M998 667v-667h-944v667h202v-491h169v491h202v-491h169v491h202z" />
    <glyph glyph-name="uni0429" unicode="&#x429;" horiz-adv-x="1089" 
d="M998 667v-491h78v-299h-176v123h-846v667h202v-491h169v491h202v-491h169v491h202z" />
    <glyph glyph-name="uni042A" unicode="&#x42a;" horiz-adv-x="805" 
d="M197 0v491h-179v176h381v-210h154q113 0 176.5 -65.5t63.5 -162.5q0 -98 -63.5 -163.5t-176.5 -65.5h-356zM399 281v-105h128q27 0 44 13.5t17 39.5q0 25 -17 38.5t-44 13.5h-128z" />
    <glyph glyph-name="uni042B" unicode="&#x42b;" horiz-adv-x="947" 
d="M256 667v-210h154q113 0 176.5 -65.5t63.5 -162.5q0 -98 -63.5 -163.5t-176.5 -65.5h-356v667h202zM691 0v667h202v-667h-202zM256 281v-105h128q27 0 44 13.5t17 39.5q0 25 -17 38.5t-44 13.5h-128z" />
    <glyph glyph-name="uni042C" unicode="&#x42c;" horiz-adv-x="662" 
d="M256 667v-210h154q113 0 176.5 -65.5t63.5 -162.5q0 -98 -63.5 -163.5t-176.5 -65.5h-356v667h202zM256 281v-105h128q27 0 44 13.5t17 39.5q0 25 -17 38.5t-44 13.5h-128z" />
    <glyph glyph-name="uni042D" unicode="&#x42d;" horiz-adv-x="697" 
d="M312 678q159 0 263 -96t104 -249q0 -152 -104.5 -248.5t-262.5 -96.5q-62 0 -114.5 17.5t-88.5 47.5t-60 61.5t-40 68.5l174 80q13 -41 50.5 -69t86.5 -28q102 0 139 87h-230v168h227q-40 79 -136 79q-49 0 -86.5 -28t-50.5 -69l-174 81q36 82 109.5 138t193.5 56z" />
    <glyph glyph-name="uni042E" unicode="&#x42e;" horiz-adv-x="1108" 
d="M725 678q156 0 260.5 -96.5t104.5 -248.5t-104.5 -248.5t-260.5 -96.5q-135 0 -233 73t-124 194h-112v-255h-202v667h202v-236h117q31 112 127.5 179.5t224.5 67.5zM725 166q71 0 115.5 48t44.5 119t-44.5 119t-115.5 48t-115.5 -48t-44.5 -119t44.5 -119t115.5 -48z" />
    <glyph glyph-name="uni042F" unicode="&#x42f;" horiz-adv-x="678" 
d="M27 0l121 236q-49 24 -84.5 74t-35.5 128q0 98 63.5 163.5t176.5 65.5h356v-667h-202v210h-73l-92 -210h-230zM422 386v105h-123q-28 0 -47 -13.5t-19 -38.5q0 -26 19 -39.5t47 -13.5h123z" />
    <glyph glyph-name="uni0430" unicode="&#x430;" horiz-adv-x="559" 
d="M329 0v46q-20 -26 -60.5 -42t-85.5 -16q-62 0 -114 41.5t-52 117.5q0 43 15.5 73.5t41 46t52.5 22.5t57 7q104 0 146 -53v55q0 26 -23.5 43t-66.5 17q-72 0 -134 -47l-61 111q91 73 228 73q48 0 88 -9.5t75 -31t54.5 -63t19.5 -99.5v-292h-180zM329 131v27q-18 26 -71 26
q-63 0 -63 -40q0 -39 63 -39q53 0 71 26z" />
    <glyph glyph-name="uni0431" unicode="&#x431;" horiz-adv-x="577" 
d="M17 295q0 156 73 252t222 121l176 30v-169l-138 -24q-186 -32 -208 -134q31 42 82.5 63t109.5 21q98 0 162 -61.5t64 -160.5q0 -105 -73.5 -175t-198.5 -70q-127 0 -199 82.5t-72 224.5zM375 243q0 40 -23 66.5t-64 26.5q-40 0 -63 -26.5t-23 -66.5q0 -42 23 -69t63 -27
q41 0 64 26.5t23 69.5z" />
    <glyph glyph-name="uni0432" unicode="&#x432;" horiz-adv-x="584" 
d="M50 0v483h348q76 0 117 -38t41 -86q0 -41 -23 -70t-61 -40q42 -8 68.5 -40t26.5 -77q0 -55 -41 -93.5t-117 -38.5h-359zM375 333q0 11 -7.5 19t-20.5 8h-117v-55h117q13 0 20.5 8.5t7.5 19.5zM386 153q0 13 -8.5 21.5t-23.5 8.5h-124v-60h124q15 0 23.5 9t8.5 21z" />
    <glyph glyph-name="uni0433" unicode="&#x433;" horiz-adv-x="457" 
d="M442 327h-212v-327h-180v483h392v-156z" />
    <glyph glyph-name="uni0434" unicode="&#x434;" horiz-adv-x="623" 
d="M18 156h47q37 59 57 238l10 89h425v-327h53v-279h-156v123h-280v-123h-156v279zM264 300q-15 -104 -37 -144h150v171h-109z" />
    <glyph glyph-name="uni0435" unicode="&#x435;" horiz-adv-x="543" 
d="M17 242q0 107 74 180t189 73q109 0 180 -73.5t71 -198.5v-37h-328q8 -26 35.5 -43.5t70.5 -17.5q66 0 109 34l74 -111q-34 -29 -91 -44.5t-115 -15.5q-116 0 -192.5 69t-76.5 185zM280 358q-63 0 -79 -58h159q-14 58 -80 58z" />
    <glyph glyph-name="uni0436" unicode="&#x436;" horiz-adv-x="794" 
d="M597 0l-83 186h-27v-186h-180v186h-27l-83 -186h-209l138 250l-127 233h204l79 -183h25v183h180v-183h25l79 183h204l-127 -233l138 -250h-209z" />
    <glyph glyph-name="uni0437" unicode="&#x437;" horiz-adv-x="502" 
d="M9 64l80 105q63 -46 151 -46q59 0 59 33q0 30 -65 30h-90v114h90q56 0 56 30t-54 30q-83 0 -137 -49l-85 101q84 82 239 82q106 1 164 -36t59 -99q0 -39 -34.5 -70t-87.5 -40q50 -3 90.5 -34.5t40.5 -78.5q0 -66 -66 -106.5t-176 -41.5q-155 0 -234 76z" />
    <glyph glyph-name="uni0438" unicode="&#x438;" horiz-adv-x="607" 
d="M50 0v483h180v-235l145 235h182v-483h-180v249l-155 -249h-172z" />
    <glyph glyph-name="uni0439" unicode="&#x439;" horiz-adv-x="607" 
d="M303 540q-56 0 -105.5 25.5t-83.5 69.5l93 76q36 -53 96 -53q61 0 97 53l91 -76q-33 -44 -82 -69.5t-106 -25.5zM50 0v483h180v-235l145 235h182v-483h-180v249l-155 -249h-172z" />
    <glyph glyph-name="uni043A" unicode="&#x43a;" horiz-adv-x="557" 
d="M348 0l-83 156l-35 -47v-109h-180v483h180v-172l111 172h217l-166 -220l177 -263h-221z" />
    <glyph glyph-name="uni043B" unicode="&#x43b;" horiz-adv-x="607" 
d="M18 156q17 0 27.5 4.5t26 24t27 69t19.5 128.5l10 101h429v-483h-180v327h-107l-4 -36q-18 -162 -73.5 -232.5t-174.5 -70.5v168z" />
    <glyph glyph-name="uni043C" unicode="&#x43c;" horiz-adv-x="743" 
d="M519 0v283l-98 -283h-98l-98 283v-283h-175v483h233l88 -253l89 253h233v-483h-174z" />
    <glyph glyph-name="uni043D" unicode="&#x43d;" horiz-adv-x="607" 
d="M50 0v483h180v-153h147v153h180v-483h-180v174h-147v-174h-180z" />
    <glyph glyph-name="uni043E" unicode="&#x43e;" horiz-adv-x="577" 
d="M288 -12q-124 0 -197.5 74t-73.5 180t73.5 179.5t197.5 73.5t198 -73.5t74 -179.5t-74 -180t-198 -74zM288 147q41 0 64 26.5t23 68.5q0 41 -23 67.5t-64 26.5q-40 0 -63 -26.5t-23 -67.5q0 -42 23 -68.5t63 -26.5z" />
    <glyph glyph-name="uni043F" unicode="&#x43f;" horiz-adv-x="607" 
d="M377 0v327h-147v-327h-180v483h507v-483h-180z" />
    <glyph glyph-name="uni0440" unicode="&#x440;" horiz-adv-x="595" 
d="M230 -184h-180v667h180v-51q53 63 136 63q93 0 152.5 -66.5t59.5 -186.5q0 -121 -59.5 -187.5t-152.5 -66.5q-81 0 -136 63v-235zM394 242q0 43 -26 68.5t-64 25.5q-19 0 -40.5 -9t-33.5 -24v-123q11 -14 33.5 -23.5t40.5 -9.5q38 0 64 25.5t26 69.5z" />
    <glyph glyph-name="uni0441" unicode="&#x441;" horiz-adv-x="502" 
d="M17 242q0 113 77 183t194 70q75 0 128 -27.5t77 -63.5l-116 -109q-27 41 -81 41q-40 0 -67.5 -24.5t-27.5 -69.5t27.5 -70t67.5 -25q52 0 81 42l116 -110q-24 -36 -77 -63.5t-128 -27.5q-117 0 -194 70t-77 184z" />
    <glyph glyph-name="uni0442" unicode="&#x442;" horiz-adv-x="466" 
d="M144 0v327h-129v156h436v-156h-127v-327h-180z" />
    <glyph glyph-name="uni0443" unicode="&#x443;" horiz-adv-x="535" 
d="M70 -28q16 -9 38 -9q54 0 63 19l4 10l-190 491h190l92 -276l93 276h190l-210 -543q-30 -78 -84 -105.5t-141 -30.5q-43 0 -70 8z" />
    <glyph glyph-name="uni0444" unicode="&#x444;" horiz-adv-x="754" 
d="M737 242q0 -119 -73 -184.5t-197 -69.5v-172h-180v172q-124 4 -197 69.5t-73 184.5t73 184t197 69v172h180v-172q124 -4 197 -69t73 -184zM202 242q0 -47 24.5 -78.5t65.5 -31.5v219q-41 0 -65.5 -31.5t-24.5 -77.5zM462 132q41 0 65.5 31.5t24.5 78.5q0 46 -24.5 77.5
t-65.5 31.5v-219z" />
    <glyph glyph-name="uni0445" unicode="&#x445;" horiz-adv-x="521" 
d="M336 0l-75 128l-77 -128h-196l158 248l-148 235h197l65 -113l65 113h197l-148 -235l159 -248h-197z" />
    <glyph glyph-name="uni0446" unicode="&#x446;" horiz-adv-x="613" 
d="M444 0h-394v483h180v-327h137v327h180v-327h53v-279h-156v123z" />
    <glyph glyph-name="uni0447" unicode="&#x447;" horiz-adv-x="597" 
d="M220 483v-126q0 -69 70 -69q46 0 77 21v174h180v-483h-180v167q-59 -38 -147 -38q-180 0 -180 172v182h180z" />
    <glyph glyph-name="uni0448" unicode="&#x448;" horiz-adv-x="896" 
d="M846 483v-483h-796v483h180v-327h128v327h180v-327h128v327h180z" />
    <glyph glyph-name="uni0449" unicode="&#x449;" horiz-adv-x="912" 
d="M846 483v-327h53v-279h-156v123h-693v483h180v-327h128v327h180v-327h128v327h180z" />
    <glyph glyph-name="uni044A" unicode="&#x44a;" horiz-adv-x="678" 
d="M144 0v327h-129v156h309v-124h152q87 0 136 -53t49 -127q0 -72 -51 -125.5t-134 -53.5h-332zM324 218v-77h113q20 0 31 11t11 27q0 17 -11 28t-31 11h-113z" />
    <glyph glyph-name="uni044B" unicode="&#x44b;" horiz-adv-x="838" 
d="M230 483v-124h152q87 0 136 -53t49 -127q0 -72 -51 -125.5t-134 -53.5h-332v483h180zM608 0v483h180v-483h-180zM230 218v-77h113q20 0 31 11t11 27q0 17 -11 28t-31 11h-113z" />
    <glyph glyph-name="uni044C" unicode="&#x44c;" horiz-adv-x="584" 
d="M230 483v-124h152q87 0 136 -53t49 -127q0 -72 -51 -125.5t-134 -53.5h-332v483h180zM230 218v-77h113q20 0 31 11t11 27q0 17 -11 28t-31 11h-113z" />
    <glyph glyph-name="uni044D" unicode="&#x44d;" horiz-adv-x="501" 
d="M215 495q116 0 192.5 -70t76.5 -183q0 -116 -76.5 -185t-192.5 -69q-58 0 -115 15.5t-91 44.5l74 111q43 -34 109 -34q43 0 70.5 17.5t35.5 43.5h-177v114h175q-7 23 -34 40.5t-70 17.5q-66 0 -104 -38l-74 111q33 31 88.5 47.5t112.5 16.5z" />
    <glyph glyph-name="uni044E" unicode="&#x44e;" horiz-adv-x="854" 
d="M565 495q124 0 198 -73.5t74 -179.5t-74 -180t-198 -74q-102 0 -171 52t-91 134h-73v-174h-180v483h180v-153h79q27 74 94 119.5t162 45.5zM565 147q41 0 64 26.5t23 68.5q0 41 -23 67.5t-64 26.5q-40 0 -63 -26.5t-23 -67.5q0 -42 23 -68.5t63 -26.5z" />
    <glyph glyph-name="uni044F" unicode="&#x44f;" horiz-adv-x="580" 
d="M17 0l95 162q-36 16 -65 53t-29 99q0 71 50.5 120t134.5 49h332v-483h-180v153h-71l-67 -153h-200zM355 276v84h-108q-22 0 -34.5 -12.5t-12.5 -28.5q0 -17 12.5 -30t34.5 -13h108z" />
    <glyph glyph-name="uni0451" unicode="&#x451;" horiz-adv-x="543" 
d="M172 529q-38 0 -63.5 25.5t-25.5 63.5t25.5 63.5t63.5 25.5t63.5 -25.5t25.5 -63.5t-25.5 -63.5t-63.5 -25.5zM388 529q-37 0 -63 26t-26 63t26 63t63 26q38 0 64 -26t26 -63t-26 -63t-64 -26zM17 242q0 107 74 180t189 73q109 0 180 -73.5t71 -198.5v-37h-328
q8 -26 35.5 -43.5t70.5 -17.5q66 0 109 34l74 -111q-34 -29 -91 -44.5t-115 -15.5q-116 0 -192.5 69t-76.5 185zM280 358q-63 0 -79 -58h159q-14 58 -80 58z" />
    <glyph glyph-name="uni0452" unicode="&#x452;" horiz-adv-x="613" 
d="M306 -192v145q10 -2 24 -2q53 0 53 70v246q0 69 -70 69q-43 0 -77 -38v-298h-180v521h-49v97h49v49h180v-49h134v-97h-134v-93q59 67 166 67q80 0 120.5 -42.5t40.5 -109.5v-322q0 -98 -50 -157.5t-151 -59.5q-36 0 -56 4z" />
    <glyph glyph-name="uni0453" unicode="&#x453;" horiz-adv-x="457" 
d="M318 556h-150l120 144h185zM442 327h-212v-327h-180v483h392v-156z" />
    <glyph glyph-name="uni0454" unicode="&#x454;" horiz-adv-x="502" 
d="M309 125q66 0 109 34l74 -111q-34 -29 -91 -44.5t-115 -15.5q-116 0 -192.5 69t-76.5 185q0 113 76.5 183t192.5 70q57 0 112.5 -16.5t88.5 -47.5l-74 -111q-38 38 -104 38q-43 0 -70 -17.5t-34 -40.5h175v-114h-177q8 -26 35.5 -43.5t70.5 -17.5z" />
    <glyph glyph-name="uni0455" unicode="&#x455;" horiz-adv-x="490" 
d="M9 62l72 121q29 -23 82 -42t92 -19q48 0 48 23q0 11 -15.5 17t-52.5 11q-26 3 -37.5 5t-38 8t-40.5 12.5t-34 18.5t-30 26.5t-18 37t-8 49.5q0 69 57.5 117t158.5 48q115 0 209 -62l-66 -117q-25 20 -63.5 35t-78.5 15q-45 0 -45 -21q0 -10 13 -16t49 -11q26 -4 38 -6
t39 -8t41.5 -13t35 -19.5t31.5 -28t19 -38.5t8 -51q0 -73 -62 -119.5t-167 -46.5q-66 0 -132 20.5t-105 53.5z" />
    <glyph glyph-name="uni0456" unicode="&#x456;" horiz-adv-x="280" 
d="M140 518q-42 0 -71.5 29.5t-29.5 71.5t29.5 71.5t71.5 29.5t71.5 -29.5t29.5 -71.5t-29.5 -71.5t-71.5 -29.5zM50 0v483h180v-483h-180z" />
    <glyph glyph-name="uni0457" unicode="&#x457;" horiz-adv-x="280" 
d="M32 529q-38 0 -63.5 25.5t-25.5 63.5t25.5 63.5t63.5 25.5t63.5 -25.5t25.5 -63.5t-25.5 -63.5t-63.5 -25.5zM248 529q-37 0 -63 26t-26 63t26 63t63 26q38 0 64 -26t26 -63t-26 -63t-64 -26zM50 0v483h180v-483h-180z" />
    <glyph glyph-name="uni0458" unicode="&#x458;" horiz-adv-x="280" 
d="M140 518q-42 0 -71.5 29.5t-29.5 71.5t29.5 71.5t71.5 29.5t71.5 -29.5t29.5 -71.5t-29.5 -71.5t-71.5 -29.5zM230 483v-462q0 -98 -50 -157.5t-151 -59.5q-36 0 -56 4v145q10 -2 24 -2q53 0 53 70v462h180z" />
    <glyph glyph-name="uni0459" unicode="&#x459;" horiz-adv-x="911" 
d="M18 156q17 0 27.5 4.5t26 24t27 69t19.5 128.5l10 101h429v-124h152q87 0 136 -53t49 -127q0 -72 -51 -125.5t-134 -53.5h-332v327h-107l-4 -36q-18 -162 -73.5 -232.5t-174.5 -70.5v168zM557 218v-77h113q20 0 31 11t11 27q0 17 -11 28t-31 11h-113z" />
    <glyph glyph-name="uni045A" unicode="&#x45a;" horiz-adv-x="911" 
d="M50 0v483h180v-153h147v153h180v-124h152q87 0 136 -53t49 -127q0 -72 -51 -125.5t-134 -53.5h-332v174h-147v-174h-180zM557 218v-77h113q20 0 31 11t11 27q0 17 -11 28t-31 11h-113z" />
    <glyph glyph-name="uni045B" unicode="&#x45b;" horiz-adv-x="613" 
d="M402 495q80 0 120.5 -41.5t40.5 -108.5v-345h-180v269q0 67 -70 67q-43 0 -77 -38v-298h-180v521h-49v97h49v49h180v-49h134v-97h-134v-93q59 67 166 67z" />
    <glyph glyph-name="uni045C" unicode="&#x45c;" horiz-adv-x="557" 
d="M360 556h-150l120 144h185zM348 0l-83 156l-35 -47v-109h-180v483h180v-172l111 172h217l-166 -220l177 -263h-221z" />
    <glyph glyph-name="uni045E" unicode="&#x45e;" horiz-adv-x="535" 
d="M267 540q-56 0 -105.5 25.5t-83.5 69.5l93 76q36 -53 96 -53q61 0 97 53l91 -76q-33 -44 -82 -69.5t-106 -25.5zM70 -28q16 -9 38 -9q54 0 63 19l4 10l-190 491h190l92 -276l93 276h190l-210 -543q-30 -78 -84 -105.5t-141 -30.5q-43 0 -70 8z" />
    <glyph glyph-name="uni045F" unicode="&#x45f;" horiz-adv-x="597" 
d="M547 483v-483h-171v-123h-156v123h-170v483h180v-327h137v327h180z" />
    <glyph glyph-name="uni0490" unicode="&#x490;" horiz-adv-x="592" 
d="M256 0h-202v667h330v123h176v-299h-304v-491z" />
    <glyph glyph-name="uni0491" unicode="&#x491;" horiz-adv-x="457" 
d="M230 0h-180v483h236v123h156v-279h-212v-327z" />
    <glyph glyph-name="uni0492" unicode="&#x492;" horiz-adv-x="592" 
d="M560 491h-304v-78h150v-159h-150v-254h-202v254h-47v159h47v254h506v-176z" />
    <glyph glyph-name="uni0493" unicode="&#x493;" horiz-adv-x="457" 
d="M442 327h-212v-37h101v-114h-101v-176h-180v176h-43v114h43v193h392v-156z" />
    <glyph glyph-name="uni049A" unicode="&#x49a;" horiz-adv-x="728" 
d="M559 176h162v-299h-176v123h-102l-150 235l-37 -50v-185h-202v667h202v-250l175 250h247l-252 -310z" />
    <glyph glyph-name="uni049B" unicode="&#x49b;" horiz-adv-x="614" 
d="M464 156h143v-279h-156v123h-103l-83 156l-35 -47v-109h-180v483h180v-172l111 172h217l-166 -220z" />
    <glyph glyph-name="uni04B0" unicode="&#x4b0;" horiz-adv-x="664" 
d="M682 667l-199 -323h130v-159h-179v-185h-202v185h-179v159h130l-201 323h227l124 -225l122 225h227z" />
    <glyph glyph-name="uni04B1" unicode="&#x4b1;" horiz-adv-x="535" 
d="M550 483l-152 -369h95v-114h-136v-184h-180v184h-135v114h95l-152 369h190l92 -276l93 276h190z" />
    <glyph glyph-name="uni04B2" unicode="&#x4b2;" horiz-adv-x="741" 
d="M588 176h146v-299h-176v123h-94l-122 204l-122 -204h-238l223 342l-208 325h237l108 -190l106 190h239l-208 -324z" />
    <glyph glyph-name="uni04B3" unicode="&#x4b3;" horiz-adv-x="578" 
d="M433 156h138v-279h-156v123h-79l-75 128l-77 -128h-196l158 248l-148 235h197l65 -113l65 113h197l-148 -235z" />
    <glyph glyph-name="uni04C9" unicode="&#x4c9;" horiz-adv-x="788" 
d="M599 -123v123h-104v255h-239v-255h-202v667h202v-236h239v236h202v-491h78v-299h-176z" />
    <glyph glyph-name="uni04CA" unicode="&#x4ca;" horiz-adv-x="623" 
d="M454 -123v123h-77v174h-147v-174h-180v483h180v-153h147v153h180v-327h53v-279h-156z" />
    <glyph glyph-name="uni04E8" unicode="&#x4e8;" horiz-adv-x="766" 
d="M383 678q156 0 260.5 -96.5t104.5 -248.5t-104.5 -248.5t-260.5 -96.5t-260.5 96.5t-104.5 248.5t104.5 248.5t260.5 96.5zM383 510q-49 0 -86 -24.5t-56 -64.5h284q-19 40 -56 64.5t-86 24.5zM383 156q51 0 89.5 26.5t56.5 70.5h-292q18 -44 56.5 -70.5t89.5 -26.5z" />
    <glyph glyph-name="uni04E9" unicode="&#x4e9;" horiz-adv-x="577" 
d="M288 495q124 0 198 -73.5t74 -179.5t-74 -180t-198 -74t-197.5 74t-73.5 180t73.5 179.5t197.5 73.5zM288 358q-58 0 -78 -58h157q-20 58 -79 58zM288 125q60 0 80 61h-159q18 -61 79 -61z" />
    <glyph glyph-name="uni1E02" unicode="&#x1e02;" horiz-adv-x="697" 
d="M263 786q0 37 26 63t63 26q36 0 62 -26t26 -63t-26 -63t-62 -26q-37 0 -63 26t-26 63zM54 0v667h405q96 0 147 -52t51 -118q0 -61 -32 -101.5t-82 -51.5q55 -8 91 -53.5t36 -109.5q0 -75 -51 -128t-146 -53h-419zM256 419h156q16 0 28 12.5t12 30.5q0 17 -12 29t-28 12
h-156v-84zM256 164h162q21 0 34 13t13 32t-13 32.5t-34 13.5h-162v-91z" />
    <glyph glyph-name="uni1E03" unicode="&#x1e03;" 
d="M216 786q0 37 26 63t63 26q36 0 62 -26t26 -63t-26 -63t-62 -26q-37 0 -63 26t-26 63zM50 0v667h180v-235q52 63 136 63q92 0 152.5 -68t60.5 -185q0 -120 -60.5 -187t-152.5 -67q-80 0 -136 63v-51h-180zM230 179q26 -32 75 -32q38 0 64 25.5t26 69.5q0 43 -26 68.5
t-64 25.5q-48 0 -75 -33v-124z" />
    <glyph glyph-name="uni1E0A" unicode="&#x1e0a;" horiz-adv-x="736" 
d="M277 786q0 37 26 63t63 26q36 0 62 -26t26 -63t-26 -63t-62 -26q-37 0 -63 26t-26 63zM54 0v667h298q162 0 264 -88.5t102 -244.5t-102 -245t-263 -89h-299zM256 176h96q73 0 117 46t44 112q0 71 -41 114t-119 43h-97v-315z" />
    <glyph glyph-name="uni1E0B" unicode="&#x1e0b;" 
d="M212 786q0 37 26 63t63 26q36 0 62 -26t26 -63t-26 -63t-62 -26q-37 0 -63 26t-26 63zM366 0v51q-56 -63 -136 -63q-92 0 -152.5 67t-60.5 187q0 117 60.5 185t152.5 68q84 0 136 -63v235h180v-667h-180zM366 180v124q-26 32 -75 32q-38 0 -64 -25.5t-26 -68.5
q0 -44 26 -69.5t64 -25.5q48 0 75 33z" />
    <glyph glyph-name="uni1E1E" unicode="&#x1e1e;" horiz-adv-x="592" 
d="M220 786q0 37 26 63t63 26q36 0 62 -26t26 -63t-26 -63t-62 -26q-37 0 -63 26t-26 63zM54 0v667h506v-168h-304v-78h297v-168h-297v-253h-202z" />
    <glyph glyph-name="uni1E1F" unicode="&#x1e1f;" horiz-adv-x="371" 
d="M152 786q0 37 26 63t63 26q36 0 62 -26t26 -63t-26 -63t-62 -26q-37 0 -63 26t-26 63zM87 0v327h-80v156h80v22q0 75 52 123.5t132 48.5q67 0 112 -24l-32 -120q-17 11 -38 11t-33.5 -12t-12.5 -33v-16h98v-156h-98v-327h-180z" />
    <glyph glyph-name="uni1E22" unicode="&#x1e22;" horiz-adv-x="751" 
d="M287 786q0 37 26 63t63 26q36 0 62 -26t26 -63t-26 -63t-62 -26q-37 0 -63 26t-26 63zM495 0v255h-239v-255h-202v667h202v-236h239v236h202v-667h-202z" />
    <glyph glyph-name="uni1E23" unicode="&#x1e23;" horiz-adv-x="608" 
d="M215 786q0 37 26 63t63 26q36 0 62 -26t26 -63t-26 -63t-62 -26q-37 0 -63 26t-26 63zM378 0v269q0 67 -70 67q-43 0 -77 -38v-298h-180v667h180v-239q59 67 166 67q80 0 120.5 -41.5t40.5 -108.5v-345h-180z" />
    <glyph glyph-name="uni1E56" unicode="&#x1e56;" horiz-adv-x="662" 
d="M255 786q0 37 26 63t63 26q36 0 62 -26t26 -63t-26 -63t-62 -26q-37 0 -63 26t-26 63zM54 0v667h356q113 0 176.5 -65.5t63.5 -163.5q0 -97 -63.5 -160.5t-176.5 -63.5h-154v-214h-202zM445 440q0 26 -17.5 42.5t-43.5 16.5h-128v-117h128q26 0 43.5 16t17.5 42z" />
    <glyph glyph-name="uni1E57" unicode="&#x1e57;" horiz-adv-x="595" 
d="M240 619q0 37 26 63t63 26q36 0 62 -26t26 -63t-26 -63t-62 -26q-37 0 -63 26t-26 63zM230 -184h-180v667h180v-51q53 63 136 63q93 0 152.5 -66.5t59.5 -186.5q0 -121 -59.5 -187.5t-152.5 -66.5q-81 0 -136 63v-235zM394 242q0 43 -26 68.5t-64 25.5q-19 0 -40.5 -9
t-33.5 -24v-123q11 -14 33.5 -23.5t40.5 -9.5q38 0 64 25.5t26 69.5z" />
    <glyph glyph-name="uni1E60" unicode="&#x1e60;" horiz-adv-x="613" 
d="M213 786q0 37 26 63t63 26q36 0 62 -26t26 -63t-26 -63t-62 -26q-37 0 -63 26t-26 63zM3 94l105 150q90 -86 215 -86q31 0 52.5 10.5t21.5 28.5q0 19 -21.5 30.5t-72.5 20.5q-123 22 -174 48q-104 53 -104 165q0 90 73 153t204 63q169 0 283 -93l-108 -143q-42 32 -93 49
t-93 17q-61 0 -61 -35q0 -19 21 -28.5t77 -18.5q44 -8 72 -14t70.5 -22t67.5 -36t44 -54.5t19 -78.5q0 -110 -76.5 -171t-211.5 -61q-192 0 -310 106z" />
    <glyph glyph-name="uni1E61" unicode="&#x1e61;" horiz-adv-x="490" 
d="M156 619q0 37 26 63t63 26q36 0 62 -26t26 -63t-26 -63t-62 -26q-37 0 -63 26t-26 63zM9 62l72 121q29 -23 82 -42t92 -19q48 0 48 23q0 11 -15.5 17t-52.5 11q-26 3 -37.5 5t-38 8t-40.5 12.5t-34 18.5t-30 26.5t-18 37t-8 49.5q0 69 57.5 117t158.5 48q115 0 209 -62
l-66 -117q-25 20 -63.5 35t-78.5 15q-45 0 -45 -21q0 -10 13 -16t49 -11q26 -4 38 -6t39 -8t41.5 -13t35 -19.5t31.5 -28t19 -38.5t8 -51q0 -73 -62 -119.5t-167 -46.5q-66 0 -132 20.5t-105 53.5z" />
    <glyph glyph-name="uni1E6A" unicode="&#x1e6a;" horiz-adv-x="595" 
d="M209 786q0 37 26 63t63 26q36 0 62 -26t26 -63t-26 -63t-62 -26q-37 0 -63 26t-26 63zM197 0v491h-179v176h559v-176h-178v-491h-202z" />
    <glyph glyph-name="uni1E6B" unicode="&#x1e6b;" horiz-adv-x="382" 
d="M90 786q0 37 26 63t63 26q36 0 62 -26t26 -63t-26 -63t-62 -26q-37 0 -63 26t-26 63zM253 -12q-81 0 -123.5 38.5t-42.5 113.5v187h-80v156h80v132h180v-132h98v-156h-98v-135q0 -19 11 -32t29 -13q27 0 36 9l32 -136q-36 -32 -122 -32z" />
    <glyph glyph-name="Wgrave" unicode="&#x1e80;" horiz-adv-x="954" 
d="M419 723l-155 144h155l120 -144h-120zM563 0l-86 378l-86 -378h-212l-191 667h226l86 -408l101 408h152l101 -408l85 408h227l-191 -667h-212z" />
    <glyph glyph-name="wgrave" unicode="&#x1e81;" horiz-adv-x="805" 
d="M344 556l-155 144h155l120 -144h-120zM481 0l-79 270l-78 -270h-196l-140 483h185l64 -266l85 266h161l84 -266l64 266h186l-140 -483h-196z" />
    <glyph glyph-name="Wacute" unicode="&#x1e82;" horiz-adv-x="954" 
d="M533 723h-120l120 144h155zM563 0l-86 378l-86 -378h-212l-191 667h226l86 -408l101 408h152l101 -408l85 408h227l-191 -667h-212z" />
    <glyph glyph-name="wacute" unicode="&#x1e83;" horiz-adv-x="805" 
d="M458 556h-120l120 144h155zM481 0l-79 270l-78 -270h-196l-140 483h185l64 -266l85 266h161l84 -266l64 266h186l-140 -483h-196z" />
    <glyph glyph-name="Wdieresis" unicode="&#x1e84;" horiz-adv-x="954" 
d="M369 696q-37 0 -63 26t-26 63t26 63t63 26t63 -26t26 -63t-26 -63t-63 -26zM585 696q-37 0 -63 26t-26 63t26 63t63 26q38 0 64 -26t26 -63t-26 -63t-64 -26zM563 0l-86 378l-86 -378h-212l-191 667h226l86 -408l101 408h152l101 -408l85 408h227l-191 -667h-212z" />
    <glyph glyph-name="wdieresis" unicode="&#x1e85;" horiz-adv-x="805" 
d="M294 529q-38 0 -63.5 25.5t-25.5 63.5t25.5 63.5t63.5 25.5t63.5 -25.5t25.5 -63.5t-25.5 -63.5t-63.5 -25.5zM510 529q-37 0 -63 26t-26 63t26 63t63 26q38 0 64 -26t26 -63t-26 -63t-64 -26zM481 0l-79 270l-78 -270h-196l-140 483h185l64 -266l85 266h161l84 -266
l64 266h186l-140 -483h-196z" />
    <glyph glyph-name="uni1E9E" unicode="&#x1e9e;" horiz-adv-x="746" 
d="M569 411q76 -15 120.5 -67.5t44.5 -128.5q0 -101 -75 -164t-184 -63q-129 0 -189 54l79 155q44 -31 110 -31q30 0 52.5 13t22.5 41q0 29 -29 40t-91 11h-64v126l70 95q-24 8 -52 8q-60 0 -92.5 -32.5t-32.5 -82.5v-385h-205v392q0 129 83.5 207.5t246.5 78.5
q203 0 289 -129z" />
    <glyph glyph-name="uni1EA0" unicode="&#x1ea0;" horiz-adv-x="710" 
d="M509 0l-26 86h-256l-26 -86h-219l246 667h254l246 -667h-219zM355 489l-76 -235h152zM265 -121q0 37 26 63t63 26q36 0 62 -26t26 -63t-26 -63t-62 -26q-37 0 -63 26t-26 63z" />
    <glyph glyph-name="uni1EA1" unicode="&#x1ea1;" horiz-adv-x="559" 
d="M329 0v46q-20 -26 -60.5 -42t-85.5 -16q-62 0 -114 41.5t-52 117.5q0 43 15.5 73.5t41 46t52.5 22.5t57 7q104 0 146 -53v55q0 26 -23.5 43t-66.5 17q-72 0 -134 -47l-61 111q91 73 228 73q48 0 88 -9.5t75 -31t54.5 -63t19.5 -99.5v-292h-180zM329 131v27q-18 26 -71 26
q-63 0 -63 -40q0 -39 63 -39q53 0 71 26zM188 -121q0 37 26 63t63 26q36 0 62 -26t26 -63t-26 -63t-62 -26q-37 0 -63 26t-26 63z" />
    <glyph glyph-name="uni1EA2" unicode="&#x1ea2;" horiz-adv-x="710" 
d="M237 808q13 38 43 56.5t68 18.5q49 0 82 -24t33 -73q0 -27 -16 -63h-91q22 25 22 58q0 31 -30 31q-23 0 -36 -29zM509 0l-26 86h-256l-26 -86h-219l246 667h254l246 -667h-219zM355 489l-76 -235h152z" />
    <glyph glyph-name="uni1EA3" unicode="&#x1ea3;" horiz-adv-x="559" 
d="M159 641q13 38 43 56.5t68 18.5q49 0 82 -24t33 -73q0 -27 -16 -63h-91q22 25 22 58q0 31 -30 31q-23 0 -36 -29zM329 0v46q-20 -26 -60.5 -42t-85.5 -16q-62 0 -114 41.5t-52 117.5q0 43 15.5 73.5t41 46t52.5 22.5t57 7q104 0 146 -53v55q0 26 -23.5 43t-66.5 17
q-72 0 -134 -47l-61 111q91 73 228 73q48 0 88 -9.5t75 -31t54.5 -63t19.5 -99.5v-292h-180zM329 131v27q-18 26 -71 26q-63 0 -63 -40q0 -39 63 -39q53 0 71 26z" />
    <glyph glyph-name="uni1EA4" unicode="&#x1ea4;" horiz-adv-x="710" 
d="M615 780h-120l120 108h155zM419 705l-64 55l-61 -55h-105l88 108h156l91 -108h-105zM509 0l-26 86h-256l-26 -86h-219l246 667h254l246 -667h-219zM355 489l-76 -235h152z" />
    <glyph glyph-name="uni1EA5" unicode="&#x1ea5;" horiz-adv-x="559" 
d="M537 656h-120l120 144h155zM341 556l-64 73l-61 -73h-105l88 144h156l91 -144h-105zM329 0v46q-20 -26 -60.5 -42t-85.5 -16q-62 0 -114 41.5t-52 117.5q0 43 15.5 73.5t41 46t52.5 22.5t57 7q104 0 146 -53v55q0 26 -23.5 43t-66.5 17q-72 0 -134 -47l-61 111
q91 73 228 73q48 0 88 -9.5t75 -31t54.5 -63t19.5 -99.5v-292h-180zM329 131v27q-18 26 -71 26q-63 0 -63 -40q0 -39 63 -39q53 0 71 26z" />
    <glyph glyph-name="uni1EA6" unicode="&#x1ea6;" horiz-adv-x="710" 
d="M101 780l-155 108h155l120 -108h-120zM419 705l-64 55l-61 -55h-105l88 108h156l91 -108h-105zM509 0l-26 86h-256l-26 -86h-219l246 667h254l246 -667h-219zM355 489l-76 -235h152z" />
    <glyph glyph-name="uni1EA7" unicode="&#x1ea7;" horiz-adv-x="559" 
d="M23 656l-155 144h155l120 -144h-120zM341 556l-64 73l-61 -73h-105l88 144h156l91 -144h-105zM329 0v46q-20 -26 -60.5 -42t-85.5 -16q-62 0 -114 41.5t-52 117.5q0 43 15.5 73.5t41 46t52.5 22.5t57 7q104 0 146 -53v55q0 26 -23.5 43t-66.5 17q-72 0 -134 -47l-61 111
q91 73 228 73q48 0 88 -9.5t75 -31t54.5 -63t19.5 -99.5v-292h-180zM329 131v27q-18 26 -71 26q-63 0 -63 -40q0 -39 63 -39q53 0 71 26z" />
    <glyph glyph-name="uni1EA8" unicode="&#x1ea8;" horiz-adv-x="710" 
d="M376 843q25 56 111 56q49 0 82 -18t33 -55q0 -20 -16 -47h-91q22 19 22 44q0 23 -30 23q-23 0 -36 -22zM419 705l-64 55l-61 -55h-105l88 108h156l91 -108h-105zM509 0l-26 86h-256l-26 -86h-219l246 667h254l246 -667h-219zM355 489l-76 -235h152z" />
    <glyph glyph-name="uni1EA9" unicode="&#x1ea9;" horiz-adv-x="559" 
d="M298 740q13 38 43 56.5t68 18.5q49 0 82 -24t33 -73q0 -27 -16 -63h-91q22 25 22 58q0 31 -30 31q-23 0 -36 -29zM341 556l-64 73l-61 -73h-105l88 144h156l91 -144h-105zM329 0v46q-20 -26 -60.5 -42t-85.5 -16q-62 0 -114 41.5t-52 117.5q0 43 15.5 73.5t41 46
t52.5 22.5t57 7q104 0 146 -53v55q0 26 -23.5 43t-66.5 17q-72 0 -134 -47l-61 111q91 73 228 73q48 0 88 -9.5t75 -31t54.5 -63t19.5 -99.5v-292h-180zM329 131v27q-18 26 -71 26q-63 0 -63 -40q0 -39 63 -39q53 0 71 26z" />
    <glyph glyph-name="uni1EAA" unicode="&#x1eaa;" horiz-adv-x="710" 
d="M330 846q-22 11 -32 11q-24 0 -24 -28h-89q0 101 118 101q36 0 78 -21q24 -12 32 -12q24 0 24 28h89q0 -100 -118 -100q-36 0 -78 21zM419 705l-64 55l-61 -55h-105l88 108h156l91 -108h-105zM509 0l-26 86h-256l-26 -86h-219l246 667h254l246 -667h-219zM355 489
l-76 -235h152z" />
    <glyph glyph-name="uni1EAB" unicode="&#x1eab;" horiz-adv-x="559" 
d="M252 744q-22 15 -32 15q-24 0 -24 -37h-89q0 134 118 134q36 0 78 -28q23 -15 32 -15q24 0 24 37h89q0 -134 -118 -134q-36 0 -78 28zM341 556l-64 73l-61 -73h-105l88 144h156l91 -144h-105zM329 0v46q-20 -26 -60.5 -42t-85.5 -16q-62 0 -114 41.5t-52 117.5
q0 43 15.5 73.5t41 46t52.5 22.5t57 7q104 0 146 -53v55q0 26 -23.5 43t-66.5 17q-72 0 -134 -47l-61 111q91 73 228 73q48 0 88 -9.5t75 -31t54.5 -63t19.5 -99.5v-292h-180zM329 131v27q-18 26 -71 26q-63 0 -63 -40q0 -39 63 -39q53 0 71 26z" />
    <glyph glyph-name="uni1EAC" unicode="&#x1eac;" horiz-adv-x="710" 
d="M419 723l-64 73l-61 -73h-105l88 144h156l91 -144h-105zM509 0l-26 86h-256l-26 -86h-219l246 667h254l246 -667h-219zM355 489l-76 -235h152zM265 -121q0 37 26 63t63 26q36 0 62 -26t26 -63t-26 -63t-62 -26q-37 0 -63 26t-26 63z" />
    <glyph glyph-name="uni1EAD" unicode="&#x1ead;" horiz-adv-x="559" 
d="M341 556l-64 73l-61 -73h-105l88 144h156l91 -144h-105zM329 0v46q-20 -26 -60.5 -42t-85.5 -16q-62 0 -114 41.5t-52 117.5q0 43 15.5 73.5t41 46t52.5 22.5t57 7q104 0 146 -53v55q0 26 -23.5 43t-66.5 17q-72 0 -134 -47l-61 111q91 73 228 73q48 0 88 -9.5t75 -31
t54.5 -63t19.5 -99.5v-292h-180zM329 131v27q-18 26 -71 26q-63 0 -63 -40q0 -39 63 -39q53 0 71 26zM188 -121q0 37 26 63t63 26q36 0 62 -26t26 -63t-26 -63t-62 -26q-37 0 -63 26t-26 63z" />
    <glyph glyph-name="uni1EAE" unicode="&#x1eae;" horiz-adv-x="710" 
d="M411 816h-120l120 108h155zM355 701q-110 0 -176 66l76 46q38 -40 100 -40t100 40l75 -46q-64 -66 -175 -66zM509 0l-26 86h-256l-26 -86h-219l246 667h254l246 -667h-219zM355 489l-76 -235h152z" />
    <glyph glyph-name="uni1EAF" unicode="&#x1eaf;" horiz-adv-x="559" 
d="M333 704h-120l120 144h155zM277 550q-109 0 -176 88l76 62q38 -53 100 -53q63 0 100 53l75 -62q-65 -88 -175 -88zM329 0v46q-20 -26 -60.5 -42t-85.5 -16q-62 0 -114 41.5t-52 117.5q0 43 15.5 73.5t41 46t52.5 22.5t57 7q104 0 146 -53v55q0 26 -23.5 43t-66.5 17
q-72 0 -134 -47l-61 111q91 73 228 73q48 0 88 -9.5t75 -31t54.5 -63t19.5 -99.5v-292h-180zM329 131v27q-18 26 -71 26q-63 0 -63 -40q0 -39 63 -39q53 0 71 26z" />
    <glyph glyph-name="uni1EB0" unicode="&#x1eb0;" horiz-adv-x="710" 
d="M297 816l-155 108h155l120 -108h-120zM355 701q-110 0 -176 66l76 46q38 -40 100 -40t100 40l75 -46q-64 -66 -175 -66zM509 0l-26 86h-256l-26 -86h-219l246 667h254l246 -667h-219zM355 489l-76 -235h152z" />
    <glyph glyph-name="uni1EB1" unicode="&#x1eb1;" horiz-adv-x="559" 
d="M219 704l-155 144h155l120 -144h-120zM277 550q-109 0 -176 88l76 62q38 -53 100 -53q63 0 100 53l75 -62q-65 -88 -175 -88zM329 0v46q-20 -26 -60.5 -42t-85.5 -16q-62 0 -114 41.5t-52 117.5q0 43 15.5 73.5t41 46t52.5 22.5t57 7q104 0 146 -53v55q0 26 -23.5 43
t-66.5 17q-72 0 -134 -47l-61 111q91 73 228 73q48 0 88 -9.5t75 -31t54.5 -63t19.5 -99.5v-292h-180zM329 131v27q-18 26 -71 26q-63 0 -63 -40q0 -39 63 -39q53 0 71 26z" />
    <glyph glyph-name="uni1EB2" unicode="&#x1eb2;" horiz-adv-x="710" 
d="M237 880q25 56 111 56q49 0 82 -18t33 -55q0 -20 -16 -47h-91q22 19 22 44q0 23 -30 23q-23 0 -36 -22zM355 701q-110 0 -176 66l76 46q38 -40 100 -40t100 40l75 -46q-64 -66 -175 -66zM509 0l-26 86h-256l-26 -86h-219l246 667h254l246 -667h-219zM355 489l-76 -235
h152z" />
    <glyph glyph-name="uni1EB3" unicode="&#x1eb3;" horiz-adv-x="559" 
d="M159 789q13 38 43 56.5t68 18.5q49 0 82 -24t33 -73q0 -27 -16 -63h-91q22 25 22 58q0 31 -30 31q-23 0 -36 -29zM277 550q-109 0 -176 88l76 62q38 -53 100 -53q63 0 100 53l75 -62q-65 -88 -175 -88zM329 0v46q-20 -26 -60.5 -42t-85.5 -16q-62 0 -114 41.5t-52 117.5
q0 43 15.5 73.5t41 46t52.5 22.5t57 7q104 0 146 -53v55q0 26 -23.5 43t-66.5 17q-72 0 -134 -47l-61 111q91 73 228 73q48 0 88 -9.5t75 -31t54.5 -63t19.5 -99.5v-292h-180zM329 131v27q-18 26 -71 26q-63 0 -63 -40q0 -39 63 -39q53 0 71 26z" />
    <glyph glyph-name="uni1EB4" unicode="&#x1eb4;" horiz-adv-x="710" 
d="M330 836q-22 11 -32 11q-24 0 -24 -28h-89q0 101 118 101q36 0 78 -21q24 -12 32 -12q24 0 24 28h89q0 -100 -118 -100q-36 0 -78 21zM355 701q-110 0 -176 66l76 46q38 -40 100 -40t100 40l75 -46q-64 -66 -175 -66zM509 0l-26 86h-256l-26 -86h-219l246 667h254
l246 -667h-219zM355 489l-76 -235h152z" />
    <glyph glyph-name="uni1EB5" unicode="&#x1eb5;" horiz-adv-x="559" 
d="M252 730q-22 15 -32 15q-24 0 -24 -37h-89q0 134 118 134q36 0 78 -28q23 -15 32 -15q24 0 24 37h89q0 -134 -118 -134q-36 0 -78 28zM277 550q-109 0 -176 88l76 62q38 -53 100 -53q63 0 100 53l75 -62q-65 -88 -175 -88zM329 0v46q-20 -26 -60.5 -42t-85.5 -16
q-62 0 -114 41.5t-52 117.5q0 43 15.5 73.5t41 46t52.5 22.5t57 7q104 0 146 -53v55q0 26 -23.5 43t-66.5 17q-72 0 -134 -47l-61 111q91 73 228 73q48 0 88 -9.5t75 -31t54.5 -63t19.5 -99.5v-292h-180zM329 131v27q-18 26 -71 26q-63 0 -63 -40q0 -39 63 -39q53 0 71 26z
" />
    <glyph glyph-name="uni1EB6" unicode="&#x1eb6;" horiz-adv-x="710" 
d="M355 717q-109 0 -176 88l76 62q38 -53 100 -53q63 0 100 53l75 -62q-65 -88 -175 -88zM509 0l-26 86h-256l-26 -86h-219l246 667h254l246 -667h-219zM355 489l-76 -235h152zM265 -121q0 37 26 63t63 26q36 0 62 -26t26 -63t-26 -63t-62 -26q-37 0 -63 26t-26 63z" />
    <glyph glyph-name="uni1EB7" unicode="&#x1eb7;" horiz-adv-x="559" 
d="M277 550q-109 0 -176 88l76 62q38 -53 100 -53q63 0 100 53l75 -62q-65 -88 -175 -88zM329 0v46q-20 -26 -60.5 -42t-85.5 -16q-62 0 -114 41.5t-52 117.5q0 43 15.5 73.5t41 46t52.5 22.5t57 7q104 0 146 -53v55q0 26 -23.5 43t-66.5 17q-72 0 -134 -47l-61 111
q91 73 228 73q48 0 88 -9.5t75 -31t54.5 -63t19.5 -99.5v-292h-180zM329 131v27q-18 26 -71 26q-63 0 -63 -40q0 -39 63 -39q53 0 71 26zM188 -121q0 37 26 63t63 26q36 0 62 -26t26 -63t-26 -63t-62 -26q-37 0 -63 26t-26 63z" />
    <glyph glyph-name="uni1EB8" unicode="&#x1eb8;" 
d="M54 0v667h506v-168h-304v-78h297v-168h-297v-85h304v-168h-506zM225 -121q0 37 26 63t63 26q36 0 62 -26t26 -63t-26 -63t-62 -26q-37 0 -63 26t-26 63z" />
    <glyph glyph-name="uni1EB9" unicode="&#x1eb9;" horiz-adv-x="543" 
d="M17 242q0 107 74 180t189 73q109 0 180 -73.5t71 -198.5v-37h-328q8 -26 35.5 -43.5t70.5 -17.5q66 0 109 34l74 -111q-34 -29 -91 -44.5t-115 -15.5q-116 0 -192.5 69t-76.5 185zM280 358q-63 0 -79 -58h159q-14 58 -80 58zM191 -121q0 37 26 63t63 26q36 0 62 -26
t26 -63t-26 -63t-62 -26q-37 0 -63 26t-26 63z" />
    <glyph glyph-name="uni1EBA" unicode="&#x1eba;" 
d="M196 808q13 38 43 56.5t68 18.5q49 0 82 -24t33 -73q0 -27 -16 -63h-91q22 25 22 58q0 31 -30 31q-23 0 -36 -29zM54 0v667h506v-168h-304v-78h297v-168h-297v-85h304v-168h-506z" />
    <glyph glyph-name="uni1EBB" unicode="&#x1ebb;" horiz-adv-x="543" 
d="M162 641q13 38 43 56.5t68 18.5q49 0 82 -24t33 -73q0 -27 -16 -63h-91q22 25 22 58q0 31 -30 31q-23 0 -36 -29zM17 242q0 107 74 180t189 73q109 0 180 -73.5t71 -198.5v-37h-328q8 -26 35.5 -43.5t70.5 -17.5q66 0 109 34l74 -111q-34 -29 -91 -44.5t-115 -15.5
q-116 0 -192.5 69t-76.5 185zM280 358q-63 0 -79 -58h159q-14 58 -80 58z" />
    <glyph glyph-name="uni1EBC" unicode="&#x1ebc;" 
d="M289 749q-23 15 -32 15q-24 0 -24 -37h-89q0 134 118 134q36 0 78 -28q23 -15 32 -15q24 0 24 37h89q0 -134 -118 -134q-36 0 -78 28zM54 0v667h506v-168h-304v-78h297v-168h-297v-85h304v-168h-506z" />
    <glyph glyph-name="uni1EBD" unicode="&#x1ebd;" horiz-adv-x="543" 
d="M255 582q-23 15 -32 15q-24 0 -24 -37h-89q0 134 118 134q36 0 78 -28q22 -15 32 -15q24 0 24 37h89q0 -134 -118 -134q-36 0 -78 28zM17 242q0 107 74 180t189 73q109 0 180 -73.5t71 -198.5v-37h-328q8 -26 35.5 -43.5t70.5 -17.5q66 0 109 34l74 -111
q-34 -29 -91 -44.5t-115 -15.5q-116 0 -192.5 69t-76.5 185zM280 358q-63 0 -79 -58h159q-14 58 -80 58z" />
    <glyph glyph-name="uni1EBE" unicode="&#x1ebe;" 
d="M574 780h-120l120 108h155zM378 705l-64 55l-61 -55h-105l88 108h156l91 -108h-105zM54 0v667h506v-168h-304v-78h297v-168h-297v-85h304v-168h-506z" />
    <glyph glyph-name="uni1EBF" unicode="&#x1ebf;" horiz-adv-x="543" 
d="M540 656h-120l120 144h155zM344 556l-64 73l-61 -73h-105l88 144h156l91 -144h-105zM17 242q0 107 74 180t189 73q109 0 180 -73.5t71 -198.5v-37h-328q8 -26 35.5 -43.5t70.5 -17.5q66 0 109 34l74 -111q-34 -29 -91 -44.5t-115 -15.5q-116 0 -192.5 69t-76.5 185z
M280 358q-63 0 -79 -58h159q-14 58 -80 58z" />
    <glyph glyph-name="uni1EC0" unicode="&#x1ec0;" 
d="M60 780l-155 108h155l120 -108h-120zM378 705l-64 55l-61 -55h-105l88 108h156l91 -108h-105zM54 0v667h506v-168h-304v-78h297v-168h-297v-85h304v-168h-506z" />
    <glyph glyph-name="uni1EC1" unicode="&#x1ec1;" horiz-adv-x="543" 
d="M26 656l-155 144h155l120 -144h-120zM344 556l-64 73l-61 -73h-105l88 144h156l91 -144h-105zM17 242q0 107 74 180t189 73q109 0 180 -73.5t71 -198.5v-37h-328q8 -26 35.5 -43.5t70.5 -17.5q66 0 109 34l74 -111q-34 -29 -91 -44.5t-115 -15.5q-116 0 -192.5 69
t-76.5 185zM280 358q-63 0 -79 -58h159q-14 58 -80 58z" />
    <glyph glyph-name="uni1EC2" unicode="&#x1ec2;" 
d="M335 843q25 56 111 56q49 0 82 -18t33 -55q0 -20 -16 -47h-91q22 19 22 44q0 23 -30 23q-23 0 -36 -22zM378 705l-64 55l-61 -55h-105l88 108h156l91 -108h-105zM54 0v667h506v-168h-304v-78h297v-168h-297v-85h304v-168h-506z" />
    <glyph glyph-name="uni1EC3" unicode="&#x1ec3;" horiz-adv-x="543" 
d="M301 740q13 38 43 56.5t68 18.5q49 0 82 -24t33 -73q0 -27 -16 -63h-91q22 25 22 58q0 31 -30 31q-23 0 -36 -29zM344 556l-64 73l-61 -73h-105l88 144h156l91 -144h-105zM17 242q0 107 74 180t189 73q109 0 180 -73.5t71 -198.5v-37h-328q8 -26 35.5 -43.5t70.5 -17.5
q66 0 109 34l74 -111q-34 -29 -91 -44.5t-115 -15.5q-116 0 -192.5 69t-76.5 185zM280 358q-63 0 -79 -58h159q-14 58 -80 58z" />
    <glyph glyph-name="uni1EC4" unicode="&#x1ec4;" 
d="M289 846q-22 11 -32 11q-24 0 -24 -28h-89q0 101 118 101q36 0 78 -21q24 -12 32 -12q24 0 24 28h89q0 -100 -118 -100q-36 0 -78 21zM378 705l-64 55l-61 -55h-105l88 108h156l91 -108h-105zM54 0v667h506v-168h-304v-78h297v-168h-297v-85h304v-168h-506z" />
    <glyph glyph-name="uni1EC5" unicode="&#x1ec5;" horiz-adv-x="543" 
d="M255 744q-23 15 -32 15q-24 0 -24 -37h-89q0 134 118 134q36 0 78 -28q22 -15 32 -15q24 0 24 37h89q0 -134 -118 -134q-36 0 -78 28zM344 556l-64 73l-61 -73h-105l88 144h156l91 -144h-105zM17 242q0 107 74 180t189 73q109 0 180 -73.5t71 -198.5v-37h-328
q8 -26 35.5 -43.5t70.5 -17.5q66 0 109 34l74 -111q-34 -29 -91 -44.5t-115 -15.5q-116 0 -192.5 69t-76.5 185zM280 358q-63 0 -79 -58h159q-14 58 -80 58z" />
    <glyph glyph-name="uni1EC6" unicode="&#x1ec6;" 
d="M378 723l-64 73l-61 -73h-105l88 144h156l91 -144h-105zM54 0v667h506v-168h-304v-78h297v-168h-297v-85h304v-168h-506zM225 -121q0 37 26 63t63 26q36 0 62 -26t26 -63t-26 -63t-62 -26q-37 0 -63 26t-26 63z" />
    <glyph glyph-name="uni1EC7" unicode="&#x1ec7;" horiz-adv-x="543" 
d="M344 556l-64 73l-61 -73h-105l88 144h156l91 -144h-105zM17 242q0 107 74 180t189 73q109 0 180 -73.5t71 -198.5v-37h-328q8 -26 35.5 -43.5t70.5 -17.5q66 0 109 34l74 -111q-34 -29 -91 -44.5t-115 -15.5q-116 0 -192.5 69t-76.5 185zM280 358q-63 0 -79 -58h159
q-14 58 -80 58zM191 -121q0 37 26 63t63 26q36 0 62 -26t26 -63t-26 -63t-62 -26q-37 0 -63 26t-26 63z" />
    <glyph glyph-name="uni1EC8" unicode="&#x1ec8;" horiz-adv-x="310" 
d="M37 808q13 38 43 56.5t68 18.5q49 0 82 -24t33 -73q0 -27 -16 -63h-91q22 25 22 58q0 31 -30 31q-23 0 -36 -29zM54 0v667h202v-667h-202z" />
    <glyph glyph-name="uni1EC9" unicode="&#x1ec9;" horiz-adv-x="280" 
d="M22 641q13 38 43 56.5t68 18.5q49 0 82 -24t33 -73q0 -27 -16 -63h-91q22 25 22 58q0 31 -30 31q-23 0 -36 -29zM50 0v483h180v-483h-180z" />
    <glyph glyph-name="uni1ECA" unicode="&#x1eca;" horiz-adv-x="310" 
d="M54 0v667h202v-667h-202zM66 -121q0 37 26 63t63 26q36 0 62 -26t26 -63t-26 -63t-62 -26q-37 0 -63 26t-26 63z" />
    <glyph glyph-name="uni1ECB" unicode="&#x1ecb;" horiz-adv-x="280" 
d="M140 518q-42 0 -71.5 29.5t-29.5 71.5t29.5 71.5t71.5 29.5t71.5 -29.5t29.5 -71.5t-29.5 -71.5t-71.5 -29.5zM50 0v483h180v-483h-180zM51 -121q0 37 26 63t63 26q36 0 62 -26t26 -63t-26 -63t-62 -26q-37 0 -63 26t-26 63z" />
    <glyph glyph-name="uni1ECC" unicode="&#x1ecc;" horiz-adv-x="766" 
d="M18 333q0 152 104.5 248.5t260.5 96.5t260.5 -96.5t104.5 -248.5t-104.5 -248.5t-260.5 -96.5t-260.5 96.5t-104.5 248.5zM543 333q0 71 -44.5 119t-115.5 48t-115.5 -48t-44.5 -119t44.5 -119t115.5 -48t115.5 48t44.5 119zM294 -121q0 37 26 63t63 26q36 0 62 -26
t26 -63t-26 -63t-62 -26q-37 0 -63 26t-26 63z" />
    <glyph glyph-name="uni1ECD" unicode="&#x1ecd;" horiz-adv-x="577" 
d="M288 -12q-124 0 -197.5 74t-73.5 180t73.5 179.5t197.5 73.5t198 -73.5t74 -179.5t-74 -180t-198 -74zM288 147q41 0 64 26.5t23 68.5q0 41 -23 67.5t-64 26.5q-40 0 -63 -26.5t-23 -67.5q0 -42 23 -68.5t63 -26.5zM199 -121q0 37 26 63t63 26q36 0 62 -26t26 -63
t-26 -63t-62 -26q-37 0 -63 26t-26 63z" />
    <glyph glyph-name="uni1ECE" unicode="&#x1ece;" horiz-adv-x="766" 
d="M265 808q13 38 43 56.5t68 18.5q49 0 82 -24t33 -73q0 -27 -16 -63h-91q22 25 22 58q0 31 -30 31q-23 0 -36 -29zM18 333q0 152 104.5 248.5t260.5 96.5t260.5 -96.5t104.5 -248.5t-104.5 -248.5t-260.5 -96.5t-260.5 96.5t-104.5 248.5zM543 333q0 71 -44.5 119
t-115.5 48t-115.5 -48t-44.5 -119t44.5 -119t115.5 -48t115.5 48t44.5 119z" />
    <glyph glyph-name="uni1ECF" unicode="&#x1ecf;" horiz-adv-x="577" 
d="M170 641q13 38 43 56.5t68 18.5q49 0 82 -24t33 -73q0 -27 -16 -63h-91q22 25 22 58q0 31 -30 31q-23 0 -36 -29zM288 -12q-124 0 -197.5 74t-73.5 180t73.5 179.5t197.5 73.5t198 -73.5t74 -179.5t-74 -180t-198 -74zM288 147q41 0 64 26.5t23 68.5q0 41 -23 67.5
t-64 26.5q-40 0 -63 -26.5t-23 -67.5q0 -42 23 -68.5t63 -26.5z" />
    <glyph glyph-name="uni1ED0" unicode="&#x1ed0;" horiz-adv-x="766" 
d="M643 780h-120l120 108h155zM447 705l-64 55l-61 -55h-105l88 108h156l91 -108h-105zM18 333q0 152 104.5 248.5t260.5 96.5t260.5 -96.5t104.5 -248.5t-104.5 -248.5t-260.5 -96.5t-260.5 96.5t-104.5 248.5zM543 333q0 71 -44.5 119t-115.5 48t-115.5 -48t-44.5 -119
t44.5 -119t115.5 -48t115.5 48t44.5 119z" />
    <glyph glyph-name="uni1ED1" unicode="&#x1ed1;" horiz-adv-x="577" 
d="M548 656h-120l120 144h155zM352 556l-64 73l-61 -73h-105l88 144h156l91 -144h-105zM288 -12q-124 0 -197.5 74t-73.5 180t73.5 179.5t197.5 73.5t198 -73.5t74 -179.5t-74 -180t-198 -74zM288 147q41 0 64 26.5t23 68.5q0 41 -23 67.5t-64 26.5q-40 0 -63 -26.5
t-23 -67.5q0 -42 23 -68.5t63 -26.5z" />
    <glyph glyph-name="uni1ED2" unicode="&#x1ed2;" horiz-adv-x="766" 
d="M129 780l-155 108h155l120 -108h-120zM447 705l-64 55l-61 -55h-105l88 108h156l91 -108h-105zM18 333q0 152 104.5 248.5t260.5 96.5t260.5 -96.5t104.5 -248.5t-104.5 -248.5t-260.5 -96.5t-260.5 96.5t-104.5 248.5zM543 333q0 71 -44.5 119t-115.5 48t-115.5 -48
t-44.5 -119t44.5 -119t115.5 -48t115.5 48t44.5 119z" />
    <glyph glyph-name="uni1ED3" unicode="&#x1ed3;" horiz-adv-x="577" 
d="M34 656l-155 144h155l120 -144h-120zM352 556l-64 73l-61 -73h-105l88 144h156l91 -144h-105zM288 -12q-124 0 -197.5 74t-73.5 180t73.5 179.5t197.5 73.5t198 -73.5t74 -179.5t-74 -180t-198 -74zM288 147q41 0 64 26.5t23 68.5q0 41 -23 67.5t-64 26.5
q-40 0 -63 -26.5t-23 -67.5q0 -42 23 -68.5t63 -26.5z" />
    <glyph glyph-name="uni1ED4" unicode="&#x1ed4;" horiz-adv-x="766" 
d="M404 843q25 56 111 56q49 0 82 -18t33 -55q0 -20 -16 -47h-91q22 19 22 44q0 23 -30 23q-23 0 -36 -22zM447 705l-64 55l-61 -55h-105l88 108h156l91 -108h-105zM18 333q0 152 104.5 248.5t260.5 96.5t260.5 -96.5t104.5 -248.5t-104.5 -248.5t-260.5 -96.5t-260.5 96.5
t-104.5 248.5zM543 333q0 71 -44.5 119t-115.5 48t-115.5 -48t-44.5 -119t44.5 -119t115.5 -48t115.5 48t44.5 119z" />
    <glyph glyph-name="uni1ED5" unicode="&#x1ed5;" horiz-adv-x="577" 
d="M309 740q13 38 43 56.5t68 18.5q49 0 82 -24t33 -73q0 -27 -16 -63h-91q22 25 22 58q0 31 -30 31q-23 0 -36 -29zM352 556l-64 73l-61 -73h-105l88 144h156l91 -144h-105zM288 -12q-124 0 -197.5 74t-73.5 180t73.5 179.5t197.5 73.5t198 -73.5t74 -179.5t-74 -180
t-198 -74zM288 147q41 0 64 26.5t23 68.5q0 41 -23 67.5t-64 26.5q-40 0 -63 -26.5t-23 -67.5q0 -42 23 -68.5t63 -26.5z" />
    <glyph glyph-name="uni1ED6" unicode="&#x1ed6;" horiz-adv-x="766" 
d="M358 846q-22 11 -32 11q-24 0 -24 -28h-89q0 101 118 101q36 0 78 -21q24 -12 32 -12q24 0 24 28h89q0 -100 -118 -100q-36 0 -78 21zM447 705l-64 55l-61 -55h-105l88 108h156l91 -108h-105zM18 333q0 152 104.5 248.5t260.5 96.5t260.5 -96.5t104.5 -248.5
t-104.5 -248.5t-260.5 -96.5t-260.5 96.5t-104.5 248.5zM543 333q0 71 -44.5 119t-115.5 48t-115.5 -48t-44.5 -119t44.5 -119t115.5 -48t115.5 48t44.5 119z" />
    <glyph glyph-name="uni1ED7" unicode="&#x1ed7;" horiz-adv-x="577" 
d="M263 744q-23 15 -32 15q-24 0 -24 -37h-89q0 134 118 134q36 0 78 -28q22 -15 32 -15q24 0 24 37h89q0 -134 -118 -134q-36 0 -78 28zM352 556l-64 73l-61 -73h-105l88 144h156l91 -144h-105zM288 -12q-124 0 -197.5 74t-73.5 180t73.5 179.5t197.5 73.5t198 -73.5
t74 -179.5t-74 -180t-198 -74zM288 147q41 0 64 26.5t23 68.5q0 41 -23 67.5t-64 26.5q-40 0 -63 -26.5t-23 -67.5q0 -42 23 -68.5t63 -26.5z" />
    <glyph glyph-name="uni1ED8" unicode="&#x1ed8;" horiz-adv-x="766" 
d="M447 723l-64 73l-61 -73h-105l88 144h156l91 -144h-105zM18 333q0 152 104.5 248.5t260.5 96.5t260.5 -96.5t104.5 -248.5t-104.5 -248.5t-260.5 -96.5t-260.5 96.5t-104.5 248.5zM543 333q0 71 -44.5 119t-115.5 48t-115.5 -48t-44.5 -119t44.5 -119t115.5 -48t115.5 48
t44.5 119zM294 -121q0 37 26 63t63 26q36 0 62 -26t26 -63t-26 -63t-62 -26q-37 0 -63 26t-26 63z" />
    <glyph glyph-name="uni1ED9" unicode="&#x1ed9;" horiz-adv-x="577" 
d="M352 556l-64 73l-61 -73h-105l88 144h156l91 -144h-105zM288 -12q-124 0 -197.5 74t-73.5 180t73.5 179.5t197.5 73.5t198 -73.5t74 -179.5t-74 -180t-198 -74zM288 147q41 0 64 26.5t23 68.5q0 41 -23 67.5t-64 26.5q-40 0 -63 -26.5t-23 -67.5q0 -42 23 -68.5t63 -26.5
zM199 -121q0 37 26 63t63 26q36 0 62 -26t26 -63t-26 -63t-62 -26q-37 0 -63 26t-26 63z" />
    <glyph glyph-name="uni1EDA" unicode="&#x1eda;" horiz-adv-x="766" 
d="M594 867l-155 -144h-120l120 144h155zM765 667q0 -82 -75 -139q58 -85 58 -195q0 -152 -104.5 -248.5t-260.5 -96.5t-260.5 96.5t-104.5 248.5t104.5 248.5t260.5 96.5q165 0 270 -105q31 24 42 52q-5 -3 -17 -3q-24 0 -40.5 17t-16.5 44q0 28 20 48.5t48 20.5
q32 0 54 -23t22 -62zM383 166q71 0 115.5 48t44.5 119t-44.5 119t-115.5 48t-115.5 -48t-44.5 -119t44.5 -119t115.5 -48z" />
    <glyph glyph-name="uni1EDB" unicode="&#x1edb;" horiz-adv-x="577" 
d="M499 700l-155 -144h-120l120 144h155zM577 534q0 -79 -70 -135q53 -69 53 -157q0 -106 -74 -180t-198 -74t-197.5 74t-73.5 180t73.5 179.5t197.5 73.5q104 0 177 -55q31 24 42 52q-5 -3 -17 -3q-24 0 -40.5 17t-16.5 44q0 28 20 48.5t48 20.5q32 0 54 -23t22 -62z
M288 147q41 0 64 26.5t23 68.5q0 41 -23 67.5t-64 26.5q-40 0 -63 -26.5t-23 -67.5q0 -42 23 -68.5t63 -26.5z" />
    <glyph glyph-name="uni1EDC" unicode="&#x1edc;" horiz-adv-x="766" 
d="M445 723h-120l-155 144h155zM765 667q0 -82 -75 -139q58 -85 58 -195q0 -152 -104.5 -248.5t-260.5 -96.5t-260.5 96.5t-104.5 248.5t104.5 248.5t260.5 96.5q165 0 270 -105q31 24 42 52q-5 -3 -17 -3q-24 0 -40.5 17t-16.5 44q0 28 20 48.5t48 20.5q32 0 54 -23t22 -62
zM383 166q71 0 115.5 48t44.5 119t-44.5 119t-115.5 48t-115.5 -48t-44.5 -119t44.5 -119t115.5 -48z" />
    <glyph glyph-name="uni1EDD" unicode="&#x1edd;" horiz-adv-x="577" 
d="M350 556h-120l-155 144h155zM577 534q0 -79 -70 -135q53 -69 53 -157q0 -106 -74 -180t-198 -74t-197.5 74t-73.5 180t73.5 179.5t197.5 73.5q104 0 177 -55q31 24 42 52q-5 -3 -17 -3q-24 0 -40.5 17t-16.5 44q0 28 20 48.5t48 20.5q32 0 54 -23t22 -62zM288 147
q41 0 64 26.5t23 68.5q0 41 -23 67.5t-64 26.5q-40 0 -63 -26.5t-23 -67.5q0 -42 23 -68.5t63 -26.5z" />
    <glyph glyph-name="uni1EDE" unicode="&#x1ede;" horiz-adv-x="766" 
d="M376 812q-23 0 -36 -29l-75 25q13 38 43 56.5t68 18.5q49 0 82 -24t33 -73q0 -27 -16 -63h-91q22 25 22 58q0 31 -30 31zM765 667q0 -82 -75 -139q58 -85 58 -195q0 -152 -104.5 -248.5t-260.5 -96.5t-260.5 96.5t-104.5 248.5t104.5 248.5t260.5 96.5q165 0 270 -105
q31 24 42 52q-5 -3 -17 -3q-24 0 -40.5 17t-16.5 44q0 28 20 48.5t48 20.5q32 0 54 -23t22 -62zM383 166q71 0 115.5 48t44.5 119t-44.5 119t-115.5 48t-115.5 -48t-44.5 -119t44.5 -119t115.5 -48z" />
    <glyph glyph-name="uni1EDF" unicode="&#x1edf;" horiz-adv-x="577" 
d="M281 645q-23 0 -36 -29l-75 25q13 38 43 56.5t68 18.5q49 0 82 -24t33 -73q0 -27 -16 -63h-91q22 25 22 58q0 31 -30 31zM577 534q0 -79 -70 -135q53 -69 53 -157q0 -106 -74 -180t-198 -74t-197.5 74t-73.5 180t73.5 179.5t197.5 73.5q104 0 177 -55q31 24 42 52
q-5 -3 -17 -3q-24 0 -40.5 17t-16.5 44q0 28 20 48.5t48 20.5q32 0 54 -23t22 -62zM288 147q41 0 64 26.5t23 68.5q0 41 -23 67.5t-64 26.5q-40 0 -63 -26.5t-23 -67.5q0 -42 23 -68.5t63 -26.5z" />
    <glyph glyph-name="uni1EE0" unicode="&#x1ee0;" horiz-adv-x="766" 
d="M326 764q-24 0 -24 -37h-89q0 134 118 134q36 0 78 -28q22 -15 32 -15q24 0 24 37h89q0 -134 -118 -134q-36 0 -78 28q-23 15 -32 15zM765 667q0 -82 -75 -139q58 -85 58 -195q0 -152 -104.5 -248.5t-260.5 -96.5t-260.5 96.5t-104.5 248.5t104.5 248.5t260.5 96.5
q165 0 270 -105q31 24 42 52q-5 -3 -17 -3q-24 0 -40.5 17t-16.5 44q0 28 20 48.5t48 20.5q32 0 54 -23t22 -62zM383 166q71 0 115.5 48t44.5 119t-44.5 119t-115.5 48t-115.5 -48t-44.5 -119t44.5 -119t115.5 -48z" />
    <glyph glyph-name="uni1EE1" unicode="&#x1ee1;" horiz-adv-x="577" 
d="M231 597q-24 0 -24 -37h-89q0 134 118 134q36 0 78 -28q22 -15 32 -15q24 0 24 37h89q0 -134 -118 -134q-36 0 -78 28q-23 15 -32 15zM577 534q0 -79 -70 -135q53 -69 53 -157q0 -106 -74 -180t-198 -74t-197.5 74t-73.5 180t73.5 179.5t197.5 73.5q104 0 177 -55
q31 24 42 52q-5 -3 -17 -3q-24 0 -40.5 17t-16.5 44q0 28 20 48.5t48 20.5q32 0 54 -23t22 -62zM288 147q41 0 64 26.5t23 68.5q0 41 -23 67.5t-64 26.5q-40 0 -63 -26.5t-23 -67.5q0 -42 23 -68.5t63 -26.5z" />
    <glyph glyph-name="uni1EE2" unicode="&#x1ee2;" horiz-adv-x="766" 
d="M765 667q0 -82 -75 -139q58 -85 58 -195q0 -152 -104.5 -248.5t-260.5 -96.5t-260.5 96.5t-104.5 248.5t104.5 248.5t260.5 96.5q165 0 270 -105q31 24 42 52q-5 -3 -17 -3q-24 0 -40.5 17t-16.5 44q0 28 20 48.5t48 20.5q32 0 54 -23t22 -62zM383 166q71 0 115.5 48
t44.5 119t-44.5 119t-115.5 48t-115.5 -48t-44.5 -119t44.5 -119t115.5 -48zM383 -32q36 0 62 -26t26 -63t-26 -63t-62 -26q-37 0 -63 26t-26 63t26 63t63 26z" />
    <glyph glyph-name="uni1EE3" unicode="&#x1ee3;" horiz-adv-x="577" 
d="M577 534q0 -79 -70 -135q53 -69 53 -157q0 -106 -74 -180t-198 -74t-197.5 74t-73.5 180t73.5 179.5t197.5 73.5q104 0 177 -55q31 24 42 52q-5 -3 -17 -3q-24 0 -40.5 17t-16.5 44q0 28 20 48.5t48 20.5q32 0 54 -23t22 -62zM288 147q41 0 64 26.5t23 68.5
q0 41 -23 67.5t-64 26.5q-40 0 -63 -26.5t-23 -67.5q0 -42 23 -68.5t63 -26.5zM288 -32q36 0 62 -26t26 -63t-26 -63t-62 -26q-37 0 -63 26t-26 63t26 63t63 26z" />
    <glyph glyph-name="uni1EE4" unicode="&#x1ee4;" horiz-adv-x="749" 
d="M54 274v393h205v-386q0 -52 28.5 -83.5t87.5 -31.5q58 0 86.5 32t28.5 83v386h205v-392q0 -131 -79 -209t-241 -78t-241.5 77.5t-79.5 208.5zM286 -121q0 37 26 63t63 26q36 0 62 -26t26 -63t-26 -63t-62 -26q-37 0 -63 26t-26 63z" />
    <glyph glyph-name="uni1EE5" unicode="&#x1ee5;" horiz-adv-x="606" 
d="M376 0v54q-60 -66 -166 -66q-80 0 -120 42t-40 108v345h180v-268q0 -68 70 -68q42 0 76 38v298h180v-483h-180zM214 -121q0 37 26 63t63 26q36 0 62 -26t26 -63t-26 -63t-62 -26q-37 0 -63 26t-26 63z" />
    <glyph glyph-name="uni1EE6" unicode="&#x1ee6;" horiz-adv-x="749" 
d="M257 808q13 38 43 56.5t68 18.5q49 0 82 -24t33 -73q0 -27 -16 -63h-91q22 25 22 58q0 31 -30 31q-23 0 -36 -29zM54 274v393h205v-386q0 -52 28.5 -83.5t87.5 -31.5q58 0 86.5 32t28.5 83v386h205v-392q0 -131 -79 -209t-241 -78t-241.5 77.5t-79.5 208.5z" />
    <glyph glyph-name="uni1EE7" unicode="&#x1ee7;" horiz-adv-x="606" 
d="M185 641q13 38 43 56.5t68 18.5q49 0 82 -24t33 -73q0 -27 -16 -63h-91q22 25 22 58q0 31 -30 31q-23 0 -36 -29zM376 0v54q-60 -66 -166 -66q-80 0 -120 42t-40 108v345h180v-268q0 -68 70 -68q42 0 76 38v298h180v-483h-180z" />
    <glyph glyph-name="uni1EE8" unicode="&#x1ee8;" horiz-adv-x="749" 
d="M586 867l-155 -144h-120l120 144h155zM799 725q0 -44 -26.5 -87.5t-77.5 -70.5v-292q0 -131 -79 -209t-241 -78t-241.5 77.5t-79.5 208.5v393h205v-386q0 -52 28.5 -83.5t87.5 -31.5q58 0 86.5 32t28.5 83v386h205v-30q25 22 34 46q-5 -3 -17 -3q-24 0 -40.5 17t-16.5 44
q0 28 20 48.5t48 20.5q32 0 54 -23t22 -62z" />
    <glyph glyph-name="uni1EE9" unicode="&#x1ee9;" horiz-adv-x="606" 
d="M514 700l-155 -144h-120l120 144h155zM627 554q0 -81 -71 -136v-418h-180v54q-60 -66 -166 -66q-80 0 -120 42t-40 108v345h180v-268q0 -68 70 -68q42 0 76 38v298h163q14 16 18 29q-5 -3 -17 -3q-24 0 -40.5 17t-16.5 44q0 28 20 48.5t48 20.5q32 0 54 -23t22 -62z" />
    <glyph glyph-name="uni1EEA" unicode="&#x1eea;" horiz-adv-x="749" 
d="M437 723h-120l-155 144h155zM799 725q0 -44 -26.5 -87.5t-77.5 -70.5v-292q0 -131 -79 -209t-241 -78t-241.5 77.5t-79.5 208.5v393h205v-386q0 -52 28.5 -83.5t87.5 -31.5q58 0 86.5 32t28.5 83v386h205v-30q25 22 34 46q-5 -3 -17 -3q-24 0 -40.5 17t-16.5 44
q0 28 20 48.5t48 20.5q32 0 54 -23t22 -62z" />
    <glyph glyph-name="uni1EEB" unicode="&#x1eeb;" horiz-adv-x="606" 
d="M365 556h-120l-155 144h155zM627 554q0 -81 -71 -136v-418h-180v54q-60 -66 -166 -66q-80 0 -120 42t-40 108v345h180v-268q0 -68 70 -68q42 0 76 38v298h163q14 16 18 29q-5 -3 -17 -3q-24 0 -40.5 17t-16.5 44q0 28 20 48.5t48 20.5q32 0 54 -23t22 -62z" />
    <glyph glyph-name="uni1EEC" unicode="&#x1eec;" horiz-adv-x="749" 
d="M368 812q-23 0 -36 -29l-75 25q13 38 43 56.5t68 18.5q49 0 82 -24t33 -73q0 -27 -16 -63h-91q22 25 22 58q0 31 -30 31zM799 725q0 -44 -26.5 -87.5t-77.5 -70.5v-292q0 -131 -79 -209t-241 -78t-241.5 77.5t-79.5 208.5v393h205v-386q0 -52 28.5 -83.5t87.5 -31.5
q58 0 86.5 32t28.5 83v386h205v-30q25 22 34 46q-5 -3 -17 -3q-24 0 -40.5 17t-16.5 44q0 28 20 48.5t48 20.5q32 0 54 -23t22 -62z" />
    <glyph glyph-name="uni1EED" unicode="&#x1eed;" horiz-adv-x="606" 
d="M296 645q-23 0 -36 -29l-75 25q13 38 43 56.5t68 18.5q49 0 82 -24t33 -73q0 -27 -16 -63h-91q22 25 22 58q0 31 -30 31zM627 554q0 -81 -71 -136v-418h-180v54q-60 -66 -166 -66q-80 0 -120 42t-40 108v345h180v-268q0 -68 70 -68q42 0 76 38v298h163q14 16 18 29
q-5 -3 -17 -3q-24 0 -40.5 17t-16.5 44q0 28 20 48.5t48 20.5q32 0 54 -23t22 -62z" />
    <glyph glyph-name="uni1EEE" unicode="&#x1eee;" horiz-adv-x="749" 
d="M318 764q-24 0 -24 -37h-89q0 134 118 134q36 0 78 -28q22 -15 32 -15q24 0 24 37h89q0 -134 -118 -134q-36 0 -78 28q-23 15 -32 15zM799 725q0 -44 -26.5 -87.5t-77.5 -70.5v-292q0 -131 -79 -209t-241 -78t-241.5 77.5t-79.5 208.5v393h205v-386q0 -52 28.5 -83.5
t87.5 -31.5q58 0 86.5 32t28.5 83v386h205v-30q25 22 34 46q-5 -3 -17 -3q-24 0 -40.5 17t-16.5 44q0 28 20 48.5t48 20.5q32 0 54 -23t22 -62z" />
    <glyph glyph-name="uni1EEF" unicode="&#x1eef;" horiz-adv-x="606" 
d="M246 597q-24 0 -24 -37h-89q0 134 118 134q36 0 78 -28q22 -15 32 -15q24 0 24 37h89q0 -134 -118 -134q-36 0 -78 28q-23 15 -32 15zM627 554q0 -81 -71 -136v-418h-180v54q-60 -66 -166 -66q-80 0 -120 42t-40 108v345h180v-268q0 -68 70 -68q42 0 76 38v298h163
q14 16 18 29q-5 -3 -17 -3q-24 0 -40.5 17t-16.5 44q0 28 20 48.5t48 20.5q32 0 54 -23t22 -62z" />
    <glyph glyph-name="uni1EF0" unicode="&#x1ef0;" horiz-adv-x="749" 
d="M799 725q0 -44 -26.5 -87.5t-77.5 -70.5v-292q0 -131 -79 -209t-241 -78t-241.5 77.5t-79.5 208.5v393h205v-386q0 -52 28.5 -83.5t87.5 -31.5q58 0 86.5 32t28.5 83v386h205v-30q25 22 34 46q-5 -3 -17 -3q-24 0 -40.5 17t-16.5 44q0 28 20 48.5t48 20.5q32 0 54 -23
t22 -62zM375 -32q36 0 62 -26t26 -63t-26 -63t-62 -26q-37 0 -63 26t-26 63t26 63t63 26z" />
    <glyph glyph-name="uni1EF1" unicode="&#x1ef1;" horiz-adv-x="606" 
d="M627 554q0 -81 -71 -136v-418h-180v54q-60 -66 -166 -66q-80 0 -120 42t-40 108v345h180v-268q0 -68 70 -68q42 0 76 38v298h163q14 16 18 29q-5 -3 -17 -3q-24 0 -40.5 17t-16.5 44q0 28 20 48.5t48 20.5q32 0 54 -23t22 -62zM303 -32q36 0 62 -26t26 -63t-26 -63
t-62 -26q-37 0 -63 26t-26 63t26 63t63 26z" />
    <glyph glyph-name="Ygrave" unicode="&#x1ef2;" horiz-adv-x="664" 
d="M274 723l-155 144h155l120 -144h-120zM232 0v265l-250 402h227l124 -225l122 225h227l-248 -402v-265h-202z" />
    <glyph glyph-name="ygrave" unicode="&#x1ef3;" horiz-adv-x="535" 
d="M209 556l-155 144h155l120 -144h-120zM70 -28q16 -9 38 -9q54 0 63 19l4 10l-190 491h190l92 -276l93 276h190l-210 -543q-30 -78 -84 -105.5t-141 -30.5q-43 0 -70 8z" />
    <glyph glyph-name="uni1EF4" unicode="&#x1ef4;" horiz-adv-x="664" 
d="M232 0v265l-250 402h227l124 -225l122 225h227l-248 -402v-265h-202zM244 -121q0 37 26 63t63 26q36 0 62 -26t26 -63t-26 -63t-62 -26q-37 0 -63 26t-26 63z" />
    <glyph glyph-name="uni1EF5" unicode="&#x1ef5;" horiz-adv-x="535" 
d="M70 -28q16 -9 38 -9q54 0 63 19l4 10l-190 491h190l92 -276l93 276h190l-210 -543q-30 -78 -84 -105.5t-141 -30.5q-43 0 -70 8zM178 -291q0 37 26 63t63 26q36 0 62 -26t26 -63t-26 -63t-62 -26q-37 0 -63 26t-26 63z" />
    <glyph glyph-name="uni1EF6" unicode="&#x1ef6;" horiz-adv-x="664" 
d="M214 808q13 38 43 56.5t68 18.5q49 0 82 -24t33 -73q0 -27 -16 -63h-91q22 25 22 58q0 31 -30 31q-23 0 -36 -29zM232 0v265l-250 402h227l124 -225l122 225h227l-248 -402v-265h-202z" />
    <glyph glyph-name="uni1EF7" unicode="&#x1ef7;" horiz-adv-x="535" 
d="M149 641q13 38 43 56.5t68 18.5q49 0 82 -24t33 -73q0 -27 -16 -63h-91q22 25 22 58q0 31 -30 31q-23 0 -36 -29zM70 -28q16 -9 38 -9q54 0 63 19l4 10l-190 491h190l92 -276l93 276h190l-210 -543q-30 -78 -84 -105.5t-141 -30.5q-43 0 -70 8z" />
    <glyph glyph-name="uni1EF8" unicode="&#x1ef8;" horiz-adv-x="664" 
d="M307 749q-23 15 -32 15q-24 0 -24 -37h-89q0 134 118 134q36 0 78 -28q23 -15 32 -15q24 0 24 37h89q0 -134 -118 -134q-36 0 -78 28zM232 0v265l-250 402h227l124 -225l122 225h227l-248 -402v-265h-202z" />
    <glyph glyph-name="uni1EF9" unicode="&#x1ef9;" horiz-adv-x="535" 
d="M242 582q-23 15 -32 15q-24 0 -24 -37h-89q0 134 118 134q36 0 78 -28q22 -15 32 -15q24 0 24 37h89q0 -134 -118 -134q-36 0 -78 28zM70 -28q16 -9 38 -9q54 0 63 19l4 10l-190 491h190l92 -276l93 276h190l-210 -543q-30 -78 -84 -105.5t-141 -30.5q-43 0 -70 8z" />
    <glyph glyph-name="uni2000" unicode="&#x2000;" horiz-adv-x="500" 
 />
    <glyph glyph-name="uni2001" unicode="&#x2001;" horiz-adv-x="1000" 
 />
    <glyph glyph-name="uni2002" unicode="&#x2002;" horiz-adv-x="500" 
 />
    <glyph glyph-name="uni2003" unicode="&#x2003;" horiz-adv-x="1000" 
 />
    <glyph glyph-name="uni2004" unicode="&#x2004;" horiz-adv-x="333" 
 />
    <glyph glyph-name="uni2005" unicode="&#x2005;" horiz-adv-x="250" 
 />
    <glyph glyph-name="uni2006" unicode="&#x2006;" horiz-adv-x="167" 
 />
    <glyph glyph-name="uni2007" unicode="&#x2007;" horiz-adv-x="648" 
 />
    <glyph glyph-name="uni2008" unicode="&#x2008;" horiz-adv-x="283" 
 />
    <glyph glyph-name="uni2009" unicode="&#x2009;" horiz-adv-x="125" 
 />
    <glyph glyph-name="uni200A" unicode="&#x200a;" horiz-adv-x="56" 
 />
    <glyph glyph-name="endash" unicode="&#x2013;" horiz-adv-x="593" 
d="M30 167v150h533v-150h-533z" />
    <glyph glyph-name="emdash" unicode="&#x2014;" horiz-adv-x="833" 
d="M30 167v150h773v-150h-773z" />
    <glyph glyph-name="uni2015" unicode="&#x2015;" horiz-adv-x="593" 
d="M30 167v150h533v-150h-533z" />
    <glyph glyph-name="quoteleft" unicode="&#x2018;" horiz-adv-x="281" 
d="M155 678l73 -59q-25 -11 -53.5 -40t-37.5 -56q10 4 26 4q37 0 62 -26t25 -67q0 -43 -31 -74t-73 -31q-48 0 -82 35t-34 94q0 132 125 220z" />
    <glyph glyph-name="quoteright" unicode="&#x2019;" horiz-adv-x="281" 
d="M129 328l-73 59q25 11 53.5 40t37.5 56q-10 -4 -26 -4q-37 0 -62 26t-25 67q0 43 31 74t73 31q48 0 82 -35t34 -94q0 -132 -125 -220z" />
    <glyph glyph-name="quotesinglbase" unicode="&#x201a;" horiz-adv-x="281" 
d="M129 -147l-73 59q25 11 53.5 40t37.5 56q-10 -4 -26 -4q-37 0 -62 26t-25 67q0 43 31 74t73 31q48 0 82 -35t34 -94q0 -132 -125 -220z" />
    <glyph glyph-name="quotereversed" unicode="&#x201b;" horiz-adv-x="281" 
d="M143 677q42 0 73 -31t31 -74q0 -41 -25 -67t-62 -26q-16 0 -26 4q9 -27 37.5 -56t53.5 -40l-73 -59q-125 88 -125 220q0 59 34 94t82 35z" />
    <glyph glyph-name="quotedblleft" unicode="&#x201c;" horiz-adv-x="528" 
d="M151 678l73 -59q-25 -11 -53.5 -40t-37.5 -56q10 4 26 4q37 0 62 -26t25 -67q0 -43 -31 -74t-73 -31q-48 0 -82 35t-34 94q0 132 125 220zM398 678l73 -59q-25 -11 -53.5 -40t-37.5 -56q10 4 26 4q37 0 62 -26t25 -67q0 -43 -31 -74t-73 -31q-48 0 -82 35t-34 94
q0 132 125 220z" />
    <glyph glyph-name="quotedblright" unicode="&#x201d;" horiz-adv-x="528" 
d="M129 328l-73 59q25 11 53.5 40t37.5 56q-10 -4 -26 -4q-37 0 -62 26t-25 67q0 43 31 74t73 31q48 0 82 -35t34 -94q0 -132 -125 -220zM376 328l-73 59q25 11 53.5 40t37.5 56q-10 -4 -26 -4q-37 0 -62 26t-25 67q0 43 31 74t73 31q48 0 82 -35t34 -94q0 -132 -125 -220z
" />
    <glyph glyph-name="quotedblbase" unicode="&#x201e;" horiz-adv-x="528" 
d="M129 -147l-73 59q25 11 53.5 40t37.5 56q-10 -4 -26 -4q-37 0 -62 26t-25 67q0 43 31 74t73 31q48 0 82 -35t34 -94q0 -132 -125 -220zM376 -147l-73 59q25 11 53.5 40t37.5 56q-10 -4 -26 -4q-37 0 -62 26t-25 67q0 43 31 74t73 31q48 0 82 -35t34 -94q0 -132 -125 -220
z" />
    <glyph glyph-name="dagger" unicode="&#x2020;" horiz-adv-x="291" 
d="M185 517l4 -190h-88l5 190l-89 -4v81l89 -3l-5 86h88l-4 -86l89 3v-81z" />
    <glyph glyph-name="daggerdbl" unicode="&#x2021;" horiz-adv-x="291" 
d="M274 513l-89 4v-175l89 4v-81l-89 3l4 -88h-88l4 88l-88 -3v81l88 -4v175l-88 -4v81l88 -3l-4 86h88l-4 -86l89 3v-81z" />
    <glyph glyph-name="bullet" unicode="&#x2022;" horiz-adv-x="358" 
d="M180 113q-54 0 -92 38t-38 91q0 54 38 92t92 38t92 -38t38 -92q0 -53 -38 -91t-92 -38z" />
    <glyph glyph-name="ellipsis" unicode="&#x2026;" horiz-adv-x="846" 
d="M141 -11q-43 0 -74.5 31.5t-31.5 74.5q0 44 31.5 75.5t74.5 31.5t74.5 -31.5t31.5 -75.5q0 -43 -31.5 -74.5t-74.5 -31.5zM423 -11q-43 0 -74.5 31.5t-31.5 74.5q0 44 31.5 75.5t74.5 31.5t74.5 -31.5t31.5 -75.5q0 -43 -31.5 -74.5t-74.5 -31.5zM705 -11
q-43 0 -74.5 31.5t-31.5 74.5q0 44 31.5 75.5t74.5 31.5t74.5 -31.5t31.5 -75.5q0 -43 -31.5 -74.5t-74.5 -31.5z" />
    <glyph glyph-name="perthousand" unicode="&#x2030;" horiz-adv-x="1160" 
d="M198 341q-80 0 -129 48t-49 119q0 72 49 120.5t129 48.5q81 0 130.5 -48.5t49.5 -120.5q0 -71 -49.5 -119t-130.5 -48zM228 0h-97l426 667h98zM198 583q-56 0 -56 -75q0 -37 15.5 -55t40.5 -18q26 0 42 18t16 55q0 38 -16 56.5t-42 18.5zM585 -12q-80 0 -129 48t-49 119
q0 72 49 120.5t129 48.5t129.5 -48.5t49.5 -120.5q0 -71 -49.5 -119t-129.5 -48zM961 -12q-80 0 -129 48t-49 119q0 72 49 120.5t129 48.5t129.5 -48.5t49.5 -120.5q0 -71 -49.5 -119t-129.5 -48zM585 230q-57 0 -57 -75q0 -73 57 -73q26 0 42 18t16 55q0 38 -16 56.5
t-42 18.5zM961 230q-57 0 -57 -75q0 -73 57 -73q26 0 42 18t16 55q0 38 -16 56.5t-42 18.5z" />
    <glyph glyph-name="uni2032" unicode="&#x2032;" horiz-adv-x="262" 
d="M25 353q39 245 48 267q10 26 34 41.5t52 15.5q37 0 64 -26.5t27 -64.5q0 -20 -7 -35q-4 -10 -41.5 -66.5t-73.5 -108.5l-35 -51z" />
    <glyph glyph-name="uni2033" unicode="&#x2033;" horiz-adv-x="486" 
d="M25 353q39 245 48 267q10 26 34 41.5t52 15.5q37 0 64 -26.5t27 -64.5q0 -20 -7 -35q-4 -10 -41.5 -66.5t-73.5 -108.5l-35 -51zM249 353q39 245 48 267q10 26 34 41.5t52 15.5q37 0 64 -26.5t27 -64.5q0 -20 -7 -35q-4 -10 -41.5 -66.5t-73.5 -108.5l-35 -51z" />
    <glyph glyph-name="guilsinglleft" unicode="&#x2039;" horiz-adv-x="380" 
d="M190 63l-160 180l160 177h160l-160 -177l160 -180h-160z" />
    <glyph glyph-name="guilsinglright" unicode="&#x203a;" horiz-adv-x="380" 
d="M190 63h-160l160 180l-160 177h160l160 -177z" />
    <glyph glyph-name="uni203D" unicode="&#x203d;" horiz-adv-x="460" 
d="M222 677q117 0 173.5 -53t56.5 -139q0 -66 -40.5 -114.5t-96.5 -71.5l-6 -51h-162l-27 210h132v-71q30 24 30 60q0 33 -22 50.5t-60 17.5q-57 0 -100 -43l-100 114q42 45 101.5 68t120.5 23zM228 202q44 0 75.5 -32t31.5 -75t-31.5 -75t-75.5 -32t-75.5 32t-31.5 75
t31.5 75t75.5 32z" />
    <glyph glyph-name="uni203E" unicode="&#x203e;" horiz-adv-x="363" 
d="M0 551v97h363v-97h-363z" />
    <glyph glyph-name="fraction" unicode="&#x2044;" horiz-adv-x="180" 
d="M-75 0h-97l426 667h98z" />
    <glyph glyph-name="uni2070" unicode="&#x2070;" horiz-adv-x="407" 
d="M204 414q-89 0 -136.5 59.5t-47.5 147.5q0 87 48 146.5t136 59.5t135.5 -59.5t47.5 -146.5q0 -88 -47.5 -147.5t-135.5 -59.5zM204 723q-27 0 -39.5 -24t-12.5 -78q0 -103 52 -103q51 0 51 103q0 102 -51 102z" />
    <glyph glyph-name="uni2074" unicode="&#x2074;" horiz-adv-x="407" 
d="M347 492v-71h-131v71h-197v87l143 242h185v-227h47v-102h-47zM216 712l-68 -118h68v118z" />
    <glyph glyph-name="uni2075" unicode="&#x2075;" horiz-adv-x="407" 
d="M198 414q-115 0 -173 55l69 84q39 -35 104 -35q27 0 41 11t14 26q0 37 -51 37q-46 0 -75 -26l-90 27v228h319v-104h-187v-61q32 30 84 30q55 0 92.5 -33t37.5 -94q0 -64 -49 -104.5t-136 -40.5z" />
    <glyph glyph-name="uni2076" unicode="&#x2076;" horiz-adv-x="407" 
d="M218 414q-99 0 -149 56.5t-50 149.5q0 101 60 154t160 53q76 0 129 -33l-54 -93q-31 22 -75 22q-37 0 -62.5 -17.5t-25.5 -47.5v-2q34 40 91 40q59 0 103 -37.5t44 -98.5q0 -66 -48 -106t-123 -40zM203 595q-34 0 -52 -16q2 -61 60 -61q19 0 32.5 10.5t13.5 25.5
q0 21 -17 31t-37 10z" />
    <glyph glyph-name="uni2077" unicode="&#x2077;" horiz-adv-x="379" 
d="M229 421h-146l134 296h-197v104h339v-91z" />
    <glyph glyph-name="uni2078" unicode="&#x2078;" horiz-adv-x="407" 
d="M203 414q-49 0 -88 9t-68.5 35.5t-29.5 69.5q0 32 25 60.5t64 38.5q-37 9 -59.5 34t-22.5 58q0 55 53 81.5t126 26.5q74 0 127 -26.5t53 -81.5q0 -33 -22.5 -58t-59.5 -34q38 -10 63 -38.5t25 -60.5q0 -62 -53 -88t-133 -26zM203 728q-48 0 -48 -29q0 -24 48 -32
q16 2 32 10t16 22q0 29 -48 29zM203 581q-16 -1 -35.5 -11t-19.5 -28q0 -29 55 -29q56 0 56 29q0 18 -20 28t-36 11z" />
    <glyph glyph-name="uni2079" unicode="&#x2079;" horiz-adv-x="407" 
d="M191 827q98 0 148 -56.5t50 -149.5q0 -101 -60 -154t-160 -53q-76 0 -128 33l54 93q29 -22 75 -22q35 0 61 16.5t26 48.5v2q-34 -40 -91 -40q-59 0 -103 37.5t-44 98.5q0 66 48.5 106t123.5 40zM205 646q34 0 52 17q-1 26 -15 43t-42 17q-21 0 -34.5 -10.5t-13.5 -25.5
q0 -21 16.5 -31t36.5 -10z" />
    <glyph glyph-name="uni207D" unicode="&#x207d;" horiz-adv-x="223" 
d="M133 356q-49 38 -80.5 114.5t-31.5 150.5q0 73 31.5 150t80.5 115l80 -31q-58 -103 -58 -234t58 -234z" />
    <glyph glyph-name="uni207E" unicode="&#x207e;" horiz-adv-x="223" 
d="M89 356l-79 31q58 105 58 234q0 130 -58 234l79 31q49 -38 81 -115t32 -150q0 -74 -32 -150.5t-81 -114.5z" />
    <glyph glyph-name="uni207F" unicode="&#x207f;" horiz-adv-x="425" 
d="M258 326v172q0 43 -44 43q-26 0 -47 -21v-194h-127v314h127v-34q40 42 110 42q53 0 80.5 -28.5t27.5 -72.5v-221h-127z" />
    <glyph glyph-name="uni2080" unicode="&#x2080;" horiz-adv-x="407" 
d="M204 -153q-89 0 -136.5 59.5t-47.5 147.5q0 87 48 146.5t136 59.5t135.5 -59.5t47.5 -146.5q0 -88 -47.5 -147.5t-135.5 -59.5zM204 156q-27 0 -39.5 -24t-12.5 -78q0 -103 52 -103q51 0 51 103q0 102 -51 102z" />
    <glyph glyph-name="uni2081" unicode="&#x2081;" horiz-adv-x="336" 
d="M144 -146v233l-70 -69l-74 78l163 158h113v-400h-132z" />
    <glyph glyph-name="uni2082" unicode="&#x2082;" horiz-adv-x="407" 
d="M42 -146v95q96 67 138.5 99t53 44.5t10.5 25.5q0 38 -50 38q-30 0 -60 -15t-46 -33l-66 84q65 68 175 68q83 0 131 -35.5t48 -95.5q0 -39 -30.5 -76t-113.5 -95h148v-104h-338z" />
    <glyph glyph-name="uni2083" unicode="&#x2083;" horiz-adv-x="407" 
d="M202 -153q-119 0 -179 62l62 87q23 -23 55 -34t57 -11q55 0 55 26q0 18 -17 23t-56 5q-43 0 -49 -1v102q9 -1 48 -1q38 0 52.5 5.5t14.5 20.5q0 25 -57 25q-60 0 -102 -39l-58 77q63 66 175 66q85 0 129 -30.5t44 -80.5q0 -31 -24.5 -56.5t-64.5 -32.5q37 -3 66.5 -28.5
t29.5 -64.5q0 -53 -50 -86.5t-131 -33.5z" />
    <glyph glyph-name="uni2084" unicode="&#x2084;" horiz-adv-x="407" 
d="M347 -75v-71h-131v71h-197v87l143 242h185v-227h47v-102h-47zM216 145l-68 -118h68v118z" />
    <glyph glyph-name="uni2085" unicode="&#x2085;" horiz-adv-x="407" 
d="M198 -153q-115 0 -173 55l69 84q39 -35 104 -35q27 0 41 11t14 26q0 37 -51 37q-46 0 -75 -26l-90 27v228h319v-104h-187v-61q32 30 84 30q55 0 92.5 -33t37.5 -94q0 -64 -49 -104.5t-136 -40.5z" />
    <glyph glyph-name="uni2086" unicode="&#x2086;" horiz-adv-x="407" 
d="M218 -153q-99 0 -149 56.5t-50 149.5q0 101 60 154t160 53q76 0 129 -33l-54 -93q-31 22 -75 22q-37 0 -62.5 -17.5t-25.5 -47.5v-2q34 40 91 40q59 0 103 -37.5t44 -98.5q0 -66 -48 -106t-123 -40zM203 28q-34 0 -52 -16q2 -61 60 -61q19 0 32.5 10.5t13.5 25.5
q0 21 -17 31t-37 10z" />
    <glyph glyph-name="uni2087" unicode="&#x2087;" horiz-adv-x="379" 
d="M229 -146h-146l134 296h-197v104h339v-91z" />
    <glyph glyph-name="uni2088" unicode="&#x2088;" horiz-adv-x="407" 
d="M203 -153q-49 0 -88 9t-68.5 35.5t-29.5 69.5q0 32 25 60.5t64 38.5q-37 9 -59.5 34t-22.5 58q0 55 53 81.5t126 26.5q74 0 127 -26.5t53 -81.5q0 -33 -22.5 -58t-59.5 -34q38 -10 63 -38.5t25 -60.5q0 -62 -53 -88t-133 -26zM203 161q-48 0 -48 -29q0 -24 48 -32
q16 2 32 10t16 22q0 29 -48 29zM203 14q-16 -1 -35.5 -11t-19.5 -28q0 -29 55 -29q56 0 56 29q0 18 -20 28t-36 11z" />
    <glyph glyph-name="uni2089" unicode="&#x2089;" horiz-adv-x="407" 
d="M191 260q98 0 148 -56.5t50 -149.5q0 -101 -60 -154t-160 -53q-76 0 -128 33l54 93q29 -22 75 -22q35 0 61 16.5t26 48.5v2q-34 -40 -91 -40q-59 0 -103 37.5t-44 98.5q0 66 48.5 106t123.5 40zM205 79q34 0 52 17q-1 26 -15 43t-42 17q-21 0 -34.5 -10.5t-13.5 -25.5
q0 -21 16.5 -31t36.5 -10z" />
    <glyph glyph-name="uni208D" unicode="&#x208d;" horiz-adv-x="223" 
d="M133 -211q-49 38 -80.5 114.5t-31.5 150.5q0 73 31.5 150t80.5 115l80 -31q-58 -103 -58 -234t58 -234z" />
    <glyph glyph-name="uni208E" unicode="&#x208e;" horiz-adv-x="223" 
d="M89 -211l-79 31q58 105 58 234q0 130 -58 234l79 31q49 -38 81 -115t32 -150q0 -74 -32 -150.5t-81 -114.5z" />
    <glyph glyph-name="colonmonetary" unicode="&#x20a1;" horiz-adv-x="712" 
d="M392 166q47 0 84 28t50 69l174 -80q-22 -50 -55.5 -90t-98 -72t-146.5 -33l-29 -88h-95l32 96q-32 8 -47 13l-36 -109h-95l49 149q-70 46 -109.5 119.5t-39.5 164.5q0 151 101.5 247t253.5 98l30 90h95l-33 -99q21 -4 47 -13l37 112h95l-51 -157q61 -47 95 -127l-174 -81
q-13 41 -50 69t-84 28q-68 0 -112.5 -48t-44.5 -119t44.5 -119t112.5 -48z" />
    <glyph glyph-name="uni20A3" unicode="&#x20a3;" horiz-adv-x="599" 
d="M567 491h-304v-66h297v-176h-297v-71h107v-97h-107v-81h-202v81h-54v97h54v489h506v-176z" />
    <glyph glyph-name="lira" unicode="&#x20a4;" horiz-adv-x="581" 
d="M492 199l77 -159q-48 -52 -160 -52q-49 0 -120 26q-41 16 -63 16q-50 0 -114 -37l-66 132q84 46 85 95h-105v84h81l-20 35h-61v84h21q-5 20 -5 37q0 68 42.5 119.5t100.5 74.5t118 23q100 0 163.5 -31t99.5 -99l-160 -92q-21 60 -77 60q-29 0 -47.5 -17t-18.5 -42
q0 -16 5 -33h151v-84h-118q6 -22 7 -35h111v-84h-126q-18 -27 -37 -36q19 7 46 7q26 0 63 -13q32 -12 51 -12q52 0 76 33z" />
    <glyph glyph-name="uni20A6" unicode="&#x20a6;" horiz-adv-x="764" 
d="M757 354h-54v-37h54v-97h-54v-220h-194l-246 358v-358h-202v220h-54v97h54v37h-54v97h54v216h208l232 -336v336h202v-216h54v-97z" />
    <glyph glyph-name="peseta" unicode="&#x20a7;" horiz-adv-x="715" 
d="M711 457v-97h-57q-14 -92 -76 -151t-161 -59h-154v-150h-202v360h-54v97h54v210h356q99 0 161 -58.5t75 -151.5h58zM263 491v-34h179q-17 34 -51 34h-128zM391 326q34 0 51 34h-179v-34h128z" />
    <glyph glyph-name="uni20A8" unicode="&#x20a8;" horiz-adv-x="1148" 
d="M421 0l-92 214h-73v-214h-202v667h356q113 0 176.5 -65.5t63.5 -163.5q0 -78 -35.5 -128t-84.5 -74l121 -236h-230zM445 441q0 26 -19.5 42t-46.5 16h-123v-117h123q27 0 46.5 16t19.5 43zM667 62l72 121q29 -23 82 -42t92 -19q48 0 48 23q0 11 -15.5 17t-52.5 11
q-26 3 -37.5 5t-38 8t-40.5 12.5t-34 18.5t-30 26.5t-18 37t-8 49.5q0 69 57.5 117t158.5 48q115 0 209 -62l-66 -117q-25 20 -63.5 35t-78.5 15q-45 0 -45 -21q0 -10 13 -16t49 -11q26 -4 38 -6t39 -8t41.5 -13t35 -19.5t31.5 -28t19 -38.5t8 -51q0 -73 -62 -119.5
t-167 -46.5q-66 0 -132 20.5t-105 53.5z" />
    <glyph glyph-name="uni20A9" unicode="&#x20a9;" horiz-adv-x="954" 
d="M966 667l-62 -216h45v-97h-73l-10 -37h83v-97h-111l-63 -220h-212l-86 378l-86 -378h-212l-63 220h-111v97h83l-10 37h-73v97h45l-62 216h226l86 -408l101 408h152l101 -408l85 408h227z" />
    <glyph glyph-name="uni20AA" unicode="&#x20aa;" horiz-adv-x="869" 
d="M619 325v-135h-168v118q0 48 -14.5 68.5t-61.5 20.5h-157v-397h-168v550h325q137 0 190.5 -57t53.5 -168zM250 0v359h168v-206h157q47 0 61.5 20.5t14.5 68.5v308h168v-325q0 -111 -53.5 -168t-190.5 -57h-325z" />
    <glyph glyph-name="dong" unicode="&#x20ab;" 
d="M595 618v-97h-49v-521h-180v51q-56 -63 -136 -63q-92 0 -152.5 67t-60.5 187q0 117 60.5 185t152.5 68q84 0 136 -63v89h-134v97h134v49h180v-49h49zM366 180v124q-26 32 -75 32q-38 0 -64 -25.5t-26 -68.5q0 -44 26 -69.5t64 -25.5q48 0 75 33zM127 -199v97h363v-97
h-363z" />
    <glyph glyph-name="Euro" unicode="&#x20ac;" horiz-adv-x="722" 
d="M410 166q44 0 80 28.5t49 68.5l174 -80q-16 -37 -40 -68.5t-60 -61.5t-88.5 -47.5t-114.5 -17.5q-125 0 -219.5 62t-129.5 168h-49v95h32q-1 7 -1 20q0 15 1 23h-32v95h50q36 104 130 165.5t218 61.5q120 0 193.5 -56t109.5 -138l-174 -81q-13 40 -49 68.5t-80 28.5
q-71 0 -118 -49h178v-95h-221q-1 -8 -1 -23q0 -13 1 -20h221v-95h-180q45 -52 120 -52z" />
    <glyph glyph-name="uni20B9" unicode="&#x20b9;" horiz-adv-x="545" 
d="M533 667v-105h-146q32 -30 45 -71h101v-105h-95q-10 -55 -43 -92.5t-73 -57.5l121 -236h-230l-92 210h-103v139h152q57 0 76 37h-228v105h228q-19 37 -76 37h-152v139h515z" />
    <glyph glyph-name="uni20BA" unicode="&#x20ba;" horiz-adv-x="588" 
d="M419 305l169 -50q-25 -108 -121 -181.5t-237 -73.5h-167v153l-56 -32v121l56 32v51l-56 -32v121l56 32v221h202v-105l146 84v-122l-146 -83v-51l146 84v-122l-146 -83v-93h9q48 0 91.5 37.5t53.5 91.5z" />
    <glyph glyph-name="uni20BD" unicode="&#x20bd;" horiz-adv-x="662" 
d="M410 229h-154v-54h237v-105h-237v-70h-202v70h-47v105h47v54h-47v157h47v281h356q113 0 176.5 -63t63.5 -157q0 -93 -63.5 -155.5t-176.5 -62.5zM256 491v-105h128q27 0 44 13.5t17 38.5q0 26 -17 39.5t-44 13.5h-128z" />
    <glyph glyph-name="uni2113" unicode="&#x2113;" horiz-adv-x="576" 
d="M231 174q0 -19 11 -32t29 -13q22 0 36 9l32 -118q-36 -32 -122 -32q-78 0 -122 37t-44 115v329q0 91 75 149.5t192 58.5q97 0 169.5 -45.5t72.5 -117.5q0 -57 -48.5 -106.5t-133.5 -104.5l-147 -95v-34zM320 427q40 26 55 42t15 35q0 23 -22.5 37t-53.5 14
q-40 0 -61.5 -22.5t-21.5 -63.5v-100z" />
    </font>
</defs>
</svg>
